<?xml version="1.0" standalone="no"?>
<!DOCTYPE svg PUBLIC "-//W3C//DTD SVG 1.1//EN" "http://www.w3.org/Graphics/SVG/1.1/DTD/svg11.dtd" >
<svg xmlns="http://www.w3.org/2000/svg" xmlns:xlink="http://www.w3.org/1999/xlink" version="1.1">
<metadata>
Created by FontForge 20170731 at Wed Oct 13 22:02:30 2021
 By Aleksey,,,
Copyright (c) 2018-2021 by TypeType. All rights reserved.
</metadata>
<defs>
<font id="TTCommonsPro-Rg" horiz-adv-x="0" >
  <font-face 
    font-family="TT Commons Pro"
    font-weight="400"
    font-stretch="normal"
    units-per-em="1000"
    panose-1="2 11 1 3 3 1 2 2 2 4"
    ascent="800"
    descent="-200"
    x-height="500"
    cap-height="700"
    bbox="-394 -270 986 1057"
    underline-thickness="50"
    underline-position="-280"
    unicode-range="U+0020-2212"
  />
<missing-glyph horiz-adv-x="900" 
d="M100 284h45v-139h33v139h50v31h-128v126l19 -61h23l34 106l33 -106h23l54 170h-32l-34 -110l-35 110h-19l-35 -110l-31 103v157h700v-150h-110v-170h110v-91q-6 13 -19.5 20t-30.5 7q-27 0 -43.5 -14.5t-16.5 -34.5q0 -22 14.5 -32.5t39.5 -17.5q17 -5 25.5 -9.5
t8.5 -13.5q0 -21 -28 -21q-14 0 -21 7t-7 18h-33q0 -24 17 -39.5t44 -15.5q17 0 30.5 6.5t19.5 13.5v-163h-700v284zM344 380v62h24l35 -62h37l-40 67q36 17 36 50q0 22 -16 37.5t-41 15.5h-68v-170h33zM469 380h33v170h-33v-170zM580 380h32v139h50v31h-132v-31h50v-139z
M379 519q10 0 17 -6.5t7 -16.5q0 -12 -7.5 -17.5t-16.5 -5.5h-35v46h35zM722 483v36h78v-36h-78zM722 411v41h78v-41h-78zM387.5 167.5q22.5 24.5 22.5 61.5t-23 62t-59 25t-59 -25t-23 -62t22.5 -61.5t59.5 -24.5t59.5 24.5zM549 315h-32v-106q0 -28 19.5 -47t48.5 -19
t48 19t19 47v106h-32v-106q0 -15 -9.5 -25t-25.5 -10q-17 0 -26.5 10.5t-9.5 24.5v106zM800 224q-15 14 -46 22q-16 5 -23 9t-7 12q0 9 7.5 14.5t18.5 5.5q10 0 18 -7t8 -18h24v-38zM291.5 190q-14.5 16 -14.5 39q0 25 14 40.5t37 15.5q24 0 37.5 -15.5t13.5 -40.5
q0 -23 -14.5 -39t-36.5 -16t-36.5 16z" />
    <glyph glyph-name="f_f.liga" unicode="ff" horiz-adv-x="549" 
d="M442 624.5q-22 -24.5 -22 -73.5v-51h117v-61h-117v-439h-65v439h-190v-439h-65v439h-72v61h72v30q0 74 39 117t99 43q22 0 44 -8v-59q-17 6 -34 6q-39 0 -61 -24.5t-22 -74.5v-30h190v50q0 74 39 117t99 43q22 0 44 -8v-59q-17 6 -34 6q-39 0 -61 -24.5z" />
    <glyph glyph-name="fi.liga" unicode="fi" horiz-adv-x="487" 
d="M165 500h255v-500h-65v439h-190v-439h-65v439h-72v61h72v14q0 92 54.5 144t144.5 52q49 0 88 -18v-59q-41 16 -88 16q-62 0 -98 -34.5t-36 -100.5v-14z" />
    <glyph glyph-name="fl.liga" unicode="fl" horiz-adv-x="497" 
d="M361.5 704q33.5 -6 58.5 -18v-686h-65v642q-25 7 -61 7q-58 0 -93.5 -35t-35.5 -100v-14h117v-61h-117v-439h-65v439h-72v61h72v14q0 91 53.5 143.5t140.5 52.5q34 0 67.5 -6z" />
    <glyph glyph-name="f_f_i.liga" unicode="ffi" horiz-adv-x="742" 
d="M420 500h255v-500h-65v439h-190v-439h-65v439h-190v-439h-65v439h-72v61h72v30q0 74 39 117t99 43q22 0 44 -8v-59q-17 6 -34 6q-39 0 -61 -24.5t-22 -74.5v-30h190v14q0 92 54.5 144t144.5 52q49 0 88 -18v-59q-41 16 -88 16q-62 0 -98 -34.5t-36 -100.5v-14z" />
    <glyph glyph-name="f_f_l.liga" unicode="ffl" horiz-adv-x="752" 
d="M616.5 704q33.5 -6 58.5 -18v-686h-65v642q-25 7 -61 7q-58 0 -93.5 -35t-35.5 -100v-14h117v-61h-117v-439h-65v439h-190v-439h-65v439h-72v61h72v30q0 74 39 117t99 43q22 0 44 -8v-59q-17 6 -34 6q-39 0 -61 -24.5t-22 -74.5v-30h190v14q0 91 53.5 143.5t140.5 52.5
q34 0 67.5 -6z" />
    <glyph glyph-name="f_f_j.liga" unicode="ffj" horiz-adv-x="742" 
d="M420 500h255v-526q0 -74 -38.5 -116.5t-99.5 -42.5q-22 0 -44 8v59q17 -6 34 -6q39 0 61 24.5t22 73.5v465h-190v-439h-65v439h-190v-439h-65v439h-72v61h72v30q0 74 39 117t99 43q22 0 44 -8v-59q-17 6 -34 6q-39 0 -61 -24.5t-22 -74.5v-30h190v14q0 92 54.5 144
t144.5 52q49 0 88 -18v-59q-41 16 -88 16q-62 0 -98 -34.5t-36 -100.5v-14z" />
    <glyph glyph-name="f_j.liga" unicode="fj" horiz-adv-x="487" 
d="M165 500h255v-526q0 -74 -38.5 -116.5t-99.5 -42.5q-22 0 -44 8v59q17 -6 34 -6q39 0 61 24.5t22 73.5v465h-190v-439h-65v439h-72v61h72v14q0 92 54.5 144t144.5 52q49 0 88 -18v-59q-41 16 -88 16q-62 0 -98 -34.5t-36 -100.5v-14z" />
    <glyph glyph-name=".notdef" horiz-adv-x="900" 
d="M100 284h45v-139h33v139h50v31h-128v126l19 -61h23l34 106l33 -106h23l54 170h-32l-34 -110l-35 110h-19l-35 -110l-31 103v157h700v-150h-110v-170h110v-91q-6 13 -19.5 20t-30.5 7q-27 0 -43.5 -14.5t-16.5 -34.5q0 -22 14.5 -32.5t39.5 -17.5q17 -5 25.5 -9.5
t8.5 -13.5q0 -21 -28 -21q-14 0 -21 7t-7 18h-33q0 -24 17 -39.5t44 -15.5q17 0 30.5 6.5t19.5 13.5v-163h-700v284zM344 380v62h24l35 -62h37l-40 67q36 17 36 50q0 22 -16 37.5t-41 15.5h-68v-170h33zM469 380h33v170h-33v-170zM580 380h32v139h50v31h-132v-31h50v-139z
M379 519q10 0 17 -6.5t7 -16.5q0 -12 -7.5 -17.5t-16.5 -5.5h-35v46h35zM722 483v36h78v-36h-78zM722 411v41h78v-41h-78zM387.5 167.5q22.5 24.5 22.5 61.5t-23 62t-59 25t-59 -25t-23 -62t22.5 -61.5t59.5 -24.5t59.5 24.5zM549 315h-32v-106q0 -28 19.5 -47t48.5 -19
t48 19t19 47v106h-32v-106q0 -15 -9.5 -25t-25.5 -10q-17 0 -26.5 10.5t-9.5 24.5v106zM800 224q-15 14 -46 22q-16 5 -23 9t-7 12q0 9 7.5 14.5t18.5 5.5q10 0 18 -7t8 -18h24v-38zM291.5 190q-14.5 16 -14.5 39q0 25 14 40.5t37 15.5q24 0 37.5 -15.5t13.5 -40.5
q0 -23 -14.5 -39t-36.5 -16t-36.5 16z" />
    <glyph glyph-name=".null" 
 />
    <glyph glyph-name="nonmarkingreturn" 
 />
    <glyph glyph-name="space" unicode=" " horiz-adv-x="238" 
 />
    <glyph glyph-name="exclam" unicode="!" horiz-adv-x="282" 
d="M167 175h-52l-16 525h84zM104 5q-15 15 -15 37t15 37t37 15t37 -15t15 -37t-15 -37t-37 -15t-37 15z" />
    <glyph glyph-name="quotedbl" unicode="&#x22;" horiz-adv-x="306" 
d="M111 480h-59v220h59v-220zM254 480h-59v220h59v-220z" />
    <glyph glyph-name="numbersign" unicode="#" horiz-adv-x="673" 
d="M648 496l-16 -62h-128l-35 -168h133l-16 -62h-130l-43 -204h-67l43 204h-165l-43 -204h-67l43 204h-132l16 62h128l36 168h-133l15 62h130l43 204h68l-43 -204h164l43 204h68l-43 -204h131zM237 266h164l36 168h-165z" />
    <glyph glyph-name="dollar" unicode="$" horiz-adv-x="554" 
d="M454.5 50.5q-50.5 -51.5 -142.5 -59.5v-96h-70v97q-89 10 -141 67.5t-57 144.5h70q5 -71 48.5 -110t117.5 -39t114.5 34.5t40.5 90.5q0 43 -23 70t-56.5 43t-91.5 36q-66 22 -106.5 42t-68.5 57t-28 97q0 74 48.5 124.5t132.5 58.5v97h70v-98q82 -12 130 -68.5t52 -137.5
h-70q-4 66 -44.5 105t-106.5 39q-67 0 -104.5 -33.5t-37.5 -86.5q0 -40 22 -65.5t54 -40t89 -33.5q67 -21 109 -41.5t71 -60.5t29 -104q0 -78 -50.5 -129.5z" />
    <glyph glyph-name="percent" unicode="%" horiz-adv-x="687" 
d="M106.5 431q-33.5 19 -53.5 53t-20 77t20 77t53.5 53t72.5 19t72.5 -19t53.5 -53t20 -77t-20 -77t-53.5 -53t-72.5 -19t-72.5 19zM165 0h-67l424 700h67zM244 489q27 27 27 72t-27 72t-65 27t-65 -27t-27 -72t27 -72t65 -27t65 27zM435.5 9q-33.5 19 -53.5 53t-20 77
t20 77t53.5 53t72.5 19t72.5 -19t53.5 -53t20 -77t-20 -77t-53.5 -53t-72.5 -19t-72.5 19zM573 67q27 27 27 72t-27 72t-65 27t-65 -27t-27 -72t27 -72t65 -27t65 27z" />
    <glyph glyph-name="ampersand" unicode="&#x26;" horiz-adv-x="577" 
d="M602 0h-92l-85 97q-89 -107 -197 -107q-53 0 -94.5 21t-65 58t-23.5 85q0 58 29 106t86 93l23 18l-13 15q-45 51 -64 89t-19 77q0 45 20 81t55.5 56.5t79.5 20.5q42 0 78 -21t57 -57.5t21 -79.5q0 -39 -22 -79t-62 -77l-35 -32l145 -163l82 118h75l-114 -167zM174.5 492
q17.5 -31 61.5 -81l27 25q65 59 65 116q0 41 -24 67t-62 26t-61.5 -26t-23.5 -67q0 -29 17.5 -60zM382 146l-156 176l-20 -15q-47 -36 -69 -70t-22 -79q0 -48 30.5 -75.5t82.5 -27.5q79 0 154 91z" />
    <glyph glyph-name="quotesingle" unicode="'" horiz-adv-x="163" 
d="M111 480h-59v220h59v-220z" />
    <glyph glyph-name="parenleft" unicode="(" horiz-adv-x="295" 
d="M217 -214q-49 66 -100.5 188t-51.5 276t51.5 276t100.5 188l48 -32q-41 -63 -86.5 -179.5t-45.5 -252.5q0 -96 25 -186t55.5 -152.5t51.5 -93.5z" />
    <glyph glyph-name="parenright" unicode=")" horiz-adv-x="295" 
d="M30 -182q21 31 51.5 93.5t55.5 152.5t25 186q0 136 -45.5 252.5t-86.5 179.5l48 32q49 -66 100.5 -188t51.5 -276t-51.5 -276t-100.5 -188z" />
    <glyph glyph-name="asterisk" unicode="*" horiz-adv-x="359" 
d="M310 613l19 -55l-115 -29l80 -104l-47 -34l-67 114l-68 -114l-47 34l80 104l-115 29l19 55l108 -44l-6 131h57l-6 -132z" />
    <glyph glyph-name="plus" unicode="+" horiz-adv-x="570" 
d="M318 141h-65v189h-179v61h179v189h65v-189h179v-61h-179v-189z" />
    <glyph glyph-name="comma" unicode="," horiz-adv-x="182" 
d="M128 78q15 -16 15 -44q0 -50 -26 -94.5t-56 -74.5l-17 22q37 49 41 103q-20 2 -33 17t-13 35q0 22 15 37t37 15t37 -16z" />
    <glyph glyph-name="hyphen" unicode="-" horiz-adv-x="390" 
d="M351 234h-312v63h312v-63z" />
    <glyph glyph-name="period" unicode="." horiz-adv-x="182" 
d="M54 5q-15 15 -15 37t15 37t37 15t37 -15t15 -37t-15 -37t-37 -15t-37 15z" />
    <glyph glyph-name="slash" unicode="/" horiz-adv-x="350" 
d="M62 -200h-62l288 900h62z" />
    <glyph glyph-name="zero" unicode="0" horiz-adv-x="598" 
d="M171 31q-58 41 -92.5 122.5t-34.5 196.5t34.5 196.5t92.5 122.5t128 41t128 -41t92.5 -122.5t34.5 -196.5t-34.5 -196.5t-92.5 -122.5t-128 -41t-128 41zM392 86.5q42 31.5 67 98t25 165.5t-25 165.5t-67 98t-93 31.5t-93 -31.5t-67 -98t-25 -165.5t25 -165.5t67 -98
t93 -31.5t93 31.5z" />
    <glyph glyph-name="one" unicode="1" horiz-adv-x="330" 
d="M24 582l166 118h51v-700h-70v611l-114 -82z" />
    <glyph glyph-name="two" unicode="2" horiz-adv-x="529" 
d="M136 65h343v-65h-439v58l271 278q47 48 72.5 87.5t25.5 89.5q0 59 -40.5 95.5t-109.5 36.5t-111 -40.5t-45 -103.5h-70q2 58 31 105.5t79.5 75.5t115.5 28q64 0 114.5 -26.5t78 -71.5t27.5 -99q0 -59 -31.5 -111t-87.5 -109z" />
    <glyph glyph-name="three" unicode="3" horiz-adv-x="532" 
d="M488 187q0 -52 -29 -97.5t-80.5 -72.5t-116.5 -27q-66 0 -116 26t-80 69t-38 93h70q5 -31 26 -59t56.5 -46t81.5 -18q70 0 113 37t43 95q0 60 -43.5 98.5t-116.5 38.5h-38v63h33q67 0 107.5 35t40.5 91q0 59 -39 95.5t-105 36.5q-39 0 -71 -17t-50.5 -45.5t-21.5 -59.5
h-70q4 49 32.5 92t75.5 69t105 26q62 0 111 -26.5t76 -71.5t27 -99q0 -57 -33 -93.5t-79 -58.5q129 -52 129 -174z" />
    <glyph glyph-name="four" unicode="4" horiz-adv-x="534" 
d="M417 221h78v-65h-78v-156h-70v156h-324v59l308 485h86v-479zM347 221v382l-243 -382h243z" />
    <glyph glyph-name="five" unicode="5" horiz-adv-x="551" 
d="M397 432q51 -30 81 -84t30 -123q0 -68 -30.5 -121.5t-84 -83.5t-120.5 -30q-62 0 -110.5 26.5t-78 69.5t-36.5 92h70q4 -29 24.5 -57.5t54.5 -47t76 -18.5q46 0 84 21.5t59.5 60.5t21.5 88q0 50 -21.5 89.5t-59.5 61t-84 21.5q-59 0 -93.5 -30t-51.5 -66h-64l44 399h350
v-65h-291l-26 -229q23 23 60.5 39.5t81.5 16.5q63 0 114 -30z" />
    <glyph glyph-name="six" unicode="6" horiz-adv-x="549" 
d="M393.5 435.5q53.5 -31.5 85 -86.5t31.5 -123q0 -66 -31.5 -120t-85 -85t-117.5 -31t-117.5 31t-85 85t-31.5 120q0 55 17.5 97t42.5 80l200 297h76l-167 -244q27 11 65 11q64 0 117.5 -31.5zM359.5 76.5q37.5 21.5 59 61.5t21.5 91t-21.5 90.5t-59 61t-83.5 21.5
t-83.5 -21.5t-59 -61t-21.5 -90.5t21.5 -91t59 -61.5t83.5 -21.5t83.5 21.5z" />
    <glyph glyph-name="seven" unicode="7" horiz-adv-x="489" 
d="M25 635v65h429v-50l-275 -650h-75l269 635h-348z" />
    <glyph glyph-name="eight" unicode="8" horiz-adv-x="556" 
d="M476 310q36 -44 36 -112q0 -57 -28.5 -104.5t-82 -75.5t-123.5 -28t-123.5 28t-82 75.5t-28.5 104.5q0 68 36 112t82 64q-37 23 -63.5 59.5t-26.5 90.5q0 51 26 93.5t73 67.5t107 25t107 -25t73 -67.5t26 -93.5q0 -54 -26.5 -90.5t-63.5 -59.5q46 -20 82 -64zM179.5 611
q-37.5 -34 -37.5 -87q0 -52 37.5 -86t98.5 -34t98.5 34t37.5 86q0 53 -37.5 87t-98.5 34t-98.5 -34zM397.5 95.5q44.5 40.5 44.5 102.5q0 60 -44.5 100.5t-119.5 40.5t-119.5 -40.5t-44.5 -100.5q0 -62 44.5 -102.5t119.5 -40.5t119.5 40.5z" />
    <glyph glyph-name="nine" unicode="9" horiz-adv-x="549" 
d="M390.5 679q53.5 -31 85 -85t31.5 -120q0 -55 -17.5 -97t-42.5 -80l-200 -297h-76l167 244q-27 -11 -65 -11q-64 0 -117.5 31.5t-85 86.5t-31.5 123q0 66 31.5 120t85 85t117.5 31t117.5 -31zM356.5 319.5q37.5 21.5 59 61t21.5 90.5t-21.5 91t-59 61.5t-83.5 21.5
t-83.5 -21.5t-59 -61.5t-21.5 -91t21.5 -90.5t59 -61t83.5 -21.5t83.5 21.5z" />
    <glyph glyph-name="colon" unicode=":" horiz-adv-x="182" 
d="M54 411q-15 15 -15 37t15 37t37 15t37 -15t15 -37t-15 -37t-37 -15t-37 15zM54 5q-15 15 -15 37t15 37t37 15t37 -15t15 -37t-15 -37t-37 -15t-37 15z" />
    <glyph glyph-name="semicolon" unicode=";" horiz-adv-x="182" 
d="M54 411q-15 15 -15 37t15 37t37 15t37 -15t15 -37t-15 -37t-37 -15t-37 15zM128 78q15 -16 15 -44q0 -50 -26 -94.5t-56 -74.5l-17 22q37 49 41 103q-20 2 -33 17t-13 35q0 22 15 37t37 15t37 -16z" />
    <glyph glyph-name="less" unicode="&#x3c;" horiz-adv-x="570" 
d="M86 382l384 199v-67l-305 -154l305 -154v-67l-384 200v43z" />
    <glyph glyph-name="equal" unicode="=" horiz-adv-x="570" 
d="M497 433h-423v61h423v-61zM497 226h-423v61h423v-61z" />
    <glyph glyph-name="greater" unicode="&#x3e;" horiz-adv-x="570" 
d="M100 514v67l384 -200v-43l-384 -199v67l305 154z" />
    <glyph glyph-name="question" unicode="?" horiz-adv-x="473" 
d="M192 189q0 50 13 86t31.5 59t48.5 52q37 35 55 63.5t18 74.5q0 53 -33.5 87t-87.5 34q-59 0 -95.5 -41.5t-36.5 -108.5v-13h-70v13q0 61 26.5 110t72.5 77t103 28q54 0 97.5 -25t68.5 -67.5t25 -93.5q0 -41 -11.5 -71t-27.5 -50t-44 -48q-41 -38 -62 -73t-21 -93v-14h-70
v14zM191 5q-15 15 -15 37t15 37t37 15t37 -15.5t15 -36.5q0 -22 -15 -37t-37 -15t-37 15z" />
    <glyph glyph-name="at" unicode="@" horiz-adv-x="821" 
d="M228 -72q-85 48 -134.5 132.5t-49.5 189.5q0 104 49.5 188.5t134 133t186.5 48.5q101 0 186.5 -48t135 -130.5t49.5 -180.5q0 -63 -20 -108t-54 -68.5t-75 -23.5q-47 0 -74 25t-36 46h-5q-12 -21 -45 -46t-85 -25q-43 0 -80.5 23.5t-60.5 66.5t-23 98t23 98t60.5 66.5
t80.5 23.5q48 0 77 -22t42 -44h5l18 61h37v-222q0 -48 18 -70.5t48 -22.5q39 0 64 36t25 108q0 83 -42 153t-113.5 110.5t-155.5 40.5t-155 -41t-113 -113t-42 -161t41.5 -161t113 -113t156.5 -41q57 0 98 14t65 32l28 -48q-29 -19 -79 -36t-112 -17q-102 0 -187 48z
M478 153q32 37 32 96q0 60 -31.5 96.5t-79.5 36.5t-80 -37t-32 -96t32.5 -96t79.5 -37t79 37z" />
    <glyph glyph-name="A" unicode="A" horiz-adv-x="607" 
d="M602 0h-75l-67 178h-316l-67 -178h-72l266 700h65zM436 243l-134 357l-134 -357h268z" />
    <glyph glyph-name="B" unicode="B" horiz-adv-x="614" 
d="M529 317.5q41 -43.5 41 -115.5q0 -58 -28 -104t-78 -72t-115 -26h-260v700h249q60 0 106.5 -24t72 -65.5t25.5 -91.5q0 -57 -30.5 -92.5t-70.5 -50.5q47 -15 88 -58.5zM159 635v-233h179q62 0 98 32t36 85q0 52 -36 84t-98 32h-179zM349 65q66 0 108.5 39t42.5 98
t-42.5 98t-108.5 39h-190v-274h190z" />
    <glyph glyph-name="C" unicode="C" horiz-adv-x="704" 
d="M207.5 37q-74.5 47 -119 129.5t-44.5 183.5t44.5 183.5t119 129.5t160.5 47q70 0 130.5 -32t102.5 -87.5t59 -124.5h-70q-26 79 -83.5 129t-138.5 50q-67 0 -125.5 -37.5t-93.5 -105t-35 -152.5t35 -152.5t93.5 -105t125.5 -37.5q84 0 142.5 50t84.5 129h70
q-17 -69 -59.5 -124.5t-104 -87.5t-133.5 -32q-86 0 -160.5 47z" />
    <glyph glyph-name="D" unicode="D" horiz-adv-x="654" 
d="M89 0v700h178q95 0 173.5 -45t124 -125t45.5 -180t-45.5 -180t-124 -125t-173.5 -45h-178zM267 65q74 0 136.5 37t99.5 102t37 146t-37 146t-99.5 102t-136.5 37h-108v-570h108z" />
    <glyph glyph-name="E" unicode="E" horiz-adv-x="577" 
d="M159 328v-263h373v-65h-443v700h433v-65h-363v-242h325v-65h-325z" />
    <glyph glyph-name="F" unicode="F" horiz-adv-x="554" 
d="M514 700v-65h-355v-252h309v-65h-309v-318h-70v700h425z" />
    <glyph glyph-name="G" unicode="G" horiz-adv-x="743" 
d="M391 342h280v-342h-49l-16 113q-36 -52 -98 -87.5t-140 -35.5q-86 0 -160.5 47t-119 129.5t-44.5 183.5t44.5 183.5t119 129.5t160.5 47q69 0 130.5 -29.5t104 -81t57.5 -113.5h-70q-26 70 -83 114.5t-139 44.5q-67 0 -125.5 -37.5t-93.5 -105t-35 -152.5t35 -152.5
t93.5 -105t125.5 -37.5q63 0 115 28.5t83.5 79.5t34.5 116h-210v63z" />
    <glyph glyph-name="H" unicode="H" horiz-adv-x="680" 
d="M521 390v310h70v-700h-70v325h-362v-325h-70v700h70v-310h362z" />
    <glyph glyph-name="I" unicode="I" horiz-adv-x="248" 
d="M159 0h-70v700h70v-700z" />
    <glyph glyph-name="J" unicode="J" horiz-adv-x="525" 
d="M119.5 17.5q-48.5 27.5 -75.5 73t-27 98.5h70q0 -34 18.5 -65t51 -50t73.5 -19q64 0 102.5 40t38.5 106v499h70v-499q0 -62 -26 -110t-74 -74.5t-111 -26.5q-62 0 -110.5 27.5z" />
    <glyph glyph-name="K" unicode="K" horiz-adv-x="550" 
d="M89 0v700h70v-700h-70zM542 700l-299 -341l315 -359h-90l-309 355l299 345h84z" />
    <glyph glyph-name="L" unicode="L" horiz-adv-x="513" 
d="M503 0h-414v700h70v-635h344v-65z" />
    <glyph glyph-name="M" unicode="M" horiz-adv-x="830" 
d="M415 106l262 594h64v-700h-70v524l-233 -524h-47l-232 524v-524h-70v700h65z" />
    <glyph glyph-name="N" unicode="N" horiz-adv-x="690" 
d="M531 129v571h70v-700h-66l-376 571v-571h-70v700h66z" />
    <glyph glyph-name="O" unicode="O" horiz-adv-x="737" 
d="M207.5 37q-74.5 47 -119 129.5t-44.5 183.5t44.5 183.5t119 129.5t160.5 47t161 -47t119.5 -129.5t44.5 -183.5t-44.5 -183.5t-119.5 -129.5t-161 -47t-160.5 47zM494.5 92.5q58.5 37.5 93.5 105t35 152.5t-35 152.5t-93.5 105t-126.5 37.5q-67 0 -125.5 -37.5
t-93.5 -105t-35 -152.5t35 -152.5t93.5 -105t125.5 -37.5q68 0 126.5 37.5z" />
    <glyph glyph-name="P" unicode="P" horiz-adv-x="581" 
d="M311 700q62 0 113.5 -29t81.5 -78.5t30 -108.5q0 -60 -30 -109.5t-81.5 -78.5t-113.5 -29h-152v-267h-70v700h222zM311 332q67 0 111 43t44 109q0 43 -20 77.5t-55.5 54t-79.5 19.5h-152v-303h152z" />
    <glyph glyph-name="Q" unicode="Q" horiz-adv-x="737" 
d="M668.5 211q-24.5 -65 -68.5 -114l68 -67l-43 -45l-71 70q-40 -32 -87.5 -48.5t-98.5 -16.5q-86 0 -160.5 47t-119 129.5t-44.5 183.5t44.5 183.5t119 129.5t160.5 47t161 -47t119.5 -129.5t44.5 -183.5q0 -74 -24.5 -139zM507 101l-106 104l43 45l108 -106
q34 39 52.5 91.5t18.5 114.5q0 85 -35 152.5t-93.5 105t-126.5 37.5q-67 0 -125.5 -37.5t-93.5 -105t-35 -152.5t35 -152.5t93.5 -105t125.5 -37.5q76 0 139 46z" />
    <glyph glyph-name="R" unicode="R" horiz-adv-x="607" 
d="M481 0l-168 295h-154v-295h-70v700h244q62 0 111.5 -27.5t78 -74.5t28.5 -103q0 -71 -45 -123.5t-118 -69.5l174 -302h-81zM159 635v-275h174q65 0 106.5 38.5t41.5 96.5q0 61 -41 100.5t-107 39.5h-174z" />
    <glyph glyph-name="S" unicode="S" horiz-adv-x="554" 
d="M111.5 49q-62.5 59 -67.5 155h70q5 -71 48.5 -110t117.5 -39t114.5 34.5t40.5 90.5q0 43 -23 70t-56.5 43t-91.5 36q-66 22 -106.5 42t-68.5 57t-28 97q0 53 25.5 95t73.5 66t113 24q66 0 115 -27t76 -74.5t30 -107.5h-70q-4 66 -44.5 105t-106.5 39q-67 0 -104.5 -33.5
t-37.5 -86.5q0 -40 22 -65.5t54 -40t89 -33.5q67 -21 109 -41.5t71 -60.5t29 -104q0 -86 -59 -138t-167 -52q-105 0 -167.5 59z" />
    <glyph glyph-name="T" unicode="T" horiz-adv-x="536" 
d="M303 0h-70v635h-216v65h502v-65h-216v-635z" />
    <glyph glyph-name="U" unicode="U" horiz-adv-x="668" 
d="M203 23q-57 33 -88 92.5t-31 135.5v449h70v-449q0 -90 49 -143t131 -53q81 0 130.5 53t49.5 143v449h70v-449q0 -76 -31.5 -135.5t-88 -92.5t-130.5 -33t-131 33z" />
    <glyph glyph-name="V" unicode="V" horiz-adv-x="610" 
d="M307 88l220 612h71l-256 -700h-75l-255 700h75z" />
    <glyph glyph-name="W" unicode="W" horiz-adv-x="864" 
d="M619 141l163 559h70l-210 -700h-51l-160 549l-158 -549h-51l-210 700h73l163 -559l159 559h50z" />
    <glyph glyph-name="X" unicode="X" horiz-adv-x="571" 
d="M325 355l231 -355h-82l-190 298l-192 -298h-77l230 355l-219 345h80l181 -287l180 287h78z" />
    <glyph glyph-name="Y" unicode="Y" horiz-adv-x="534" 
d="M269 344l190 356h73l-230 -426v-274h-70v274l-230 426h76z" />
    <glyph glyph-name="Z" unicode="Z" horiz-adv-x="543" 
d="M491 657l-364 -592h377v-65h-465v43l364 592h-353v65h441v-43z" />
    <glyph glyph-name="bracketleft" unicode="[" horiz-adv-x="306" 
d="M281 -200h-192v900h192v-61h-127v-778h127v-61z" />
    <glyph glyph-name="backslash" unicode="\" horiz-adv-x="350" 
d="M350 -200h-62l-288 900h62z" />
    <glyph glyph-name="bracketright" unicode="]" horiz-adv-x="306" 
d="M217 -200h-192v61h127v778h-127v61h192v-900z" />
    <glyph glyph-name="asciicircum" unicode="^" horiz-adv-x="403" 
d="M220 700l148 -315h-62l-105 228l-106 -228h-60l148 315h37z" />
    <glyph glyph-name="underscore" unicode="_" horiz-adv-x="297" 
d="M317 -180h-337v61h337v-61z" />
    <glyph glyph-name="grave" unicode="`" horiz-adv-x="202" 
d="M172 560h-51l-91 134h75z" />
    <glyph glyph-name="a" unicode="a" horiz-adv-x="497" 
d="M340 486.5q42 -23.5 66 -65.5t24 -96v-325h-48l-17 68h-5q-19 -30 -58.5 -54t-95.5 -24q-50 0 -87.5 20.5t-58 54.5t-20.5 75q0 45 27.5 80.5t77 55.5t113.5 20h107v29q0 56 -33 90t-87 34q-51 0 -80.5 -26t-37.5 -68h-65q5 42 29.5 77.5t64.5 56.5t89 21q53 0 95 -23.5z
M323.5 91.5q41.5 40.5 41.5 102.5v43h-97q-77 0 -120 -25.5t-43 -71.5q0 -40 28 -64.5t80 -24.5q69 0 110.5 40.5z" />
    <glyph glyph-name="b" unicode="b" horiz-adv-x="576" 
d="M235.5 4q-33.5 14 -56 32t-32.5 32h-5l-17 -68h-48v700h65v-268h5q9 14 32 32t56.5 32t71.5 14q63 0 115.5 -33t83.5 -92.5t31 -134.5t-31 -134.5t-83.5 -92.5t-115.5 -33q-38 0 -71.5 14zM390 76q38 25 60 70.5t22 103.5t-22 103.5t-60 70.5t-83 25t-83 -25t-60 -70.5
t-22 -103.5t22 -103.5t60 -70.5t83 -25t83 25z" />
    <glyph glyph-name="c" unicode="c" horiz-adv-x="526" 
d="M156 23.5q-54 33.5 -85.5 93t-31.5 133.5t31.5 133.5t85.5 93t118 33.5q56 0 102 -25.5t76 -68.5t40 -93h-65q-17 58 -56 92t-97 34q-46 0 -85 -25t-62 -70.5t-23 -103.5t23 -103.5t62 -70.5t85 -25q59 0 97.5 33.5t55.5 92.5h65q-10 -50 -40 -92.5t-76.5 -68.5
t-101.5 -26q-64 0 -118 33.5z" />
    <glyph glyph-name="d" unicode="d" horiz-adv-x="576" 
d="M153.5 23q-52.5 33 -83.5 92.5t-31 134.5t31 134.5t83.5 92.5t115.5 33q38 0 71.5 -14t56.5 -32t32 -32h5v268h65v-700h-48l-17 68h-5q-10 -14 -32.5 -32t-56 -32t-71.5 -14q-63 0 -115.5 33zM352 76q38 25 60 70.5t22 103.5t-22 103.5t-60 70.5t-83 25t-83 -25
t-60 -70.5t-22 -103.5t22 -103.5t60 -70.5t83 -25t83 25z" />
    <glyph glyph-name="e" unicode="e" horiz-adv-x="537" 
d="M494 218h-388q8 -77 54.5 -122t115.5 -45q92 0 139 79h65q-23 -61 -79 -100.5t-127 -39.5q-66 0 -119.5 33t-84.5 92t-31 135q0 74 31.5 133.5t85.5 93t118 33.5q63 0 114.5 -32.5t80.5 -88.5t29 -124q0 -31 -4 -47zM195.5 427.5q-36.5 -21.5 -61 -61t-29.5 -89.5h327
q-5 75 -49 123.5t-109 48.5q-42 0 -78.5 -21.5z" />
    <glyph glyph-name="f" unicode="f" horiz-adv-x="294" 
d="M187 624.5q-22 -24.5 -22 -73.5v-51h117v-61h-117v-439h-65v439h-72v61h72v50q0 74 39 117t99 43q22 0 44 -8v-59q-17 6 -34 6q-39 0 -61 -24.5z" />
    <glyph glyph-name="g" unicode="g" horiz-adv-x="559" 
d="M135 -149q-57 41 -74 110h65q14 -42 52.5 -66t94.5 -24q67 0 108 40t41 106v79h-5q-9 -14 -31 -32.5t-54 -32.5t-69 -14q-61 0 -112.5 32t-81.5 88.5t-30 125.5q0 70 30 126.5t81.5 88.5t112.5 32q37 0 69 -13.5t54 -32t31 -32.5h5l17 68h48v-483q0 -61 -27 -108
t-75.5 -73t-111.5 -26q-81 0 -138 41zM341.5 102q36.5 24 58.5 66.5t22 94.5q0 53 -22 95.5t-58.5 66.5t-78.5 24q-43 0 -79.5 -24t-58 -66.5t-21.5 -95.5q0 -52 21.5 -94.5t58 -66.5t79.5 -24q42 0 78.5 24z" />
    <glyph glyph-name="h" unicode="h" horiz-adv-x="560" 
d="M77 0v700h65v-268h5q20 31 58.5 54.5t88.5 23.5q56 0 101.5 -27t71.5 -77t26 -116v-290h-65v290q0 74 -39 116.5t-101 42.5q-66 0 -106 -42.5t-40 -116.5v-290h-65z" />
    <glyph glyph-name="i" unicode="i" horiz-adv-x="209" 
d="M137 0h-65v500h65v-500zM73 593q-13 13 -13 32q0 20 13 32.5t32 12.5q20 0 32.5 -12.5t12.5 -32.5q0 -19 -13 -32t-32 -13t-32 13z" />
    <glyph glyph-name="j" unicode="j" horiz-adv-x="209" 
d="M-45 -177v59q16 -6 34 -6q39 0 61 24.5t22 73.5v526h65v-526q0 -74 -38.5 -116.5t-99.5 -42.5q-22 0 -44 8zM73 593q-13 13 -13 32q0 20 13 32.5t32 12.5q20 0 32.5 -12.5t12.5 -32.5q0 -19 -13 -32t-32 -13t-32 13z" />
    <glyph glyph-name="k" unicode="k" horiz-adv-x="455" 
d="M77 0v700h65v-700h-65zM441 500l-219 -242l241 -258h-86l-235 255l218 245h81z" />
    <glyph glyph-name="l" unicode="l" horiz-adv-x="219" 
d="M142 0h-65v700h65v-700z" />
    <glyph glyph-name="m" unicode="m" horiz-adv-x="792" 
d="M643 485q38 -25 60 -71.5t22 -107.5v-306h-65v306q0 68 -30.5 105.5t-81.5 37.5q-49 0 -83 -39.5t-34 -103.5v-306h-65v306q0 67 -31 105t-81 38t-83.5 -39.5t-33.5 -103.5v-306h-65v500h48l17 -68h5q18 30 48.5 54t74.5 24q56 0 92.5 -31.5t52.5 -67.5q18 37 55 68
t95 31q45 0 83 -25z" />
    <glyph glyph-name="n" unicode="n" horiz-adv-x="555" 
d="M72 0v500h48l17 -68h5q20 31 58.5 54.5t88.5 23.5q56 0 101.5 -27t71.5 -77t26 -116v-290h-65v290q0 74 -39 116.5t-101 42.5q-66 0 -106 -42.5t-40 -116.5v-290h-65z" />
    <glyph glyph-name="o" unicode="o" horiz-adv-x="548" 
d="M156 23.5q-54 33.5 -85.5 93t-31.5 133.5t31.5 133.5t85.5 93t118 33.5t118 -33.5t85.5 -93t31.5 -133.5t-31.5 -133.5t-85.5 -93t-118 -33.5t-118 33.5zM359 76q39 25 62 70.5t23 103.5t-23 103.5t-62 70.5t-85 25t-85 -25t-62 -70.5t-23 -103.5t23 -103.5t62 -70.5
t85 -25t85 25z" />
    <glyph glyph-name="p" unicode="p" horiz-adv-x="571" 
d="M72 -180v680h48l17 -68h5q10 14 32.5 32t56 32t71.5 14q63 0 115.5 -33t83.5 -92.5t31 -134.5t-31 -134.5t-83.5 -92.5t-115.5 -33q-38 0 -71.5 14t-56.5 32t-32 32h-5v-248h-65zM385 76q38 25 60 70.5t22 103.5t-22 103.5t-60 70.5t-83 25t-83 -25t-60 -70.5t-22 -103.5
t22 -103.5t60 -70.5t83 -25t83 25z" />
    <glyph glyph-name="q" unicode="q" horiz-adv-x="571" 
d="M434 -180v248h-5q-9 -14 -32 -32t-56.5 -32t-71.5 -14q-63 0 -115.5 33t-83.5 92.5t-31 134.5t31 134.5t83.5 92.5t115.5 33q38 0 71.5 -14t56 -32t32.5 -32h5l17 68h48v-680h-65zM352 76q38 25 60 70.5t22 103.5t-22 103.5t-60 70.5t-83 25t-83 -25t-60 -70.5
t-22 -103.5t22 -103.5t60 -70.5t83 -25t83 25z" />
    <glyph glyph-name="r" unicode="r" horiz-adv-x="321" 
d="M72 0v500h48l17 -68h5q19 29 56 53.5t79 24.5q23 0 36 -4v-65q-16 4 -34 4q-63 0 -102.5 -42.5t-39.5 -116.5v-286h-65z" />
    <glyph glyph-name="s" unicode="s" horiz-adv-x="435" 
d="M131 11.5q-41 21.5 -65 57.5t-27 76h65q5 -42 36 -68t83 -26q51 0 78.5 23t27.5 58q0 26 -16 43t-39 27.5t-65 23.5q-51 16 -82 30.5t-53 42t-22 71.5q0 39 20.5 71t57.5 50.5t86 18.5q48 0 86 -20t60 -54.5t25 -75.5h-65q-5 42 -32 65.5t-74 23.5t-73 -21.5t-26 -54.5
q0 -36 29 -54.5t89 -37.5q51 -17 82.5 -32.5t54 -43.5t22.5 -73q0 -61 -46 -101.5t-125 -40.5q-51 0 -92 21.5z" />
    <glyph glyph-name="t" unicode="t" horiz-adv-x="320" 
d="M143 33q-39 43 -39 117v289h-89v61h39q61 0 61 60v73h54v-133h117v-61h-117v-290q0 -49 22 -73.5t61 -24.5q18 0 34 6v-59q-22 -8 -44 -8q-60 0 -99 43z" />
    <glyph glyph-name="u" unicode="u" horiz-adv-x="555" 
d="M164.5 17q-45.5 27 -71.5 77t-26 116v290h65v-290q0 -74 39 -116.5t101 -42.5q66 0 106 42.5t40 116.5v290h65v-500h-48l-17 68h-5q-20 -31 -58.5 -54.5t-88.5 -23.5q-56 0 -101.5 27z" />
    <glyph glyph-name="v" unicode="v" horiz-adv-x="478" 
d="M240 87l163 413h68l-202 -500h-58l-204 500h70z" />
    <glyph glyph-name="w" unicode="w" horiz-adv-x="678" 
d="M481 117l123 383h67l-167 -500h-47l-119 381l-117 -381h-47l-167 500h70l121 -383l119 383h45z" />
    <glyph glyph-name="x" unicode="x" horiz-adv-x="454" 
d="M268 255l175 -255h-76l-141 209l-142 -209h-73l175 255l-164 245h75l131 -200l131 200h73z" />
    <glyph glyph-name="y" unicode="y" horiz-adv-x="474" 
d="M399 500h68l-221 -550q-32 -78 -63.5 -106.5t-71.5 -28.5q-17 0 -39 8v59q17 -6 31 -6q24 0 42.5 15t33.5 52l27 68l-199 489h70l163 -406z" />
    <glyph glyph-name="z" unicode="z" horiz-adv-x="416" 
d="M375 445l-264 -384h272v-61h-350v55l265 384h-260v61h337v-55z" />
    <glyph glyph-name="braceleft" unicode="{" horiz-adv-x="333" 
d="M187 350q0 -77 -63 -100q63 -22 63 -100v-208q0 -39 21 -60t57 -21h42v-61h-42q-66 0 -104.5 37.5t-38.5 104.5v208q0 38 -18 54.5t-59 16.5v58q41 0 59 16.5t18 54.5v208q0 67 38.5 104.5t104.5 37.5h43v-61h-43q-36 0 -57 -21t-21 -60v-208z" />
    <glyph glyph-name="bar" unicode="|" horiz-adv-x="326" 
d="M193 -180h-60v880h60v-880z" />
    <glyph glyph-name="braceright" unicode="}" horiz-adv-x="333" 
d="M211 350q0 -38 18 -54.5t59 -16.5v-58q-41 0 -59 -16.5t-18 -54.5v-208q0 -67 -38.5 -104.5t-104.5 -37.5h-43v61h43q36 0 57 21t21 60v208q0 78 63 100q-63 22 -63 100v208q0 39 -21 60t-57 21h-42v61h42q66 0 104.5 -37.5t38.5 -104.5v-208z" />
    <glyph glyph-name="asciitilde" unicode="~" horiz-adv-x="570" 
d="M327 298.5q-25 12.5 -57 36.5q-28 20 -46 29.5t-37 9.5q-27 0 -44 -21t-17 -62h-58q0 68 35 105t84 37q31 0 56.5 -12.5t56.5 -36.5q28 -20 46 -29.5t37 -9.5q27 0 44 21t17 62h58q0 -68 -35 -105t-84 -37q-31 0 -56 12.5z" />
    <glyph glyph-name="uni00A0" unicode="&#xa0;" horiz-adv-x="238" 
 />
    <glyph glyph-name="exclamdown" unicode="&#xa1;" horiz-adv-x="282" 
d="M104 411q-15 15 -15 37t15 37t37 15t37 -15t15 -37t-15 -37t-37 -15t-37 15zM183 -180h-84l16 495h52z" />
    <glyph glyph-name="cent" unicode="&#xa2;" horiz-adv-x="526" 
d="M371.5 84.5q38.5 33.5 55.5 92.5h65q-13 -69 -63.5 -121t-121.5 -63v-98h-65v97q-57 8 -103.5 43t-73 91t-26.5 124t26.5 124t73 91t103.5 43v97h65v-97q71 -11 121.5 -63.5t63.5 -121.5h-65q-17 58 -56 92t-97 34q-46 0 -85 -25t-62 -70.5t-23 -103.5t23 -103.5
t62 -70.5t85 -25q59 0 97.5 33.5z" />
    <glyph glyph-name="sterling" unicode="&#xa3;" horiz-adv-x="567" 
d="M186 149q0 -54 -40 -84h373v-65h-475v65q32 3 52 24.5t20 59.5v145h-72v65h72v142q0 58 27.5 105.5t75.5 75.5t105 28q56 0 101.5 -26.5t72 -72.5t29.5 -101h-70q-5 60 -40.5 97.5t-92.5 37.5q-59 0 -98.5 -40.5t-39.5 -103.5v-142h195v-65h-195v-145z" />
    <glyph glyph-name="currency" unicode="&#xa4;" horiz-adv-x="480" 
d="M375 259l60 -60l-41 -39l-57 57q-42 -33 -97 -33t-97 33l-57 -57l-41 39l60 60q-23 43 -23 90t23 90l-60 60l41 39l57 -57q42 33 97 33t97 -33l57 57l41 -39l-60 -60q23 -43 23 -90t-23 -90zM311 270q28 31 28 79q0 47 -28 78.5t-71 31.5t-71 -31t-28 -79t28 -79t71 -31
t71 31z" />
    <glyph glyph-name="yen" unicode="&#xa5;" horiz-adv-x="554" 
d="M469 700h73l-199 -369h124v-65h-155v-80h155v-65h-155v-121h-70v121h-155v65h155v80h-155v65h124l-199 369h76l191 -356z" />
    <glyph glyph-name="brokenbar" unicode="&#xa6;" horiz-adv-x="326" 
d="M193 355h-60v345h60v-345zM193 -180h-60v345h60v-345z" />
    <glyph glyph-name="section" unicode="&#xa7;" horiz-adv-x="494" 
d="M388 81q17 -29 17 -69t-20 -73t-56.5 -52.5t-82.5 -19.5q-51 0 -89.5 21.5t-59 56.5t-23.5 76h65q5 -43 33 -68t75 -25q41 0 67 23.5t26 60.5q0 42 -32 66t-96 51q-53 23 -85 42t-54.5 51t-22.5 78q0 89 103 145q-30 22 -47 51t-17 69t20 73t56.5 52.5t82.5 19.5
q51 0 89.5 -21.5t59 -56.5t23.5 -76h-65q-5 43 -33 68t-75 25q-41 0 -67 -23.5t-26 -60.5q0 -42 32 -66t96 -51q53 -23 85 -42t54.5 -51t22.5 -78q0 -89 -103 -145q30 -22 47 -51zM132 250.5q17 -20.5 41.5 -34t69.5 -33.5q22 -8 37 -16q99 39 99 110q0 29 -17 49.5
t-41.5 34t-69.5 33.5q-22 8 -37 16q-99 -39 -99 -110q0 -29 17 -49.5z" />
    <glyph glyph-name="dieresis" unicode="&#xa8;" horiz-adv-x="306" 
d="M43 594.5q-13 12.5 -13 30.5t12.5 30.5t30.5 12.5t30.5 -12t12.5 -31q0 -18 -12.5 -30.5t-30.5 -12.5q-17 0 -30 12.5zM202.5 594.5q-12.5 12.5 -12.5 30.5q0 19 12.5 31t30.5 12t30.5 -12.5t12.5 -30.5t-13 -30.5t-30 -12.5q-18 0 -30.5 12.5z" />
    <glyph glyph-name="copyright" unicode="&#xa9;" horiz-adv-x="788" 
d="M218 37q-80 47 -127 129.5t-47 183.5t47 183.5t127 129.5t176 47t176 -47t127 -129.5t47 -183.5t-47 -183.5t-127 -129.5t-176 -47t-176 47zM541.5 84q66.5 39 104.5 108.5t38 157.5t-38 157.5t-104.5 108.5t-147.5 39t-147.5 -39t-104.5 -108.5t-38 -157.5t38 -157.5
t104.5 -108.5t147.5 -39t147.5 39zM312.5 190.5q-38.5 23.5 -61.5 65.5t-23 94t23 94t61.5 65.5t81.5 23.5q61 0 105 -37t55 -90h-56q-26 75 -104 75q-28 0 -53.5 -16.5t-41 -46.5t-15.5 -68t15.5 -68t41 -46.5t53.5 -16.5q78 0 104 75h56q-11 -53 -55 -90t-105 -37
q-43 0 -81.5 23.5z" />
    <glyph glyph-name="ordfeminine" unicode="&#xaa;" horiz-adv-x="302" 
d="M232.5 678q31.5 -32 31.5 -84v-188h-42l-12 35h-5q-32 -41 -80 -41q-41 0 -70.5 24.5t-29.5 62.5q0 41 34 70t96 29h56v8q0 34 -16.5 52t-44.5 18q-25 0 -41 -14t-19 -34h-53q7 39 36 66.5t77 27.5q51 0 82.5 -32zM189.5 466.5q21.5 20.5 21.5 58.5v15h-52
q-42 0 -61.5 -14t-19.5 -37q0 -20 15 -31.5t41 -11.5q34 0 55.5 20.5z" />
    <glyph glyph-name="guillemotleft" unicode="&#xab;" horiz-adv-x="437" 
d="M225 87h-66l-119 178l119 178h66l-119 -178zM397 87h-66l-119 178l119 178h66l-119 -178z" />
    <glyph glyph-name="logicalnot" unicode="&#xac;" horiz-adv-x="570" 
d="M497 260h-61v100h-363v61h424v-161z" />
    <glyph glyph-name="uni00AD" unicode="&#xad;" horiz-adv-x="390" 
d="M351 234h-312v63h312v-63z" />
    <glyph glyph-name="registered" unicode="&#xae;" horiz-adv-x="788" 
d="M570 663q80 -47 127 -129.5t47 -183.5t-47 -183.5t-127 -129.5t-176 -47t-176 47t-127 129.5t-47 183.5t47 183.5t127 129.5t176 47t176 -47zM541.5 84q66.5 39 104.5 108.5t38 157.5t-38 157.5t-104.5 108.5t-147.5 39t-147.5 -39t-104.5 -108.5t-38 -157.5t38 -157.5
t104.5 -108.5t147.5 -39t147.5 39zM504 349.5q-23 -29.5 -59 -40.5l93 -137h-67l-86 131h-46v-131h-56v356h121q52 0 87.5 -33.5t35.5 -79.5q0 -36 -23 -65.5zM339 476v-121h66q31 0 48.5 16t17.5 44q0 27 -18 44t-48 17h-66z" />
    <glyph glyph-name="macron" unicode="&#xaf;" horiz-adv-x="308" 
d="M278 600h-248v53h248v-53z" />
    <glyph glyph-name="degree" unicode="&#xb0;" horiz-adv-x="356" 
d="M106 434.5q-33 18.5 -53 52t-20 76.5t20 76.5t53 52t72 18.5t72 -18.5t53 -52t20 -76.5t-20 -76.5t-53 -52t-72 -18.5t-72 18.5zM238.5 495q25.5 25 25.5 68t-25.5 68t-60.5 25t-60.5 -25t-25.5 -68t25.5 -68t60.5 -25t60.5 25z" />
    <glyph glyph-name="plusminus" unicode="&#xb1;" horiz-adv-x="570" 
d="M497 394v-61h-179v-192h179v-61h-423v61h179v192h-179v61h179v189h65v-189h179z" />
    <glyph glyph-name="uni00B2" unicode="&#xb2;" horiz-adv-x="300" 
d="M119 514h148v-54h-231v44l131 137q19 20 30 37t11 34q0 22 -15.5 35.5t-40.5 13.5q-28 0 -45.5 -16.5t-17.5 -43.5h-59q0 49 34.5 81.5t87.5 32.5q51 0 83 -29.5t32 -71.5q0 -26 -13 -49t-34 -45z" />
    <glyph glyph-name="uni00B3" unicode="&#xb3;" horiz-adv-x="310" 
d="M259 612.5q18 -21.5 18 -53.5q0 -45 -32 -74.5t-89 -29.5q-54 0 -89 32.5t-37 81.5h59q2 -25 19.5 -42.5t47.5 -17.5q28 0 45 14t17 39q0 24 -17 38.5t-47 14.5h-32v49h32q23 0 37.5 13t14.5 35t-14.5 35.5t-37.5 13.5q-26 0 -42.5 -15t-16.5 -39h-59q0 44 33.5 76
t84.5 32q48 0 79.5 -28.5t31.5 -69.5q0 -25 -14 -43.5t-34 -28.5q24 -11 42 -32.5z" />
    <glyph glyph-name="acute" unicode="&#xb4;" horiz-adv-x="201" 
d="M81 560h-51l66 134h75z" />
    <glyph glyph-name="uni00B5" unicode="&#xb5;" horiz-adv-x="555" 
d="M72 -180v680h65v-290q0 -74 39 -116.5t101 -42.5q66 0 106 42.5t40 116.5v290h65v-500h-48l-17 68h-5q-20 -30 -57.5 -54t-84.5 -24q-82 0 -134 57h-5v-227h-65z" />
    <glyph glyph-name="paragraph" unicode="&#xb6;" horiz-adv-x="542" 
d="M453 700v-800h-60v745h-126v-745h-60v471q-75 3 -121.5 48.5t-46.5 116.5q0 48 22.5 85t62.5 58t92 21h237z" />
    <glyph glyph-name="periodcentered" unicode="&#xb7;" horiz-adv-x="238" 
d="M82 228q-15 15 -15 37t15 37t37 15t37 -15t15 -37t-15 -37t-37 -15t-37 15z" />
    <glyph glyph-name="cedilla" unicode="&#xb8;" horiz-adv-x="224" 
d="M104 -43q44 -2 67 -23t23 -53q0 -38 -27.5 -59.5t-83.5 -21.5q-29 0 -53 8v41q22 -6 45 -6q71 0 71 38t-63 38q-18 0 -38 -4l41 100h45z" />
    <glyph glyph-name="uni00B9" unicode="&#xb9;" horiz-adv-x="232" 
d="M25 745l97 65h45v-350h-59v276l-53 -36z" />
    <glyph glyph-name="ordmasculine" unicode="&#xba;" horiz-adv-x="362" 
d="M108 420.5q-34 20.5 -54.5 56t-20.5 78.5t20.5 78.5t54.5 56t73 20.5t73 -20.5t54.5 -56t20.5 -78.5t-20.5 -78.5t-54.5 -56t-73 -20.5t-73 20.5zM244 482q26 28 26 73t-26 73t-63 28t-63 -28t-26 -73t26 -73t63 -28t63 28z" />
    <glyph glyph-name="guillemotright" unicode="&#xbb;" horiz-adv-x="437" 
d="M106 87h-66l119 178l-119 178h66l119 -178zM278 87h-66l119 178l-119 178h66l119 -178z" />
    <glyph glyph-name="onequarter.dlig" unicode="&#xbc;" horiz-adv-x="616" 
d="M25 635l97 65h45v-350h-59v276l-53 -36zM116 0h-67l425 700h67zM543 122h40v-54h-40v-68h-59v68h-160v48l151 234h68v-228zM484 122v145l-93 -145h93z" />
    <glyph glyph-name="onehalf.dlig" unicode="&#xbd;" horiz-adv-x="658" 
d="M25 635l97 65h45v-350h-59v276l-53 -36zM116 0h-67l425 700h67zM477 54h148v-54h-231v44l131 137q19 20 30 37t11 34q0 22 -15.5 35.5t-40.5 13.5q-28 0 -45.5 -16.5t-17.5 -43.5h-59q0 49 34.5 81.5t87.5 32.5q51 0 83 -29.5t32 -71.5q0 -26 -13 -49t-34 -45z" />
    <glyph glyph-name="threequarters.dlig" unicode="&#xbe;" horiz-adv-x="694" 
d="M259 502.5q18 -21.5 18 -53.5q0 -45 -32 -74.5t-89 -29.5q-54 0 -89 32.5t-37 81.5h59q2 -25 19.5 -42.5t47.5 -17.5q28 0 45 14t17 39q0 24 -17 38.5t-47 14.5h-32v49h32q23 0 37.5 13t14.5 35t-14.5 35.5t-37.5 13.5q-26 0 -42.5 -15t-16.5 -39h-59q0 44 33.5 76
t84.5 32q48 0 79.5 -28.5t31.5 -69.5q0 -25 -14 -43.5t-34 -28.5q24 -11 42 -32.5zM194 0h-67l425 700h67zM621 122h40v-54h-40v-68h-59v68h-160v48l151 234h68v-228zM562 122v145l-93 -145h93z" />
    <glyph glyph-name="questiondown" unicode="&#xbf;" horiz-adv-x="473" 
d="M208 411q-15 15 -15 37t15 37t37 15t37 -15t15 -37t-15 -37t-37 -15t-37 15zM138.5 -160.5q-43.5 24.5 -68.5 65t-25 86.5q0 38 11.5 66t28 47.5t44.5 45.5t44 44t27 45t11 62v14h70v-14q0 -45 -13 -78t-31.5 -54.5t-48.5 -49.5q-37 -34 -55 -60.5t-18 -67.5
q0 -46 34 -78.5t87 -32.5q59 0 95.5 41.5t36.5 108.5v13h70v-13q0 -61 -26.5 -110t-72.5 -77t-103 -28q-54 0 -97.5 24.5z" />
    <glyph glyph-name="Agrave" unicode="&#xc0;" horiz-adv-x="607" 
d="M602 0h-75l-67 178h-316l-67 -178h-72l266 700h65zM436 243l-134 357l-134 -357h268zM342 755h-54l-95 128h78z" />
    <glyph glyph-name="Aacute" unicode="&#xc1;" horiz-adv-x="607" 
d="M602 0h-75l-67 178h-316l-67 -178h-72l266 700h65zM436 243l-134 357l-134 -357h268zM320 755h-54l70 128h78z" />
    <glyph glyph-name="Acircumflex" unicode="&#xc2;" horiz-adv-x="607" 
d="M602 0h-75l-67 178h-316l-67 -178h-72l266 700h65zM436 243l-134 357l-134 -357h268zM336 883l104 -128h-68l-69 85l-68 -85h-67l105 128h63z" />
    <glyph glyph-name="Atilde" unicode="&#xc3;" horiz-adv-x="607" 
d="M602 0h-75l-67 178h-316l-67 -178h-72l266 700h65zM436 243l-134 357l-134 -357h268zM323 772q-16 10 -34 28q-14 13 -22.5 19t-18.5 6q-17 0 -28 -15t-11 -42h-50q0 53 25.5 81.5t61.5 28.5q23 0 39 -10t34 -28q14 -13 22.5 -19t18.5 -6q17 0 28 15t11 42h50
q0 -53 -26 -81.5t-61 -28.5q-23 0 -39 10z" />
    <glyph glyph-name="Adieresis" unicode="&#xc4;" horiz-adv-x="607" 
d="M602 0h-75l-67 178h-316l-67 -178h-72l266 700h65zM436 243l-134 357l-134 -357h268zM189 788.5q-13 12.5 -13 30.5t13 30.5t30 12.5q18 0 30.5 -12.5t12.5 -30.5t-12.5 -30.5t-30.5 -12.5q-17 0 -30 12.5zM359 788.5q-13 12.5 -13 30.5t13 30.5t30 12.5t30 -12.5
t13 -30.5t-13 -30.5t-30 -12.5t-30 12.5z" />
    <glyph glyph-name="Aring" unicode="&#xc5;" horiz-adv-x="607" 
d="M602 0h-75l-67 178h-316l-67 -178h-72l266 700h65zM436 243l-134 357l-134 -357h268zM237 781.5q-27 26.5 -27 64.5t27 65t67 27q39 0 66 -27t27 -65t-26.5 -64.5t-66.5 -26.5t-67 26.5zM338 811q13 13 13 35t-13.5 35.5t-33.5 13.5q-21 0 -34.5 -13.5t-13.5 -35.5
t13.5 -35t34.5 -13t34 13z" />
    <glyph glyph-name="AE" unicode="&#xc6;" horiz-adv-x="880" 
d="M492 328v-263h343v-65h-413v178h-271l-102 -178h-77l404 700h449v-65h-333v-242h295v-65h-295zM412 635l-224 -392h234v392h-10z" />
    <glyph glyph-name="Ccedilla" unicode="&#xc7;" horiz-adv-x="704" 
d="M665 234q-17 -67 -56.5 -121t-97.5 -86.5t-126 -36.5l-16 -33q44 -2 67 -23t23 -53q0 -38 -27.5 -59.5t-83.5 -21.5q-29 0 -53 8v41q22 -6 45 -6q71 0 71 38t-63 38q-18 0 -38 -4l31 76q-80 7 -148 55.5t-108.5 128t-40.5 175.5q0 101 44.5 183.5t119 129.5t160.5 47
q70 0 130.5 -32t102.5 -87.5t59 -124.5h-70q-26 79 -83.5 129t-138.5 50q-67 0 -125.5 -37.5t-93.5 -105t-35 -152.5t35 -152.5t93.5 -105t125.5 -37.5q84 0 142.5 50t84.5 129h70z" />
    <glyph glyph-name="Egrave" unicode="&#xc8;" horiz-adv-x="577" 
d="M159 328v-263h373v-65h-443v700h433v-65h-363v-242h325v-65h-325zM344 755h-54l-95 128h78z" />
    <glyph glyph-name="Eacute" unicode="&#xc9;" horiz-adv-x="577" 
d="M159 328v-263h373v-65h-443v700h433v-65h-363v-242h325v-65h-325zM322 755h-54l70 128h78z" />
    <glyph glyph-name="Ecircumflex" unicode="&#xca;" horiz-adv-x="577" 
d="M159 328v-263h373v-65h-443v700h433v-65h-363v-242h325v-65h-325zM338 883l104 -128h-68l-69 85l-68 -85h-67l105 128h63z" />
    <glyph glyph-name="Edieresis" unicode="&#xcb;" horiz-adv-x="577" 
d="M159 328v-263h373v-65h-443v700h433v-65h-363v-242h325v-65h-325zM191 788.5q-13 12.5 -13 30.5t13 30.5t30 12.5q18 0 30.5 -12.5t12.5 -30.5t-12.5 -30.5t-30.5 -12.5q-17 0 -30 12.5zM361 788.5q-13 12.5 -13 30.5t13 30.5t30 12.5t30 -12.5t13 -30.5t-13 -30.5
t-30 -12.5t-30 12.5z" />
    <glyph glyph-name="Igrave" unicode="&#xcc;" horiz-adv-x="248" 
d="M159 0h-70v700h70v-700zM162 755h-54l-95 128h78z" />
    <glyph glyph-name="Iacute" unicode="&#xcd;" horiz-adv-x="248" 
d="M159 0h-70v700h70v-700zM140 755h-54l70 128h78z" />
    <glyph glyph-name="Icircumflex" unicode="&#xce;" horiz-adv-x="248" 
d="M159 0h-70v700h70v-700zM156 883l104 -128h-68l-69 85l-68 -85h-67l105 128h63z" />
    <glyph glyph-name="Idieresis" unicode="&#xcf;" horiz-adv-x="248" 
d="M159 0h-70v700h70v-700zM27 788.5q-13 12.5 -13 30.5t13 30.5t30 12.5q18 0 30.5 -12.5t12.5 -30.5t-12.5 -30.5t-30.5 -12.5q-17 0 -30 12.5zM161 788.5q-13 12.5 -13 30.5t13 30.5t30 12.5q18 0 30.5 -12.5t12.5 -30.5t-12.5 -30.5t-30.5 -12.5q-17 0 -30 12.5z" />
    <glyph glyph-name="Eth" unicode="&#xd0;" horiz-adv-x="680" 
d="M293 700q95 0 173.5 -45t124 -125t45.5 -180t-45.5 -180t-124 -125t-173.5 -45h-178v319h-95v63h95v318h178zM293 65q74 0 136.5 37t99.5 102t37 146t-37 146t-99.5 102t-136.5 37h-108v-253h155v-63h-155v-254h108z" />
    <glyph glyph-name="Ntilde" unicode="&#xd1;" horiz-adv-x="690" 
d="M531 129v571h70v-700h-66l-376 571v-571h-70v700h66zM369 772q-16 10 -34 28q-14 13 -22.5 19t-18.5 6q-17 0 -28 -15t-11 -42h-50q0 53 25.5 81.5t61.5 28.5q23 0 39 -10t34 -28q14 -13 22.5 -19t18.5 -6q17 0 28 15t11 42h50q0 -53 -26 -81.5t-61 -28.5q-23 0 -39 10z
" />
    <glyph glyph-name="Ograve" unicode="&#xd2;" horiz-adv-x="737" 
d="M207.5 37q-74.5 47 -119 129.5t-44.5 183.5t44.5 183.5t119 129.5t160.5 47t161 -47t119.5 -129.5t44.5 -183.5t-44.5 -183.5t-119.5 -129.5t-161 -47t-160.5 47zM494.5 92.5q58.5 37.5 93.5 105t35 152.5t-35 152.5t-93.5 105t-126.5 37.5q-67 0 -125.5 -37.5
t-93.5 -105t-35 -152.5t35 -152.5t93.5 -105t125.5 -37.5q68 0 126.5 37.5zM406 755h-54l-95 128h78z" />
    <glyph glyph-name="Oacute" unicode="&#xd3;" horiz-adv-x="737" 
d="M207.5 37q-74.5 47 -119 129.5t-44.5 183.5t44.5 183.5t119 129.5t160.5 47t161 -47t119.5 -129.5t44.5 -183.5t-44.5 -183.5t-119.5 -129.5t-161 -47t-160.5 47zM494.5 92.5q58.5 37.5 93.5 105t35 152.5t-35 152.5t-93.5 105t-126.5 37.5q-67 0 -125.5 -37.5
t-93.5 -105t-35 -152.5t35 -152.5t93.5 -105t125.5 -37.5q68 0 126.5 37.5zM384 755h-54l70 128h78z" />
    <glyph glyph-name="Ocircumflex" unicode="&#xd4;" horiz-adv-x="737" 
d="M207.5 37q-74.5 47 -119 129.5t-44.5 183.5t44.5 183.5t119 129.5t160.5 47t161 -47t119.5 -129.5t44.5 -183.5t-44.5 -183.5t-119.5 -129.5t-161 -47t-160.5 47zM494.5 92.5q58.5 37.5 93.5 105t35 152.5t-35 152.5t-93.5 105t-126.5 37.5q-67 0 -125.5 -37.5
t-93.5 -105t-35 -152.5t35 -152.5t93.5 -105t125.5 -37.5q68 0 126.5 37.5zM400 883l104 -128h-68l-69 85l-68 -85h-67l105 128h63z" />
    <glyph glyph-name="Otilde" unicode="&#xd5;" horiz-adv-x="737" 
d="M207.5 37q-74.5 47 -119 129.5t-44.5 183.5t44.5 183.5t119 129.5t160.5 47t161 -47t119.5 -129.5t44.5 -183.5t-44.5 -183.5t-119.5 -129.5t-161 -47t-160.5 47zM494.5 92.5q58.5 37.5 93.5 105t35 152.5t-35 152.5t-93.5 105t-126.5 37.5q-67 0 -125.5 -37.5
t-93.5 -105t-35 -152.5t35 -152.5t93.5 -105t125.5 -37.5q68 0 126.5 37.5zM387 772q-16 10 -34 28q-14 13 -22.5 19t-18.5 6q-17 0 -28 -15t-11 -42h-50q0 53 25.5 81.5t61.5 28.5q23 0 39 -10t34 -28q14 -13 22.5 -19t18.5 -6q17 0 28 15t11 42h50q0 -53 -26 -81.5
t-61 -28.5q-23 0 -39 10z" />
    <glyph glyph-name="Odieresis" unicode="&#xd6;" horiz-adv-x="737" 
d="M207.5 37q-74.5 47 -119 129.5t-44.5 183.5t44.5 183.5t119 129.5t160.5 47t161 -47t119.5 -129.5t44.5 -183.5t-44.5 -183.5t-119.5 -129.5t-161 -47t-160.5 47zM494.5 92.5q58.5 37.5 93.5 105t35 152.5t-35 152.5t-93.5 105t-126.5 37.5q-67 0 -125.5 -37.5
t-93.5 -105t-35 -152.5t35 -152.5t93.5 -105t125.5 -37.5q68 0 126.5 37.5zM253 788.5q-13 12.5 -13 30.5t13 30.5t30 12.5q18 0 30.5 -12.5t12.5 -30.5t-12.5 -30.5t-30.5 -12.5q-17 0 -30 12.5zM423 788.5q-13 12.5 -13 30.5t13 30.5t30 12.5t30 -12.5t13 -30.5t-13 -30.5
t-30 -12.5t-30 12.5z" />
    <glyph glyph-name="multiply" unicode="&#xd7;" horiz-adv-x="570" 
d="M285 318l-138 -138l-42 42l139 138l-139 138l42 42l138 -138l138 138l42 -42l-139 -138l139 -138l-42 -42z" />
    <glyph glyph-name="Oslash" unicode="&#xd8;" horiz-adv-x="737" 
d="M693 663l-75 -82q36 -47 55.5 -106t19.5 -125q0 -101 -44.5 -183.5t-119.5 -129.5t-161 -47q-58 0 -112 22t-97 63l-73 -80l-42 42l75 82q-36 47 -55.5 106t-19.5 125q0 101 44.5 183.5t119 129.5t160.5 47q58 0 112 -22t98 -63l73 80zM242.5 607.5
q-58.5 -37.5 -93.5 -105t-35 -152.5q0 -103 51 -181l368 408q-34 33 -76.5 50.5t-88.5 17.5q-67 0 -125.5 -37.5zM494.5 92.5q58.5 37.5 93.5 105t35 152.5q0 103 -51 181l-368 -408q34 -33 76.5 -50.5t87.5 -17.5q68 0 126.5 37.5z" />
    <glyph glyph-name="Ugrave" unicode="&#xd9;" horiz-adv-x="668" 
d="M203 23q-57 33 -88 92.5t-31 135.5v449h70v-449q0 -90 49 -143t131 -53q81 0 130.5 53t49.5 143v449h70v-449q0 -76 -31.5 -135.5t-88 -92.5t-130.5 -33t-131 33zM372 755h-54l-95 128h78z" />
    <glyph glyph-name="Uacute" unicode="&#xda;" horiz-adv-x="668" 
d="M203 23q-57 33 -88 92.5t-31 135.5v449h70v-449q0 -90 49 -143t131 -53q81 0 130.5 53t49.5 143v449h70v-449q0 -76 -31.5 -135.5t-88 -92.5t-130.5 -33t-131 33zM350 755h-54l70 128h78z" />
    <glyph glyph-name="Ucircumflex" unicode="&#xdb;" horiz-adv-x="668" 
d="M203 23q-57 33 -88 92.5t-31 135.5v449h70v-449q0 -90 49 -143t131 -53q81 0 130.5 53t49.5 143v449h70v-449q0 -76 -31.5 -135.5t-88 -92.5t-130.5 -33t-131 33zM366 883l104 -128h-68l-69 85l-68 -85h-67l105 128h63z" />
    <glyph glyph-name="Udieresis" unicode="&#xdc;" horiz-adv-x="668" 
d="M203 23q-57 33 -88 92.5t-31 135.5v449h70v-449q0 -90 49 -143t131 -53q81 0 130.5 53t49.5 143v449h70v-449q0 -76 -31.5 -135.5t-88 -92.5t-130.5 -33t-131 33zM219 788.5q-13 12.5 -13 30.5t13 30.5t30 12.5q18 0 30.5 -12.5t12.5 -30.5t-12.5 -30.5t-30.5 -12.5
q-17 0 -30 12.5zM389 788.5q-13 12.5 -13 30.5t13 30.5t30 12.5t30 -12.5t13 -30.5t-13 -30.5t-30 -12.5t-30 12.5z" />
    <glyph glyph-name="Yacute" unicode="&#xdd;" horiz-adv-x="534" 
d="M269 344l190 356h73l-230 -426v-274h-70v274l-230 426h76zM285 755h-54l70 128h78z" />
    <glyph glyph-name="Thorn" unicode="&#xde;" horiz-adv-x="621" 
d="M360 576q62 0 114 -28.5t82 -77t30 -105.5t-30 -105.5t-82 -77t-114 -28.5h-201v-154h-70v700h70v-124h201zM360 219q44 0 80 19t56 52.5t20 74.5t-20 74.5t-56 52.5t-80 19h-201v-292h201z" />
    <glyph glyph-name="germandbls" unicode="&#xdf;" horiz-adv-x="559" 
d="M479.5 308q40.5 -45 40.5 -119q0 -54 -25 -97t-68.5 -67.5t-95.5 -24.5h-77v61h77q54 0 89 35.5t35 92.5q0 58 -35.5 95.5t-88.5 37.5h-72v61h33q29 0 55 17t42 47t16 69q0 60 -35.5 96.5t-94.5 36.5t-96 -39.5t-37 -107.5v-502h-65v502q0 59 26.5 106.5t72 74.5t99.5 27
q56 0 100.5 -25.5t69.5 -69.5t25 -99q0 -52 -24 -90t-55 -58q48 -15 88.5 -60z" />
    <glyph glyph-name="agrave" unicode="&#xe0;" horiz-adv-x="497" 
d="M340 486.5q42 -23.5 66 -65.5t24 -96v-325h-48l-17 68h-5q-19 -30 -58.5 -54t-95.5 -24q-50 0 -87.5 20.5t-58 54.5t-20.5 75q0 45 27.5 80.5t77 55.5t113.5 20h107v29q0 56 -33 90t-87 34q-51 0 -80.5 -26t-37.5 -68h-65q5 42 29.5 77.5t64.5 56.5t89 21q53 0 95 -23.5z
M323.5 91.5q41.5 40.5 41.5 102.5v43h-97q-77 0 -120 -25.5t-43 -71.5q0 -40 28 -64.5t80 -24.5q69 0 110.5 40.5zM283 560h-51l-91 134h75z" />
    <glyph glyph-name="aacute" unicode="&#xe1;" horiz-adv-x="497" 
d="M340 486.5q42 -23.5 66 -65.5t24 -96v-325h-48l-17 68h-5q-19 -30 -58.5 -54t-95.5 -24q-50 0 -87.5 20.5t-58 54.5t-20.5 75q0 45 27.5 80.5t77 55.5t113.5 20h107v29q0 56 -33 90t-87 34q-51 0 -80.5 -26t-37.5 -68h-65q5 42 29.5 77.5t64.5 56.5t89 21q53 0 95 -23.5z
M323.5 91.5q41.5 40.5 41.5 102.5v43h-97q-77 0 -120 -25.5t-43 -71.5q0 -40 28 -64.5t80 -24.5q69 0 110.5 40.5zM262 560h-51l66 134h75z" />
    <glyph glyph-name="acircumflex" unicode="&#xe2;" horiz-adv-x="497" 
d="M340 486.5q42 -23.5 66 -65.5t24 -96v-325h-48l-17 68h-5q-19 -30 -58.5 -54t-95.5 -24q-50 0 -87.5 20.5t-58 54.5t-20.5 75q0 45 27.5 80.5t77 55.5t113.5 20h107v29q0 56 -33 90t-87 34q-51 0 -80.5 -26t-37.5 -68h-65q5 42 29.5 77.5t64.5 56.5t89 21q53 0 95 -23.5z
M323.5 91.5q41.5 40.5 41.5 102.5v43h-97q-77 0 -120 -25.5t-43 -71.5q0 -40 28 -64.5t80 -24.5q69 0 110.5 40.5zM277 694l102 -134h-68l-65 91l-65 -91h-66l102 134h60z" />
    <glyph glyph-name="atilde" unicode="&#xe3;" horiz-adv-x="497" 
d="M340 486.5q42 -23.5 66 -65.5t24 -96v-325h-48l-17 68h-5q-19 -30 -58.5 -54t-95.5 -24q-50 0 -87.5 20.5t-58 54.5t-20.5 75q0 45 27.5 80.5t77 55.5t113.5 20h107v29q0 56 -33 90t-87 34q-51 0 -80.5 -26t-37.5 -68h-65q5 42 29.5 77.5t64.5 56.5t89 21q53 0 95 -23.5z
M323.5 91.5q41.5 40.5 41.5 102.5v43h-97q-77 0 -120 -25.5t-43 -71.5q0 -40 28 -64.5t80 -24.5q69 0 110.5 40.5zM265.5 577q-15.5 11 -33.5 31q-13 14 -21.5 20.5t-18.5 6.5q-16 0 -26.5 -16t-10.5 -47h-50q0 58 24.5 87t60.5 29q23 0 38.5 -11t33.5 -31
q13 -14 21.5 -20.5t18.5 -6.5q15 0 26 16.5t11 46.5h50q0 -58 -24.5 -87t-60.5 -29q-23 0 -38.5 11z" />
    <glyph glyph-name="adieresis" unicode="&#xe4;" horiz-adv-x="497" 
d="M340 486.5q42 -23.5 66 -65.5t24 -96v-325h-48l-17 68h-5q-19 -30 -58.5 -54t-95.5 -24q-50 0 -87.5 20.5t-58 54.5t-20.5 75q0 45 27.5 80.5t77 55.5t113.5 20h107v29q0 56 -33 90t-87 34q-51 0 -80.5 -26t-37.5 -68h-65q5 42 29.5 77.5t64.5 56.5t89 21q53 0 95 -23.5z
M323.5 91.5q41.5 40.5 41.5 102.5v43h-97q-77 0 -120 -25.5t-43 -71.5q0 -40 28 -64.5t80 -24.5q69 0 110.5 40.5zM137 594.5q-13 12.5 -13 30.5t12.5 30.5t30.5 12.5t30.5 -12t12.5 -31q0 -18 -12.5 -30.5t-30.5 -12.5q-17 0 -30 12.5zM296.5 594.5q-12.5 12.5 -12.5 30.5
q0 19 12.5 31t30.5 12t30.5 -12.5t12.5 -30.5t-13 -30.5t-30 -12.5q-18 0 -30.5 12.5z" />
    <glyph glyph-name="aring" unicode="&#xe5;" horiz-adv-x="497" 
d="M340 486.5q42 -23.5 66 -65.5t24 -96v-325h-48l-17 68h-5q-19 -30 -58.5 -54t-95.5 -24q-50 0 -87.5 20.5t-58 54.5t-20.5 75q0 45 27.5 80.5t77 55.5t113.5 20h107v29q0 56 -33 90t-87 34q-51 0 -80.5 -26t-37.5 -68h-65q5 42 29.5 77.5t64.5 56.5t89 21q53 0 95 -23.5z
M323.5 91.5q41.5 40.5 41.5 102.5v43h-97q-77 0 -120 -25.5t-43 -71.5q0 -40 28 -64.5t80 -24.5q69 0 110.5 40.5zM181.5 576q-26.5 26 -26.5 64t26.5 64t65.5 26t65.5 -26t26.5 -64t-26.5 -64t-65.5 -26t-65.5 26zM282.5 604.5q13.5 13.5 13.5 35.5t-13.5 35.5t-35.5 13.5
t-35.5 -13.5t-13.5 -35.5t13.5 -35.5t35.5 -13.5t35.5 13.5z" />
    <glyph glyph-name="ae" unicode="&#xe6;" horiz-adv-x="834" 
d="M790 225h-359q7 -80 50.5 -127t107.5 -47q42 0 72 19t51 60h65q-25 -65 -73.5 -102.5t-114.5 -37.5q-64 0 -113.5 31.5t-76.5 81.5q-21 -51 -68.5 -82t-123.5 -31q-51 0 -89 19.5t-58 52t-20 71.5q0 69 59.5 110t159.5 41h108v43q0 54 -33.5 88t-85.5 34
q-53 0 -82.5 -25.5t-38.5 -68.5h-65q6 42 30.5 77.5t65 56.5t90.5 21q60 0 102.5 -31t58.5 -73q23 45 69 74.5t109 29.5q61 0 108.5 -30.5t73.5 -85.5t26 -126q0 -28 -5 -43zM484.5 404q-43.5 -45 -52.5 -120h298q-2 69 -40 117t-103 48q-59 0 -102.5 -45zM325 91.5
q42 40.5 42 102.5v31h-99q-163 0 -163 -92q0 -37 27.5 -59.5t80.5 -22.5q70 0 112 40.5z" />
    <glyph glyph-name="ccedilla" unicode="&#xe7;" horiz-adv-x="526" 
d="M371.5 84.5q38.5 33.5 55.5 92.5h65q-9 -48 -37 -89.5t-71.5 -68t-95.5 -29.5l-16 -33q44 -2 67 -23t23 -53q0 -38 -27.5 -59.5t-83.5 -21.5q-29 0 -53 8v41q22 -6 45 -6q71 0 71 38t-63 38q-18 0 -38 -4l32 77q-58 7 -105 42t-74 91.5t-27 124.5q0 74 31.5 133.5
t85.5 93t118 33.5q56 0 102 -25.5t76 -68.5t40 -93h-65q-17 58 -56 92t-97 34q-46 0 -85 -25t-62 -70.5t-23 -103.5t23 -103.5t62 -70.5t85 -25q59 0 97.5 33.5z" />
    <glyph glyph-name="egrave" unicode="&#xe8;" horiz-adv-x="537" 
d="M494 218h-388q8 -77 54.5 -122t115.5 -45q92 0 139 79h65q-23 -61 -79 -100.5t-127 -39.5q-66 0 -119.5 33t-84.5 92t-31 135q0 74 31.5 133.5t85.5 93t118 33.5q63 0 114.5 -32.5t80.5 -88.5t29 -124q0 -31 -4 -47zM195.5 427.5q-36.5 -21.5 -61 -61t-29.5 -89.5h327
q-5 75 -49 123.5t-109 48.5q-42 0 -78.5 -21.5zM308 560h-51l-91 134h75z" />
    <glyph glyph-name="eacute" unicode="&#xe9;" horiz-adv-x="537" 
d="M494 218h-388q8 -77 54.5 -122t115.5 -45q92 0 139 79h65q-23 -61 -79 -100.5t-127 -39.5q-66 0 -119.5 33t-84.5 92t-31 135q0 74 31.5 133.5t85.5 93t118 33.5q63 0 114.5 -32.5t80.5 -88.5t29 -124q0 -31 -4 -47zM195.5 427.5q-36.5 -21.5 -61 -61t-29.5 -89.5h327
q-5 75 -49 123.5t-109 48.5q-42 0 -78.5 -21.5zM287 560h-51l66 134h75z" />
    <glyph glyph-name="ecircumflex" unicode="&#xea;" horiz-adv-x="537" 
d="M494 218h-388q8 -77 54.5 -122t115.5 -45q92 0 139 79h65q-23 -61 -79 -100.5t-127 -39.5q-66 0 -119.5 33t-84.5 92t-31 135q0 74 31.5 133.5t85.5 93t118 33.5q63 0 114.5 -32.5t80.5 -88.5t29 -124q0 -31 -4 -47zM195.5 427.5q-36.5 -21.5 -61 -61t-29.5 -89.5h327
q-5 75 -49 123.5t-109 48.5q-42 0 -78.5 -21.5zM302 694l102 -134h-68l-65 91l-65 -91h-66l102 134h60z" />
    <glyph glyph-name="edieresis" unicode="&#xeb;" horiz-adv-x="537" 
d="M494 218h-388q8 -77 54.5 -122t115.5 -45q92 0 139 79h65q-23 -61 -79 -100.5t-127 -39.5q-66 0 -119.5 33t-84.5 92t-31 135q0 74 31.5 133.5t85.5 93t118 33.5q63 0 114.5 -32.5t80.5 -88.5t29 -124q0 -31 -4 -47zM195.5 427.5q-36.5 -21.5 -61 -61t-29.5 -89.5h327
q-5 75 -49 123.5t-109 48.5q-42 0 -78.5 -21.5zM162 594.5q-13 12.5 -13 30.5t12.5 30.5t30.5 12.5t30.5 -12t12.5 -31q0 -18 -12.5 -30.5t-30.5 -12.5q-17 0 -30 12.5zM321.5 594.5q-12.5 12.5 -12.5 30.5q0 19 12.5 31t30.5 12t30.5 -12.5t12.5 -30.5t-13 -30.5t-30 -12.5
q-18 0 -30.5 12.5z" />
    <glyph glyph-name="igrave" unicode="&#xec;" horiz-adv-x="209" 
d="M137 0h-65v500h65v-500zM141 560h-51l-91 134h75z" />
    <glyph glyph-name="iacute" unicode="&#xed;" horiz-adv-x="209" 
d="M137 0h-65v500h65v-500zM120 560h-51l66 134h75z" />
    <glyph glyph-name="icircumflex" unicode="&#xee;" horiz-adv-x="209" 
d="M137 0h-65v500h65v-500zM135 694l102 -134h-68l-65 91l-65 -91h-66l102 134h60z" />
    <glyph glyph-name="idieresis" unicode="&#xef;" horiz-adv-x="209" 
d="M137 0h-65v500h65v-500zM13 594.5q-13 12.5 -13 30.5t12.5 30.5t30.5 12.5t30.5 -12t12.5 -31q0 -18 -12.5 -30.5t-30.5 -12.5q-17 0 -30 12.5zM137 594.5q-13 12.5 -13 30.5t12.5 30.5t30.5 12.5t30.5 -12t12.5 -31q0 -18 -12.5 -30.5t-30.5 -12.5q-17 0 -30 12.5z" />
    <glyph glyph-name="eth" unicode="&#xf0;" horiz-adv-x="560" 
d="M361 626q71 -66 110.5 -156t39.5 -200q0 -87 -31 -150.5t-85 -96.5t-120 -33q-64 0 -118 32t-86 88.5t-32 126.5q0 69 31.5 126t84.5 89.5t114 32.5q59 0 99.5 -25.5t56.5 -51.5h5q-33 111 -119 183l-91 -65l-35 46l77 54q-51 32 -118 52l21 57q82 -26 149 -72l101 72
l35 -46zM359.5 74.5q39.5 23.5 63 66t23.5 96.5q0 53 -23.5 96t-63 67t-84.5 24q-46 0 -85 -24t-62.5 -66.5t-23.5 -96.5t23.5 -96.5t62.5 -66t85 -23.5q45 0 84.5 23.5z" />
    <glyph glyph-name="ntilde" unicode="&#xf1;" horiz-adv-x="555" 
d="M72 0v500h48l17 -68h5q20 31 58.5 54.5t88.5 23.5q56 0 101.5 -27t71.5 -77t26 -116v-290h-65v290q0 74 -39 116.5t-101 42.5q-66 0 -106 -42.5t-40 -116.5v-290h-65zM303.5 577q-15.5 11 -33.5 31q-13 14 -21.5 20.5t-18.5 6.5q-16 0 -26.5 -16t-10.5 -47h-50
q0 58 24.5 87t60.5 29q23 0 38.5 -11t33.5 -31q13 -14 21.5 -20.5t18.5 -6.5q15 0 26 16.5t11 46.5h50q0 -58 -24.5 -87t-60.5 -29q-23 0 -38.5 11z" />
    <glyph glyph-name="ograve" unicode="&#xf2;" horiz-adv-x="548" 
d="M156 23.5q-54 33.5 -85.5 93t-31.5 133.5t31.5 133.5t85.5 93t118 33.5t118 -33.5t85.5 -93t31.5 -133.5t-31.5 -133.5t-85.5 -93t-118 -33.5t-118 33.5zM359 76q39 25 62 70.5t23 103.5t-23 103.5t-62 70.5t-85 25t-85 -25t-62 -70.5t-23 -103.5t23 -103.5t62 -70.5
t85 -25t85 25zM310 560h-51l-91 134h75z" />
    <glyph glyph-name="oacute" unicode="&#xf3;" horiz-adv-x="548" 
d="M156 23.5q-54 33.5 -85.5 93t-31.5 133.5t31.5 133.5t85.5 93t118 33.5t118 -33.5t85.5 -93t31.5 -133.5t-31.5 -133.5t-85.5 -93t-118 -33.5t-118 33.5zM359 76q39 25 62 70.5t23 103.5t-23 103.5t-62 70.5t-85 25t-85 -25t-62 -70.5t-23 -103.5t23 -103.5t62 -70.5
t85 -25t85 25zM289 560h-51l66 134h75z" />
    <glyph glyph-name="ocircumflex" unicode="&#xf4;" horiz-adv-x="548" 
d="M156 23.5q-54 33.5 -85.5 93t-31.5 133.5t31.5 133.5t85.5 93t118 33.5t118 -33.5t85.5 -93t31.5 -133.5t-31.5 -133.5t-85.5 -93t-118 -33.5t-118 33.5zM359 76q39 25 62 70.5t23 103.5t-23 103.5t-62 70.5t-85 25t-85 -25t-62 -70.5t-23 -103.5t23 -103.5t62 -70.5
t85 -25t85 25zM304 694l102 -134h-68l-65 91l-65 -91h-66l102 134h60z" />
    <glyph glyph-name="otilde" unicode="&#xf5;" horiz-adv-x="548" 
d="M156 23.5q-54 33.5 -85.5 93t-31.5 133.5t31.5 133.5t85.5 93t118 33.5t118 -33.5t85.5 -93t31.5 -133.5t-31.5 -133.5t-85.5 -93t-118 -33.5t-118 33.5zM359 76q39 25 62 70.5t23 103.5t-23 103.5t-62 70.5t-85 25t-85 -25t-62 -70.5t-23 -103.5t23 -103.5t62 -70.5
t85 -25t85 25zM292.5 577q-15.5 11 -33.5 31q-13 14 -21.5 20.5t-18.5 6.5q-16 0 -26.5 -16t-10.5 -47h-50q0 58 24.5 87t60.5 29q23 0 38.5 -11t33.5 -31q13 -14 21.5 -20.5t18.5 -6.5q15 0 26 16.5t11 46.5h50q0 -58 -24.5 -87t-60.5 -29q-23 0 -38.5 11z" />
    <glyph glyph-name="odieresis" unicode="&#xf6;" horiz-adv-x="548" 
d="M156 23.5q-54 33.5 -85.5 93t-31.5 133.5t31.5 133.5t85.5 93t118 33.5t118 -33.5t85.5 -93t31.5 -133.5t-31.5 -133.5t-85.5 -93t-118 -33.5t-118 33.5zM359 76q39 25 62 70.5t23 103.5t-23 103.5t-62 70.5t-85 25t-85 -25t-62 -70.5t-23 -103.5t23 -103.5t62 -70.5
t85 -25t85 25zM164 594.5q-13 12.5 -13 30.5t12.5 30.5t30.5 12.5t30.5 -12t12.5 -31q0 -18 -12.5 -30.5t-30.5 -12.5q-17 0 -30 12.5zM323.5 594.5q-12.5 12.5 -12.5 30.5q0 19 12.5 31t30.5 12t30.5 -12.5t12.5 -30.5t-13 -30.5t-30 -12.5q-18 0 -30.5 12.5z" />
    <glyph glyph-name="divide" unicode="&#xf7;" horiz-adv-x="570" 
d="M248 496q-15 15 -15 37t15 37t37 15t37 -15t15 -37t-15 -37t-37 -15t-37 15zM492 330h-414v61h414v-61zM248 151q-15 15 -15 37t15 37t37 15t37 -15t15 -37t-15 -37t-37 -15t-37 15z" />
    <glyph glyph-name="oslash" unicode="&#xf8;" horiz-adv-x="548" 
d="M509 467l-50 -54q50 -69 50 -163q0 -74 -31.5 -133.5t-85.5 -93t-118 -33.5q-42 0 -80.5 15t-68.5 42l-48 -52l-38 38l50 54q-50 69 -50 163q0 74 31.5 133.5t85.5 93t118 33.5q41 0 79.5 -14.5t69.5 -41.5l48 51zM189 424q-39 -25 -62 -70.5t-23 -103.5q0 -64 29 -114
l247 271q-45 42 -106 42q-46 0 -85 -25zM359 76q39 25 62 70.5t23 103.5q0 64 -29 114l-248 -271q47 -42 107 -42q46 0 85 25z" />
    <glyph glyph-name="ugrave" unicode="&#xf9;" horiz-adv-x="555" 
d="M164.5 17q-45.5 27 -71.5 77t-26 116v290h65v-290q0 -74 39 -116.5t101 -42.5q66 0 106 42.5t40 116.5v290h65v-500h-48l-17 68h-5q-20 -31 -58.5 -54.5t-88.5 -23.5q-56 0 -101.5 27zM311 560h-51l-91 134h75z" />
    <glyph glyph-name="uacute" unicode="&#xfa;" horiz-adv-x="555" 
d="M164.5 17q-45.5 27 -71.5 77t-26 116v290h65v-290q0 -74 39 -116.5t101 -42.5q66 0 106 42.5t40 116.5v290h65v-500h-48l-17 68h-5q-20 -31 -58.5 -54.5t-88.5 -23.5q-56 0 -101.5 27zM290 560h-51l66 134h75z" />
    <glyph glyph-name="ucircumflex" unicode="&#xfb;" horiz-adv-x="555" 
d="M164.5 17q-45.5 27 -71.5 77t-26 116v290h65v-290q0 -74 39 -116.5t101 -42.5q66 0 106 42.5t40 116.5v290h65v-500h-48l-17 68h-5q-20 -31 -58.5 -54.5t-88.5 -23.5q-56 0 -101.5 27zM305 694l102 -134h-68l-65 91l-65 -91h-66l102 134h60z" />
    <glyph glyph-name="udieresis" unicode="&#xfc;" horiz-adv-x="555" 
d="M164.5 17q-45.5 27 -71.5 77t-26 116v290h65v-290q0 -74 39 -116.5t101 -42.5q66 0 106 42.5t40 116.5v290h65v-500h-48l-17 68h-5q-20 -31 -58.5 -54.5t-88.5 -23.5q-56 0 -101.5 27zM165 594.5q-13 12.5 -13 30.5t12.5 30.5t30.5 12.5t30.5 -12t12.5 -31
q0 -18 -12.5 -30.5t-30.5 -12.5q-17 0 -30 12.5zM324.5 594.5q-12.5 12.5 -12.5 30.5q0 19 12.5 31t30.5 12t30.5 -12.5t12.5 -30.5t-13 -30.5t-30 -12.5q-18 0 -30.5 12.5z" />
    <glyph glyph-name="yacute" unicode="&#xfd;" horiz-adv-x="474" 
d="M399 500h68l-221 -550q-32 -78 -63.5 -106.5t-71.5 -28.5q-17 0 -39 8v59q17 -6 31 -6q24 0 42.5 15t33.5 52l27 68l-199 489h70l163 -406zM253 560h-51l66 134h75z" />
    <glyph glyph-name="thorn" unicode="&#xfe;" horiz-adv-x="576" 
d="M77 -180v880h65v-268h5q10 14 32.5 32t56 32t71.5 14q63 0 115.5 -33t83.5 -92.5t31 -134.5t-31 -134.5t-83.5 -92.5t-115.5 -33q-38 0 -71.5 14t-56.5 32t-32 32h-5v-248h-65zM390 76q38 25 60 70.5t22 103.5t-22 103.5t-60 70.5t-83 25t-83 -25t-60 -70.5t-22 -103.5
t22 -103.5t60 -70.5t83 -25t83 25z" />
    <glyph glyph-name="ydieresis" unicode="&#xff;" horiz-adv-x="474" 
d="M399 500h68l-221 -550q-32 -78 -63.5 -106.5t-71.5 -28.5q-17 0 -39 8v59q17 -6 31 -6q24 0 42.5 15t33.5 52l27 68l-199 489h70l163 -406zM128 594.5q-13 12.5 -13 30.5t12.5 30.5t30.5 12.5t30.5 -12t12.5 -31q0 -18 -12.5 -30.5t-30.5 -12.5q-17 0 -30 12.5z
M287.5 594.5q-12.5 12.5 -12.5 30.5q0 19 12.5 31t30.5 12t30.5 -12.5t12.5 -30.5t-13 -30.5t-30 -12.5q-18 0 -30.5 12.5z" />
    <glyph glyph-name="Amacron" unicode="&#x100;" horiz-adv-x="607" 
d="M602 0h-75l-67 178h-316l-67 -178h-72l266 700h65zM436 243l-134 357l-134 -357h268zM431 792h-254v55h254v-55z" />
    <glyph glyph-name="amacron" unicode="&#x101;" horiz-adv-x="497" 
d="M340 486.5q42 -23.5 66 -65.5t24 -96v-325h-48l-17 68h-5q-19 -30 -58.5 -54t-95.5 -24q-50 0 -87.5 20.5t-58 54.5t-20.5 75q0 45 27.5 80.5t77 55.5t113.5 20h107v29q0 56 -33 90t-87 34q-51 0 -80.5 -26t-37.5 -68h-65q5 42 29.5 77.5t64.5 56.5t89 21q53 0 95 -23.5z
M323.5 91.5q41.5 40.5 41.5 102.5v43h-97q-77 0 -120 -25.5t-43 -71.5q0 -40 28 -64.5t80 -24.5q69 0 110.5 40.5zM371 600h-248v53h248v-53z" />
    <glyph glyph-name="Abreve" unicode="&#x102;" horiz-adv-x="607" 
d="M602 0h-75l-67 178h-316l-67 -178h-72l266 700h65zM436 243l-134 357l-134 -357h268zM209 795q-36 35 -38 84h54q4 -33 24 -51.5t55 -18.5t55 18.5t24 51.5h54q-2 -49 -38 -84t-95 -35t-95 35z" />
    <glyph glyph-name="abreve" unicode="&#x103;" horiz-adv-x="497" 
d="M340 486.5q42 -23.5 66 -65.5t24 -96v-325h-48l-17 68h-5q-19 -30 -58.5 -54t-95.5 -24q-50 0 -87.5 20.5t-58 54.5t-20.5 75q0 45 27.5 80.5t77 55.5t113.5 20h107v29q0 56 -33 90t-87 34q-51 0 -80.5 -26t-37.5 -68h-65q5 42 29.5 77.5t64.5 56.5t89 21q53 0 95 -23.5z
M323.5 91.5q41.5 40.5 41.5 102.5v43h-97q-77 0 -120 -25.5t-43 -71.5q0 -40 28 -64.5t80 -24.5q69 0 110.5 40.5zM153.5 601.5q-35.5 35.5 -37.5 86.5h54q4 -35 23.5 -54t53.5 -19t53.5 19t23.5 54h54q-2 -51 -37.5 -86.5t-93.5 -35.5t-93.5 35.5z" />
    <glyph glyph-name="Aogonek" unicode="&#x104;" horiz-adv-x="607" 
d="M531.5 -143.5q14.5 -13.5 39.5 -13.5q16 0 31 5v-43q-15 -5 -39 -5q-42 0 -68 23t-26 62q0 35 20.5 65.5t52.5 49.5h-15l-67 178h-316l-67 -178h-72l266 700h65l266 -700q-41 -24 -63 -51.5t-22 -55.5q0 -23 14.5 -36.5zM436 243l-134 357l-134 -357h268z" />
    <glyph glyph-name="aogonek" unicode="&#x105;" horiz-adv-x="497" 
d="M430 0q-41 -24 -63 -51.5t-22 -55.5q0 -23 14.5 -36.5t39.5 -13.5q16 0 31 5v-43q-15 -5 -39 -5q-42 0 -68 23t-26 62q0 38 24 70t59 51l-15 62h-5q-19 -30 -58.5 -54t-95.5 -24q-50 0 -87.5 20.5t-58 54.5t-20.5 75q0 45 27.5 80.5t77 55.5t113.5 20h107v29q0 56 -33 90
t-87 34q-51 0 -80.5 -26t-37.5 -68h-65q5 42 29.5 77.5t64.5 56.5t89 21q53 0 95 -23.5t66 -65.5t24 -96v-325zM323.5 91.5q41.5 40.5 41.5 102.5v43h-97q-77 0 -120 -25.5t-43 -71.5q0 -40 28 -64.5t80 -24.5q69 0 110.5 40.5z" />
    <glyph glyph-name="Cacute" unicode="&#x106;" horiz-adv-x="704" 
d="M207.5 37q-74.5 47 -119 129.5t-44.5 183.5t44.5 183.5t119 129.5t160.5 47q70 0 130.5 -32t102.5 -87.5t59 -124.5h-70q-26 79 -83.5 129t-138.5 50q-67 0 -125.5 -37.5t-93.5 -105t-35 -152.5t35 -152.5t93.5 -105t125.5 -37.5q84 0 142.5 50t84.5 129h70
q-17 -69 -59.5 -124.5t-104 -87.5t-133.5 -32q-86 0 -160.5 47zM382 755h-54l70 128h78z" />
    <glyph glyph-name="cacute" unicode="&#x107;" horiz-adv-x="526" 
d="M156 23.5q-54 33.5 -85.5 93t-31.5 133.5t31.5 133.5t85.5 93t118 33.5q56 0 102 -25.5t76 -68.5t40 -93h-65q-17 58 -56 92t-97 34q-46 0 -85 -25t-62 -70.5t-23 -103.5t23 -103.5t62 -70.5t85 -25q59 0 97.5 33.5t55.5 92.5h65q-10 -50 -40 -92.5t-76.5 -68.5
t-101.5 -26q-64 0 -118 33.5zM289 560h-51l66 134h75z" />
    <glyph glyph-name="Ccircumflex" unicode="&#x108;" horiz-adv-x="704" 
d="M207.5 37q-74.5 47 -119 129.5t-44.5 183.5t44.5 183.5t119 129.5t160.5 47q70 0 130.5 -32t102.5 -87.5t59 -124.5h-70q-26 79 -83.5 129t-138.5 50q-67 0 -125.5 -37.5t-93.5 -105t-35 -152.5t35 -152.5t93.5 -105t125.5 -37.5q84 0 142.5 50t84.5 129h70
q-17 -69 -59.5 -124.5t-104 -87.5t-133.5 -32q-86 0 -160.5 47zM398 883l104 -128h-68l-69 85l-68 -85h-67l105 128h63z" />
    <glyph glyph-name="ccircumflex" unicode="&#x109;" horiz-adv-x="526" 
d="M156 23.5q-54 33.5 -85.5 93t-31.5 133.5t31.5 133.5t85.5 93t118 33.5q56 0 102 -25.5t76 -68.5t40 -93h-65q-17 58 -56 92t-97 34q-46 0 -85 -25t-62 -70.5t-23 -103.5t23 -103.5t62 -70.5t85 -25q59 0 97.5 33.5t55.5 92.5h65q-10 -50 -40 -92.5t-76.5 -68.5
t-101.5 -26q-64 0 -118 33.5zM304 694l102 -134h-68l-65 91l-65 -91h-66l102 134h60z" />
    <glyph glyph-name="Cdotaccent" unicode="&#x10a;" horiz-adv-x="704" 
d="M207.5 37q-74.5 47 -119 129.5t-44.5 183.5t44.5 183.5t119 129.5t160.5 47q70 0 130.5 -32t102.5 -87.5t59 -124.5h-70q-26 79 -83.5 129t-138.5 50q-67 0 -125.5 -37.5t-93.5 -105t-35 -152.5t35 -152.5t93.5 -105t125.5 -37.5q84 0 142.5 50t84.5 129h70
q-17 -69 -59.5 -124.5t-104 -87.5t-133.5 -32q-86 0 -160.5 47zM334 787q-13 13 -13 32q0 20 13 32.5t32 12.5q20 0 32.5 -12.5t12.5 -32.5q0 -19 -13 -32t-32 -13t-32 13z" />
    <glyph glyph-name="cdotaccent" unicode="&#x10b;" horiz-adv-x="526" 
d="M156 23.5q-54 33.5 -85.5 93t-31.5 133.5t31.5 133.5t85.5 93t118 33.5q56 0 102 -25.5t76 -68.5t40 -93h-65q-17 58 -56 92t-97 34q-46 0 -85 -25t-62 -70.5t-23 -103.5t23 -103.5t62 -70.5t85 -25q59 0 97.5 33.5t55.5 92.5h65q-10 -50 -40 -92.5t-76.5 -68.5
t-101.5 -26q-64 0 -118 33.5zM242 593q-13 13 -13 32q0 20 13 32.5t32 12.5q20 0 32.5 -12.5t12.5 -32.5q0 -19 -13 -32t-32 -13t-32 13z" />
    <glyph glyph-name="Ccaron" unicode="&#x10c;" horiz-adv-x="704" 
d="M207.5 37q-74.5 47 -119 129.5t-44.5 183.5t44.5 183.5t119 129.5t160.5 47q70 0 130.5 -32t102.5 -87.5t59 -124.5h-70q-26 79 -83.5 129t-138.5 50q-67 0 -125.5 -37.5t-93.5 -105t-35 -152.5t35 -152.5t93.5 -105t125.5 -37.5q84 0 142.5 50t84.5 129h70
q-17 -69 -59.5 -124.5t-104 -87.5t-133.5 -32q-86 0 -160.5 47zM365 798l69 85h68l-104 -128h-63l-105 128h67z" />
    <glyph glyph-name="ccaron" unicode="&#x10d;" horiz-adv-x="526" 
d="M156 23.5q-54 33.5 -85.5 93t-31.5 133.5t31.5 133.5t85.5 93t118 33.5q56 0 102 -25.5t76 -68.5t40 -93h-65q-17 58 -56 92t-97 34q-46 0 -85 -25t-62 -70.5t-23 -103.5t23 -103.5t62 -70.5t85 -25q59 0 97.5 33.5t55.5 92.5h65q-10 -50 -40 -92.5t-76.5 -68.5
t-101.5 -26q-64 0 -118 33.5zM273 603l65 91h68l-102 -134h-60l-102 134h66z" />
    <glyph glyph-name="Dcaron" unicode="&#x10e;" horiz-adv-x="654" 
d="M89 0v700h178q95 0 173.5 -45t124 -125t45.5 -180t-45.5 -180t-124 -125t-173.5 -45h-178zM267 65q74 0 136.5 37t99.5 102t37 146t-37 146t-99.5 102t-136.5 37h-108v-570h108zM324 798l69 85h68l-104 -128h-63l-105 128h67z" />
    <glyph glyph-name="dcaron" unicode="&#x10f;" horiz-adv-x="576" 
d="M153.5 23q-52.5 33 -83.5 92.5t-31 134.5t31 134.5t83.5 92.5t115.5 33q38 0 71.5 -14t56.5 -32t32 -32h5v268h65v-700h-48l-17 68h-5q-10 -14 -32.5 -32t-56 -32t-71.5 -14q-63 0 -115.5 33zM352 76q38 25 60 70.5t22 103.5t-22 103.5t-60 70.5t-83 25t-83 -25
t-60 -70.5t-22 -103.5t22 -103.5t60 -70.5t83 -25t83 25zM579 560h-40l32 140h69z" />
    <glyph glyph-name="Dcroat" unicode="&#x110;" horiz-adv-x="680" 
d="M293 700q95 0 173.5 -45t124 -125t45.5 -180t-45.5 -180t-124 -125t-173.5 -45h-178v319h-95v63h95v318h178zM293 65q74 0 136.5 37t99.5 102t37 146t-37 146t-99.5 102t-136.5 37h-108v-253h155v-63h-155v-254h108z" />
    <glyph glyph-name="dcroat" unicode="&#x111;" horiz-adv-x="589" 
d="M579 617v-59h-80v-558h-48l-17 68h-5q-18 -25 -60.5 -51.5t-99.5 -26.5q-65 0 -117.5 32.5t-82.5 90t-30 129.5t30 130t82.5 90.5t117.5 32.5q58 0 100.5 -26.5t59.5 -51.5h5v141h-175v59h175v83h65v-83h80zM353.5 75.5q37.5 24.5 59 68t21.5 98.5t-21.5 99t-59 68.5
t-84.5 24.5t-84.5 -24.5t-59 -68.5t-21.5 -99t21.5 -98.5t59 -68t84.5 -24.5t84.5 24.5z" />
    <glyph glyph-name="Emacron" unicode="&#x112;" horiz-adv-x="577" 
d="M159 328v-263h373v-65h-443v700h433v-65h-363v-242h325v-65h-325zM433 792h-254v55h254v-55z" />
    <glyph glyph-name="emacron" unicode="&#x113;" horiz-adv-x="537" 
d="M494 218h-388q8 -77 54.5 -122t115.5 -45q92 0 139 79h65q-23 -61 -79 -100.5t-127 -39.5q-66 0 -119.5 33t-84.5 92t-31 135q0 74 31.5 133.5t85.5 93t118 33.5q63 0 114.5 -32.5t80.5 -88.5t29 -124q0 -31 -4 -47zM195.5 427.5q-36.5 -21.5 -61 -61t-29.5 -89.5h327
q-5 75 -49 123.5t-109 48.5q-42 0 -78.5 -21.5zM396 600h-248v53h248v-53z" />
    <glyph glyph-name="Ebreve" unicode="&#x114;" horiz-adv-x="577" 
d="M159 328v-263h373v-65h-443v700h433v-65h-363v-242h325v-65h-325zM211 795q-36 35 -38 84h54q4 -33 24 -51.5t55 -18.5t55 18.5t24 51.5h54q-2 -49 -38 -84t-95 -35t-95 35z" />
    <glyph glyph-name="ebreve" unicode="&#x115;" horiz-adv-x="537" 
d="M494 218h-388q8 -77 54.5 -122t115.5 -45q92 0 139 79h65q-23 -61 -79 -100.5t-127 -39.5q-66 0 -119.5 33t-84.5 92t-31 135q0 74 31.5 133.5t85.5 93t118 33.5q63 0 114.5 -32.5t80.5 -88.5t29 -124q0 -31 -4 -47zM195.5 427.5q-36.5 -21.5 -61 -61t-29.5 -89.5h327
q-5 75 -49 123.5t-109 48.5q-42 0 -78.5 -21.5zM178.5 601.5q-35.5 35.5 -37.5 86.5h54q4 -35 23.5 -54t53.5 -19t53.5 19t23.5 54h54q-2 -51 -37.5 -86.5t-93.5 -35.5t-93.5 35.5z" />
    <glyph glyph-name="Edotaccent" unicode="&#x116;" horiz-adv-x="577" 
d="M159 328v-263h373v-65h-443v700h433v-65h-363v-242h325v-65h-325zM274 787q-13 13 -13 32q0 20 13 32.5t32 12.5q20 0 32.5 -12.5t12.5 -32.5q0 -19 -13 -32t-32 -13t-32 13z" />
    <glyph glyph-name="edotaccent" unicode="&#x117;" horiz-adv-x="537" 
d="M494 218h-388q8 -77 54.5 -122t115.5 -45q92 0 139 79h65q-23 -61 -79 -100.5t-127 -39.5q-66 0 -119.5 33t-84.5 92t-31 135q0 74 31.5 133.5t85.5 93t118 33.5q63 0 114.5 -32.5t80.5 -88.5t29 -124q0 -31 -4 -47zM195.5 427.5q-36.5 -21.5 -61 -61t-29.5 -89.5h327
q-5 75 -49 123.5t-109 48.5q-42 0 -78.5 -21.5zM240 593q-13 13 -13 32q0 20 13 32.5t32 12.5q20 0 32.5 -12.5t12.5 -32.5q0 -19 -13 -32t-32 -13t-32 13z" />
    <glyph glyph-name="Eogonek" unicode="&#x118;" horiz-adv-x="577" 
d="M532 0q-41 -24 -63 -51.5t-22 -55.5q0 -23 14.5 -36.5t39.5 -13.5q16 0 31 5v-43q-15 -5 -39 -5q-42 0 -68 23t-26 62q0 35 20.5 65.5t52.5 49.5h-383v700h433v-65h-363v-242h325v-65h-325v-263h373v-65z" />
    <glyph glyph-name="eogonek" unicode="&#x119;" horiz-adv-x="537" 
d="M494 218h-388q8 -77 54.5 -122t115.5 -45q92 0 139 79h65q-18 -49 -72 -99q-42 -38 -66 -71.5t-24 -66.5q0 -23 14.5 -36.5t39.5 -13.5q16 0 31 5v-42q-18 -6 -39 -6q-42 0 -68 23t-26 62q0 61 48 109q-20 -4 -44 -4q-66 0 -119.5 33t-84.5 92t-31 135q0 74 31.5 133.5
t85.5 93t118 33.5q63 0 114.5 -32.5t80.5 -88.5t29 -124q0 -31 -4 -47zM195.5 427.5q-36.5 -21.5 -61 -61t-29.5 -89.5h327q-5 75 -49 123.5t-109 48.5q-42 0 -78.5 -21.5z" />
    <glyph glyph-name="Ecaron" unicode="&#x11a;" horiz-adv-x="577" 
d="M159 328v-263h373v-65h-443v700h433v-65h-363v-242h325v-65h-325zM305 798l69 85h68l-104 -128h-63l-105 128h67z" />
    <glyph glyph-name="ecaron" unicode="&#x11b;" horiz-adv-x="537" 
d="M494 218h-388q8 -77 54.5 -122t115.5 -45q92 0 139 79h65q-23 -61 -79 -100.5t-127 -39.5q-66 0 -119.5 33t-84.5 92t-31 135q0 74 31.5 133.5t85.5 93t118 33.5q63 0 114.5 -32.5t80.5 -88.5t29 -124q0 -31 -4 -47zM195.5 427.5q-36.5 -21.5 -61 -61t-29.5 -89.5h327
q-5 75 -49 123.5t-109 48.5q-42 0 -78.5 -21.5zM271 603l65 91h68l-102 -134h-60l-102 134h66z" />
    <glyph glyph-name="Gcircumflex" unicode="&#x11c;" horiz-adv-x="743" 
d="M391 342h280v-342h-49l-16 113q-36 -52 -98 -87.5t-140 -35.5q-86 0 -160.5 47t-119 129.5t-44.5 183.5t44.5 183.5t119 129.5t160.5 47q69 0 130.5 -29.5t104 -81t57.5 -113.5h-70q-26 70 -83 114.5t-139 44.5q-67 0 -125.5 -37.5t-93.5 -105t-35 -152.5t35 -152.5
t93.5 -105t125.5 -37.5q63 0 115 28.5t83.5 79.5t34.5 116h-210v63zM399 883l104 -128h-68l-69 85l-68 -85h-67l105 128h63z" />
    <glyph glyph-name="gcircumflex" unicode="&#x11d;" horiz-adv-x="559" 
d="M135 -149q-57 41 -74 110h65q14 -42 52.5 -66t94.5 -24q67 0 108 40t41 106v79h-5q-9 -14 -31 -32.5t-54 -32.5t-69 -14q-61 0 -112.5 32t-81.5 88.5t-30 125.5q0 70 30 126.5t81.5 88.5t112.5 32q37 0 69 -13.5t54 -32t31 -32.5h5l17 68h48v-483q0 -61 -27 -108
t-75.5 -73t-111.5 -26q-81 0 -138 41zM341.5 102q36.5 24 58.5 66.5t22 94.5q0 53 -22 95.5t-58.5 66.5t-78.5 24q-43 0 -79.5 -24t-58 -66.5t-21.5 -95.5q0 -52 21.5 -94.5t58 -66.5t79.5 -24q42 0 78.5 24zM308 694l102 -134h-68l-65 91l-65 -91h-66l102 134h60z" />
    <glyph glyph-name="Gbreve" unicode="&#x11e;" horiz-adv-x="743" 
d="M391 342h280v-342h-49l-16 113q-36 -52 -98 -87.5t-140 -35.5q-86 0 -160.5 47t-119 129.5t-44.5 183.5t44.5 183.5t119 129.5t160.5 47q69 0 130.5 -29.5t104 -81t57.5 -113.5h-70q-26 70 -83 114.5t-139 44.5q-67 0 -125.5 -37.5t-93.5 -105t-35 -152.5t35 -152.5
t93.5 -105t125.5 -37.5q63 0 115 28.5t83.5 79.5t34.5 116h-210v63zM272 795q-36 35 -38 84h54q4 -33 24 -51.5t55 -18.5t55 18.5t24 51.5h54q-2 -49 -38 -84t-95 -35t-95 35z" />
    <glyph glyph-name="gbreve" unicode="&#x11f;" horiz-adv-x="559" 
d="M135 -149q-57 41 -74 110h65q14 -42 52.5 -66t94.5 -24q67 0 108 40t41 106v79h-5q-9 -14 -31 -32.5t-54 -32.5t-69 -14q-61 0 -112.5 32t-81.5 88.5t-30 125.5q0 70 30 126.5t81.5 88.5t112.5 32q37 0 69 -13.5t54 -32t31 -32.5h5l17 68h48v-483q0 -61 -27 -108
t-75.5 -73t-111.5 -26q-81 0 -138 41zM341.5 102q36.5 24 58.5 66.5t22 94.5q0 53 -22 95.5t-58.5 66.5t-78.5 24q-43 0 -79.5 -24t-58 -66.5t-21.5 -95.5q0 -52 21.5 -94.5t58 -66.5t79.5 -24q42 0 78.5 24zM184.5 601.5q-35.5 35.5 -37.5 86.5h54q4 -35 23.5 -54t53.5 -19
t53.5 19t23.5 54h54q-2 -51 -37.5 -86.5t-93.5 -35.5t-93.5 35.5z" />
    <glyph glyph-name="Gdotaccent" unicode="&#x120;" horiz-adv-x="743" 
d="M391 342h280v-342h-49l-16 113q-36 -52 -98 -87.5t-140 -35.5q-86 0 -160.5 47t-119 129.5t-44.5 183.5t44.5 183.5t119 129.5t160.5 47q69 0 130.5 -29.5t104 -81t57.5 -113.5h-70q-26 70 -83 114.5t-139 44.5q-67 0 -125.5 -37.5t-93.5 -105t-35 -152.5t35 -152.5
t93.5 -105t125.5 -37.5q63 0 115 28.5t83.5 79.5t34.5 116h-210v63zM335 787q-13 13 -13 32q0 20 13 32.5t32 12.5q20 0 32.5 -12.5t12.5 -32.5q0 -19 -13 -32t-32 -13t-32 13z" />
    <glyph glyph-name="gdotaccent" unicode="&#x121;" horiz-adv-x="559" 
d="M135 -149q-57 41 -74 110h65q14 -42 52.5 -66t94.5 -24q67 0 108 40t41 106v79h-5q-9 -14 -31 -32.5t-54 -32.5t-69 -14q-61 0 -112.5 32t-81.5 88.5t-30 125.5q0 70 30 126.5t81.5 88.5t112.5 32q37 0 69 -13.5t54 -32t31 -32.5h5l17 68h48v-483q0 -61 -27 -108
t-75.5 -73t-111.5 -26q-81 0 -138 41zM341.5 102q36.5 24 58.5 66.5t22 94.5q0 53 -22 95.5t-58.5 66.5t-78.5 24q-43 0 -79.5 -24t-58 -66.5t-21.5 -95.5q0 -52 21.5 -94.5t58 -66.5t79.5 -24q42 0 78.5 24zM246 593q-13 13 -13 32q0 20 13 32.5t32 12.5q20 0 32.5 -12.5
t12.5 -32.5q0 -19 -13 -32t-32 -13t-32 13z" />
    <glyph glyph-name="uni0122" unicode="&#x122;" horiz-adv-x="743" 
d="M391 342h280v-342h-49l-16 113q-36 -52 -98 -87.5t-140 -35.5q-86 0 -160.5 47t-119 129.5t-44.5 183.5t44.5 183.5t119 129.5t160.5 47q69 0 130.5 -29.5t104 -81t57.5 -113.5h-70q-26 70 -83 114.5t-139 44.5q-67 0 -125.5 -37.5t-93.5 -105t-35 -152.5t35 -152.5
t93.5 -105t125.5 -37.5q63 0 115 28.5t83.5 79.5t34.5 116h-210v63zM404 -96q14 -16 14 -44q0 -41 -22 -75.5t-46 -54.5l-15 18q11 11 21 31t12 47q-19 1 -33.5 13.5t-14.5 33.5t14.5 34t32.5 13q23 0 37 -16z" />
    <glyph glyph-name="uni0123" unicode="&#x123;" horiz-adv-x="559" 
d="M135 -149q-57 41 -74 110h65q14 -42 52.5 -66t94.5 -24q67 0 108 40t41 106v79h-5q-9 -14 -31 -32.5t-54 -32.5t-69 -14q-61 0 -112.5 32t-81.5 88.5t-30 125.5q0 70 30 126.5t81.5 88.5t112.5 32q37 0 69 -13.5t54 -32t31 -32.5h5l17 68h48v-483q0 -61 -27 -108
t-75.5 -73t-111.5 -26q-81 0 -138 41zM341.5 102q36.5 24 58.5 66.5t22 94.5q0 53 -22 95.5t-58.5 66.5t-78.5 24q-43 0 -79.5 -24t-58 -66.5t-21.5 -95.5q0 -52 21.5 -94.5t58 -66.5t79.5 -24q42 0 78.5 24zM312.5 640.5q14.5 -12.5 14.5 -33.5t-14.5 -34t-32.5 -13
q-23 0 -37 16t-14 44q0 41 23.5 74.5t49.5 52.5l14 -18q-13 -10 -24 -29t-13 -46q19 -1 33.5 -13.5z" />
    <glyph glyph-name="Hcircumflex" unicode="&#x124;" horiz-adv-x="680" 
d="M521 390v310h70v-700h-70v325h-362v-325h-70v700h70v-310h362zM372 883l104 -128h-68l-69 85l-68 -85h-67l105 128h63z" />
    <glyph glyph-name="hcircumflex" unicode="&#x125;" horiz-adv-x="560" 
d="M77 0v700h65v-268h5q20 31 58.5 54.5t88.5 23.5q56 0 101.5 -27t71.5 -77t26 -116v-290h-65v290q0 74 -39 116.5t-101 42.5q-66 0 -106 -42.5t-40 -116.5v-290h-65zM318 883l104 -128h-68l-69 85l-68 -85h-67l105 128h63z" />
    <glyph glyph-name="Hbar" unicode="&#x126;" horiz-adv-x="732" 
d="M617 580h95v-63h-95v-517h-70v325h-362v-325h-70v517h-95v63h95v120h70v-120h362v120h70v-120zM185 517v-127h362v127h-362z" />
    <glyph glyph-name="hbar" unicode="&#x127;" horiz-adv-x="573" 
d="M408.5 468q45.5 -27 71.5 -77t26 -116v-275h-65v275q0 74 -39 116.5t-101 42.5q-66 0 -106 -42.5t-40 -116.5v-275h-65v558h-80v59h80v83h65v-83h175v-59h-175v-141h5q20 31 58.5 54.5t88.5 23.5q56 0 101.5 -27z" />
    <glyph glyph-name="Itilde" unicode="&#x128;" horiz-adv-x="248" 
d="M159 0h-70v700h70v-700zM143 772q-16 10 -34 28q-14 13 -22.5 19t-18.5 6q-17 0 -28 -15t-11 -42h-50q0 53 25.5 81.5t61.5 28.5q23 0 39 -10t34 -28q14 -13 22.5 -19t18.5 -6q17 0 28 15t11 42h50q0 -53 -26 -81.5t-61 -28.5q-23 0 -39 10z" />
    <glyph glyph-name="itilde" unicode="&#x129;" horiz-adv-x="209" 
d="M137 0h-65v500h65v-500zM123.5 577q-15.5 11 -33.5 31q-13 14 -21.5 20.5t-18.5 6.5q-16 0 -26.5 -16t-10.5 -47h-50q0 58 24.5 87t60.5 29q23 0 38.5 -11t33.5 -31q13 -14 21.5 -20.5t18.5 -6.5q15 0 26 16.5t11 46.5h50q0 -58 -24.5 -87t-60.5 -29q-23 0 -38.5 11z" />
    <glyph glyph-name="Imacron" unicode="&#x12a;" horiz-adv-x="248" 
d="M159 0h-70v700h70v-700zM251 792h-254v55h254v-55z" />
    <glyph glyph-name="imacron" unicode="&#x12b;" horiz-adv-x="209" 
d="M137 0h-65v500h65v-500zM229 600h-248v53h248v-53z" />
    <glyph glyph-name="Ibreve" unicode="&#x12c;" horiz-adv-x="248" 
d="M159 0h-70v700h70v-700zM29 795q-36 35 -38 84h54q4 -33 24 -51.5t55 -18.5t55 18.5t24 51.5h54q-2 -49 -38 -84t-95 -35t-95 35z" />
    <glyph glyph-name="ibreve" unicode="&#x12d;" horiz-adv-x="209" 
d="M137 0h-65v500h65v-500zM11.5 601.5q-35.5 35.5 -37.5 86.5h54q4 -35 23.5 -54t53.5 -19t53.5 19t23.5 54h54q-2 -51 -37.5 -86.5t-93.5 -35.5t-93.5 35.5z" />
    <glyph glyph-name="Iogonek" unicode="&#x12e;" horiz-adv-x="248" 
d="M159 0q-33 -24 -51.5 -51.5t-18.5 -56.5q0 -24 12 -36.5t33 -12.5q13 0 25 4v-42q-17 -5 -31 -5q-37 0 -62 23t-25 63q0 35 19.5 65.5t46.5 48.5h-18v700h70v-700z" />
    <glyph glyph-name="iogonek" unicode="&#x12f;" horiz-adv-x="209" 
d="M137.5 657.5q12.5 -12.5 12.5 -32.5q0 -19 -12.5 -32t-32.5 -13q-19 0 -32 13t-13 32q0 20 13 32.5t32 12.5q20 0 32.5 -12.5zM72 0v500h65v-500h-7q-33 -24 -51.5 -51.5t-18.5 -56.5q0 -24 12 -36.5t33 -12.5q13 0 25 4v-42q-17 -5 -31 -5q-37 0 -62 23t-25 63
q0 35 19.5 65.5t46.5 48.5h-6z" />
    <glyph glyph-name="Idotaccent" unicode="&#x130;" horiz-adv-x="248" 
d="M159 0h-70v700h70v-700zM92 787q-13 13 -13 32q0 20 13 32.5t32 12.5q20 0 32.5 -12.5t12.5 -32.5q0 -19 -13 -32t-32 -13t-32 13z" />
    <glyph glyph-name="dotlessi" unicode="&#x131;" horiz-adv-x="209" 
d="M137 0h-65v500h65v-500z" />
    <glyph glyph-name="IJ" unicode="&#x132;" horiz-adv-x="773" 
d="M159 0h-70v700h70v-700zM367.5 17.5q-48.5 27.5 -75.5 73t-27 98.5h70q0 -34 18.5 -65t51 -50t73.5 -19q64 0 102.5 40t38.5 106v499h70v-499q0 -62 -26 -110t-74 -74.5t-111 -26.5q-62 0 -110.5 27.5z" />
    <glyph glyph-name="ij" unicode="&#x133;" horiz-adv-x="418" 
d="M137 0h-65v500h65v-500zM73 593q-13 13 -13 32q0 20 13 32.5t32 12.5q20 0 32.5 -12.5t12.5 -32.5q0 -19 -13 -32t-32 -13t-32 13zM164 -177v59q16 -6 34 -6q39 0 61 24.5t22 73.5v526h65v-526q0 -74 -38.5 -116.5t-99.5 -42.5q-22 0 -44 8zM282 593q-13 13 -13 32
q0 20 13 32.5t32 12.5q20 0 32.5 -12.5t12.5 -32.5q0 -19 -13 -32t-32 -13t-32 13z" />
    <glyph glyph-name="Jcircumflex" unicode="&#x134;" horiz-adv-x="525" 
d="M119.5 17.5q-48.5 27.5 -75.5 73t-27 98.5h70q0 -34 18.5 -65t51 -50t73.5 -19q64 0 102.5 40t38.5 106v499h70v-499q0 -62 -26 -110t-74 -74.5t-111 -26.5q-62 0 -110.5 27.5zM438 883l104 -128h-68l-69 85l-68 -85h-67l105 128h63z" />
    <glyph glyph-name="jcircumflex" unicode="&#x135;" horiz-adv-x="209" 
d="M-45 -177v59q16 -6 34 -6q39 0 61 24.5t22 73.5v526h65v-526q0 -74 -38.5 -116.5t-99.5 -42.5q-22 0 -44 8zM135 694l102 -134h-68l-65 91l-65 -91h-66l102 134h60z" />
    <glyph glyph-name="uni0136" unicode="&#x136;" horiz-adv-x="550" 
d="M89 0v700h70v-700h-70zM542 700l-299 -341l315 -359h-90l-309 355l299 345h84zM345 -96q14 -16 14 -44q0 -41 -22 -75.5t-46 -54.5l-15 18q11 11 21 31t12 47q-19 1 -33.5 13.5t-14.5 33.5t14.5 34t32.5 13q23 0 37 -16z" />
    <glyph glyph-name="uni0137" unicode="&#x137;" horiz-adv-x="455" 
d="M77 0v700h65v-700h-65zM441 500l-219 -242l241 -258h-86l-235 255l218 245h81zM293 -96q14 -16 14 -44q0 -41 -22 -75.5t-46 -54.5l-15 18q11 11 21 31t12 47q-19 1 -33.5 13.5t-14.5 33.5t14.5 34t32.5 13q23 0 37 -16z" />
    <glyph glyph-name="Lacute" unicode="&#x139;" horiz-adv-x="513" 
d="M503 0h-414v700h70v-635h344v-65zM140 755h-54l70 128h78z" />
    <glyph glyph-name="lacute" unicode="&#x13a;" horiz-adv-x="219" 
d="M142 0h-65v700h65v-700zM126 755h-54l70 128h78z" />
    <glyph glyph-name="uni013B" unicode="&#x13b;" horiz-adv-x="513" 
d="M503 0h-414v700h70v-635h344v-65zM330 -96q14 -16 14 -44q0 -41 -22 -75.5t-46 -54.5l-15 18q11 11 21 31t12 47q-19 1 -33.5 13.5t-14.5 33.5t14.5 34t32.5 13q23 0 37 -16z" />
    <glyph glyph-name="uni013C" unicode="&#x13c;" horiz-adv-x="219" 
d="M142 0h-65v700h65v-700zM144 -96q14 -16 14 -44q0 -41 -22 -75.5t-46 -54.5l-15 18q11 11 21 31t12 47q-19 1 -33.5 13.5t-14.5 33.5t14.5 34t32.5 13q23 0 37 -16z" />
    <glyph glyph-name="Lcaron" unicode="&#x13d;" horiz-adv-x="513" 
d="M503 0h-414v700h70v-635h344v-65zM239 560h-40l32 140h69z" />
    <glyph glyph-name="lcaron" unicode="&#x13e;" horiz-adv-x="219" 
d="M142 0h-65v700h65v-700zM223 560h-40l32 140h69z" />
    <glyph glyph-name="Ldot" unicode="&#x13f;" horiz-adv-x="513" 
d="M503 0h-414v700h70v-635h344v-65zM344 328q-15 15 -15 37t15 37t37 15t37 -15t15 -37t-15 -37t-37 -15t-37 15z" />
    <glyph glyph-name="ldot" unicode="&#x140;" horiz-adv-x="329" 
d="M142 0h-65v700h65v-700zM237 313q-15 15 -15 37t15 37t37 15t37 -15t15 -37t-15 -37t-37 -15t-37 15z" />
    <glyph glyph-name="Lslash" unicode="&#x141;" horiz-adv-x="539" 
d="M185 315v-250h344v-65h-414v272l-95 -58v72l95 58v356h70v-313l165 100v-72z" />
    <glyph glyph-name="lslash" unicode="&#x142;" horiz-adv-x="257" 
d="M161 407l86 57v-69l-86 -57v-338h-65v294l-86 -57v69l86 57v337h65v-293z" />
    <glyph glyph-name="Nacute" unicode="&#x143;" horiz-adv-x="690" 
d="M531 129v571h70v-700h-66l-376 571v-571h-70v700h66zM366 755h-54l70 128h78z" />
    <glyph glyph-name="nacute" unicode="&#x144;" horiz-adv-x="555" 
d="M72 0v500h48l17 -68h5q20 31 58.5 54.5t88.5 23.5q56 0 101.5 -27t71.5 -77t26 -116v-290h-65v290q0 74 -39 116.5t-101 42.5q-66 0 -106 -42.5t-40 -116.5v-290h-65zM300 560h-51l66 134h75z" />
    <glyph glyph-name="uni0145" unicode="&#x145;" horiz-adv-x="690" 
d="M531 129v571h70v-700h-66l-376 571v-571h-70v700h66zM384 -96q14 -16 14 -44q0 -41 -22 -75.5t-46 -54.5l-15 18q11 11 21 31t12 47q-19 1 -33.5 13.5t-14.5 33.5t14.5 34t32.5 13q23 0 37 -16z" />
    <glyph glyph-name="uni0146" unicode="&#x146;" horiz-adv-x="555" 
d="M72 0v500h48l17 -68h5q20 31 58.5 54.5t88.5 23.5q56 0 101.5 -27t71.5 -77t26 -116v-290h-65v290q0 74 -39 116.5t-101 42.5q-66 0 -106 -42.5t-40 -116.5v-290h-65zM316 -96q14 -16 14 -44q0 -41 -22 -75.5t-46 -54.5l-15 18q11 11 21 31t12 47q-19 1 -33.5 13.5
t-14.5 33.5t14.5 34t32.5 13q23 0 37 -16z" />
    <glyph glyph-name="Ncaron" unicode="&#x147;" horiz-adv-x="690" 
d="M531 129v571h70v-700h-66l-376 571v-571h-70v700h66zM349 798l69 85h68l-104 -128h-63l-105 128h67z" />
    <glyph glyph-name="ncaron" unicode="&#x148;" horiz-adv-x="555" 
d="M72 0v500h48l17 -68h5q20 31 58.5 54.5t88.5 23.5q56 0 101.5 -27t71.5 -77t26 -116v-290h-65v290q0 74 -39 116.5t-101 42.5q-66 0 -106 -42.5t-40 -116.5v-290h-65zM284 603l65 91h68l-102 -134h-60l-102 134h66z" />
    <glyph glyph-name="napostrophe" unicode="&#x149;" horiz-adv-x="576" 
d="M93 0v500h48l17 -68h5q20 31 58.5 54.5t88.5 23.5q56 0 101.5 -27t71.5 -77t26 -116v-290h-65v290q0 74 -39 116.5t-101 42.5q-66 0 -106 -42.5t-40 -116.5v-290h-65zM69 694q14 -16 14 -44q0 -44 -23 -81.5t-50 -63.5l-15 18q33 44 36 93q-19 2 -32.5 14.5t-13.5 32.5
q0 21 14.5 34t32.5 13q23 0 37 -16z" />
    <glyph glyph-name="Eng" unicode="&#x14a;" horiz-adv-x="690" 
d="M531 700h70v-730q0 -78 -40.5 -121.5t-109.5 -43.5q-33 0 -53 8v63q17 -6 40 -6q93 0 93 100v36l-372 565v-571h-70v700h66l376 -571v571z" />
    <glyph glyph-name="eng" unicode="&#x14b;" horiz-adv-x="555" 
d="M306 -177v58q10 -5 33 -5q40 0 62 24.5t22 73.5v316q0 74 -39 116.5t-101 42.5q-66 0 -106 -42.5t-40 -116.5v-290h-65v500h48l17 -68h5q20 31 58.5 54.5t88.5 23.5q56 0 101.5 -27t71.5 -77t26 -116v-316q0 -73 -37.5 -116t-94.5 -43q-34 0 -50 8z" />
    <glyph glyph-name="Omacron" unicode="&#x14c;" horiz-adv-x="737" 
d="M207.5 37q-74.5 47 -119 129.5t-44.5 183.5t44.5 183.5t119 129.5t160.5 47t161 -47t119.5 -129.5t44.5 -183.5t-44.5 -183.5t-119.5 -129.5t-161 -47t-160.5 47zM494.5 92.5q58.5 37.5 93.5 105t35 152.5t-35 152.5t-93.5 105t-126.5 37.5q-67 0 -125.5 -37.5
t-93.5 -105t-35 -152.5t35 -152.5t93.5 -105t125.5 -37.5q68 0 126.5 37.5zM495 792h-254v55h254v-55z" />
    <glyph glyph-name="omacron" unicode="&#x14d;" horiz-adv-x="548" 
d="M156 23.5q-54 33.5 -85.5 93t-31.5 133.5t31.5 133.5t85.5 93t118 33.5t118 -33.5t85.5 -93t31.5 -133.5t-31.5 -133.5t-85.5 -93t-118 -33.5t-118 33.5zM359 76q39 25 62 70.5t23 103.5t-23 103.5t-62 70.5t-85 25t-85 -25t-62 -70.5t-23 -103.5t23 -103.5t62 -70.5
t85 -25t85 25zM398 600h-248v53h248v-53z" />
    <glyph glyph-name="Obreve" unicode="&#x14e;" horiz-adv-x="737" 
d="M207.5 37q-74.5 47 -119 129.5t-44.5 183.5t44.5 183.5t119 129.5t160.5 47t161 -47t119.5 -129.5t44.5 -183.5t-44.5 -183.5t-119.5 -129.5t-161 -47t-160.5 47zM494.5 92.5q58.5 37.5 93.5 105t35 152.5t-35 152.5t-93.5 105t-126.5 37.5q-67 0 -125.5 -37.5
t-93.5 -105t-35 -152.5t35 -152.5t93.5 -105t125.5 -37.5q68 0 126.5 37.5zM273 795q-36 35 -38 84h54q4 -33 24 -51.5t55 -18.5t55 18.5t24 51.5h54q-2 -49 -38 -84t-95 -35t-95 35z" />
    <glyph glyph-name="obreve" unicode="&#x14f;" horiz-adv-x="548" 
d="M156 23.5q-54 33.5 -85.5 93t-31.5 133.5t31.5 133.5t85.5 93t118 33.5t118 -33.5t85.5 -93t31.5 -133.5t-31.5 -133.5t-85.5 -93t-118 -33.5t-118 33.5zM359 76q39 25 62 70.5t23 103.5t-23 103.5t-62 70.5t-85 25t-85 -25t-62 -70.5t-23 -103.5t23 -103.5t62 -70.5
t85 -25t85 25zM180.5 601.5q-35.5 35.5 -37.5 86.5h54q4 -35 23.5 -54t53.5 -19t53.5 19t23.5 54h54q-2 -51 -37.5 -86.5t-93.5 -35.5t-93.5 35.5z" />
    <glyph glyph-name="Ohungarumlaut" unicode="&#x150;" horiz-adv-x="737" 
d="M207.5 37q-74.5 47 -119 129.5t-44.5 183.5t44.5 183.5t119 129.5t160.5 47t161 -47t119.5 -129.5t44.5 -183.5t-44.5 -183.5t-119.5 -129.5t-161 -47t-160.5 47zM494.5 92.5q58.5 37.5 93.5 105t35 152.5t-35 152.5t-93.5 105t-126.5 37.5q-67 0 -125.5 -37.5
t-93.5 -105t-35 -152.5t35 -152.5t93.5 -105t125.5 -37.5q68 0 126.5 37.5zM329 755h-54l80 128h78zM462 755h-54l80 128h78z" />
    <glyph glyph-name="ohungarumlaut" unicode="&#x151;" horiz-adv-x="548" 
d="M156 23.5q-54 33.5 -85.5 93t-31.5 133.5t31.5 133.5t85.5 93t118 33.5t118 -33.5t85.5 -93t31.5 -133.5t-31.5 -133.5t-85.5 -93t-118 -33.5t-118 33.5zM359 76q39 25 62 70.5t23 103.5t-23 103.5t-62 70.5t-85 25t-85 -25t-62 -70.5t-23 -103.5t23 -103.5t62 -70.5
t85 -25t85 25zM234 560h-51l76 134h75zM365 560h-51l76 134h75z" />
    <glyph glyph-name="OE" unicode="&#x152;" horiz-adv-x="922" 
d="M534 65h343v-65h-490q-95 0 -173.5 45t-124 125t-45.5 180t45.5 180t124 125t173.5 45h480v-65h-333v-242h295v-65h-295v-263zM464 65v570h-77q-74 0 -137 -37t-99.5 -102t-36.5 -146t36.5 -146t99.5 -102t137 -37h77z" />
    <glyph glyph-name="oe" unicode="&#x153;" horiz-adv-x="904" 
d="M859 218h-368q8 -77 53 -122t111 -45q84 0 126 79h66q-24 -63 -74 -101.5t-118 -38.5q-67 0 -119 33t-79 87q-27 -55 -78.5 -87.5t-114.5 -32.5q-61 0 -112.5 33t-82 92t-30.5 135t30.5 135t82 92t112.5 33q63 0 114.5 -32t78.5 -86q27 53 78.5 85.5t114.5 32.5
t112 -31.5t76 -88t27 -129.5q0 -19 -6 -43zM343 75.5q37 24.5 59 70t22 104.5t-22 104.5t-59 70t-79 24.5t-79 -24.5t-59 -70t-22 -104.5t22 -104.5t59 -70t79 -24.5t79 24.5zM575.5 428q-34.5 -21 -57.5 -60t-28 -91h310q-3 72 -42.5 122t-107.5 50q-40 0 -74.5 -21z" />
    <glyph glyph-name="Racute" unicode="&#x154;" horiz-adv-x="607" 
d="M481 0l-168 295h-154v-295h-70v700h244q62 0 111.5 -27.5t78 -74.5t28.5 -103q0 -71 -45 -123.5t-118 -69.5l174 -302h-81zM159 635v-275h174q65 0 106.5 38.5t41.5 96.5q0 61 -41 100.5t-107 39.5h-174zM326 755h-54l70 128h78z" />
    <glyph glyph-name="racute" unicode="&#x155;" horiz-adv-x="321" 
d="M72 0v500h48l17 -68h5q19 29 56 53.5t79 24.5q23 0 36 -4v-65q-16 4 -34 4q-63 0 -102.5 -42.5t-39.5 -116.5v-286h-65zM205 560h-51l66 134h75z" />
    <glyph glyph-name="uni0156" unicode="&#x156;" horiz-adv-x="607" 
d="M481 0l-168 295h-154v-295h-70v700h244q62 0 111.5 -27.5t78 -74.5t28.5 -103q0 -71 -45 -123.5t-118 -69.5l174 -302h-81zM159 635v-275h174q65 0 106.5 38.5t41.5 96.5q0 61 -41 100.5t-107 39.5h-174zM351 -96q14 -16 14 -44q0 -41 -22 -75.5t-46 -54.5l-15 18
q11 11 21 31t12 47q-19 1 -33.5 13.5t-14.5 33.5t14.5 34t32.5 13q23 0 37 -16z" />
    <glyph glyph-name="uni0157" unicode="&#x157;" horiz-adv-x="321" 
d="M72 0v500h48l17 -68h5q19 29 56 53.5t79 24.5q23 0 36 -4v-65q-16 4 -34 4q-63 0 -102.5 -42.5t-39.5 -116.5v-286h-65zM139 -96q14 -16 14 -44q0 -41 -22 -75.5t-46 -54.5l-15 18q11 11 21 31t12 47q-19 1 -33.5 13.5t-14.5 33.5t14.5 34t32.5 13q23 0 37 -16z" />
    <glyph glyph-name="Rcaron" unicode="&#x158;" horiz-adv-x="607" 
d="M481 0l-168 295h-154v-295h-70v700h244q62 0 111.5 -27.5t78 -74.5t28.5 -103q0 -71 -45 -123.5t-118 -69.5l174 -302h-81zM159 635v-275h174q65 0 106.5 38.5t41.5 96.5q0 61 -41 100.5t-107 39.5h-174zM309 798l69 85h68l-104 -128h-63l-105 128h67z" />
    <glyph glyph-name="rcaron" unicode="&#x159;" horiz-adv-x="321" 
d="M72 0v500h48l17 -68h5q19 29 56 53.5t79 24.5q23 0 36 -4v-65q-16 4 -34 4q-63 0 -102.5 -42.5t-39.5 -116.5v-286h-65zM189 603l65 91h68l-102 -134h-60l-102 134h66z" />
    <glyph glyph-name="Sacute" unicode="&#x15a;" horiz-adv-x="554" 
d="M111.5 49q-62.5 59 -67.5 155h70q5 -71 48.5 -110t117.5 -39t114.5 34.5t40.5 90.5q0 43 -23 70t-56.5 43t-91.5 36q-66 22 -106.5 42t-68.5 57t-28 97q0 53 25.5 95t73.5 66t113 24q66 0 115 -27t76 -74.5t30 -107.5h-70q-4 66 -44.5 105t-106.5 39q-67 0 -104.5 -33.5
t-37.5 -86.5q0 -40 22 -65.5t54 -40t89 -33.5q67 -21 109 -41.5t71 -60.5t29 -104q0 -86 -59 -138t-167 -52q-105 0 -167.5 59zM292 755h-54l70 128h78z" />
    <glyph glyph-name="sacute" unicode="&#x15b;" horiz-adv-x="435" 
d="M131 11.5q-41 21.5 -65 57.5t-27 76h65q5 -42 36 -68t83 -26q51 0 78.5 23t27.5 58q0 26 -16 43t-39 27.5t-65 23.5q-51 16 -82 30.5t-53 42t-22 71.5q0 39 20.5 71t57.5 50.5t86 18.5q48 0 86 -20t60 -54.5t25 -75.5h-65q-5 42 -32 65.5t-74 23.5t-73 -21.5t-26 -54.5
q0 -36 29 -54.5t89 -37.5q51 -17 82.5 -32.5t54 -43.5t22.5 -73q0 -61 -46 -101.5t-125 -40.5q-51 0 -92 21.5zM231 560h-51l66 134h75z" />
    <glyph glyph-name="Scircumflex" unicode="&#x15c;" horiz-adv-x="554" 
d="M111.5 49q-62.5 59 -67.5 155h70q5 -71 48.5 -110t117.5 -39t114.5 34.5t40.5 90.5q0 43 -23 70t-56.5 43t-91.5 36q-66 22 -106.5 42t-68.5 57t-28 97q0 53 25.5 95t73.5 66t113 24q66 0 115 -27t76 -74.5t30 -107.5h-70q-4 66 -44.5 105t-106.5 39q-67 0 -104.5 -33.5
t-37.5 -86.5q0 -40 22 -65.5t54 -40t89 -33.5q67 -21 109 -41.5t71 -60.5t29 -104q0 -86 -59 -138t-167 -52q-105 0 -167.5 59zM308 883l104 -128h-68l-69 85l-68 -85h-67l105 128h63z" />
    <glyph glyph-name="scircumflex" unicode="&#x15d;" horiz-adv-x="435" 
d="M131 11.5q-41 21.5 -65 57.5t-27 76h65q5 -42 36 -68t83 -26q51 0 78.5 23t27.5 58q0 26 -16 43t-39 27.5t-65 23.5q-51 16 -82 30.5t-53 42t-22 71.5q0 39 20.5 71t57.5 50.5t86 18.5q48 0 86 -20t60 -54.5t25 -75.5h-65q-5 42 -32 65.5t-74 23.5t-73 -21.5t-26 -54.5
q0 -36 29 -54.5t89 -37.5q51 -17 82.5 -32.5t54 -43.5t22.5 -73q0 -61 -46 -101.5t-125 -40.5q-51 0 -92 21.5zM246 694l102 -134h-68l-65 91l-65 -91h-66l102 134h60z" />
    <glyph glyph-name="Scedilla" unicode="&#x15e;" horiz-adv-x="554" 
d="M449.5 45.5q-55.5 -51.5 -157.5 -55.5l-15 -33q44 -2 67 -23t23 -53q0 -38 -27.5 -59.5t-83.5 -21.5q-29 0 -53 8v41q22 -6 45 -6q71 0 71 38t-63 38q-18 0 -38 -4l31 76q-92 9 -146 66.5t-59 146.5h70q5 -71 48.5 -110t117.5 -39t114.5 34.5t40.5 90.5q0 43 -23 70
t-56.5 43t-91.5 36q-66 22 -106.5 42t-68.5 57t-28 97q0 53 25.5 95t73.5 66t113 24q66 0 115 -27t76 -74.5t30 -107.5h-70q-4 66 -44.5 105t-106.5 39q-67 0 -104.5 -33.5t-37.5 -86.5q0 -40 22 -65.5t54 -40t89 -33.5q67 -21 109 -41.5t71 -60.5t29 -104
q0 -83 -55.5 -134.5z" />
    <glyph glyph-name="scedilla" unicode="&#x15f;" horiz-adv-x="435" 
d="M352.5 34q-41.5 -40 -113.5 -44l-16 -33q44 -2 67 -23t23 -53q0 -38 -27.5 -59.5t-83.5 -21.5q-29 0 -53 8v41q22 -6 45 -6q71 0 71 38t-63 38q-18 0 -38 -4l31 77q-66 8 -109 52t-47 101h65q5 -42 36 -68t83 -26q51 0 78.5 23t27.5 58q0 26 -16 43t-39 27.5t-65 23.5
q-51 16 -82 30.5t-53 42t-22 71.5q0 39 20.5 71t57.5 50.5t86 18.5q48 0 86 -20t60 -54.5t25 -75.5h-65q-5 42 -32 65.5t-74 23.5t-73 -21.5t-26 -54.5q0 -36 29 -54.5t89 -37.5q51 -17 82.5 -32.5t54 -43.5t22.5 -73q0 -58 -41.5 -98z" />
    <glyph glyph-name="Scaron" unicode="&#x160;" horiz-adv-x="554" 
d="M111.5 49q-62.5 59 -67.5 155h70q5 -71 48.5 -110t117.5 -39t114.5 34.5t40.5 90.5q0 43 -23 70t-56.5 43t-91.5 36q-66 22 -106.5 42t-68.5 57t-28 97q0 53 25.5 95t73.5 66t113 24q66 0 115 -27t76 -74.5t30 -107.5h-70q-4 66 -44.5 105t-106.5 39q-67 0 -104.5 -33.5
t-37.5 -86.5q0 -40 22 -65.5t54 -40t89 -33.5q67 -21 109 -41.5t71 -60.5t29 -104q0 -86 -59 -138t-167 -52q-105 0 -167.5 59zM275 798l69 85h68l-104 -128h-63l-105 128h67z" />
    <glyph glyph-name="scaron" unicode="&#x161;" horiz-adv-x="435" 
d="M131 11.5q-41 21.5 -65 57.5t-27 76h65q5 -42 36 -68t83 -26q51 0 78.5 23t27.5 58q0 26 -16 43t-39 27.5t-65 23.5q-51 16 -82 30.5t-53 42t-22 71.5q0 39 20.5 71t57.5 50.5t86 18.5q48 0 86 -20t60 -54.5t25 -75.5h-65q-5 42 -32 65.5t-74 23.5t-73 -21.5t-26 -54.5
q0 -36 29 -54.5t89 -37.5q51 -17 82.5 -32.5t54 -43.5t22.5 -73q0 -61 -46 -101.5t-125 -40.5q-51 0 -92 21.5zM215 603l65 91h68l-102 -134h-60l-102 134h66z" />
    <glyph glyph-name="uni0162" unicode="&#x162;" horiz-adv-x="536" 
d="M303 0h-18l-20 -43q44 -2 67 -23t23 -53q0 -38 -27.5 -59.5t-83.5 -21.5q-29 0 -53 8v41q22 -6 45 -6q71 0 71 38t-63 38q-18 0 -38 -4l35 85h-8v635h-216v65h502v-65h-216v-635z" />
    <glyph glyph-name="uni0163" unicode="&#x163;" horiz-adv-x="320" 
d="M200 -43q44 -2 67 -23t23 -53q0 -38 -27.5 -59.5t-83.5 -21.5q-29 0 -53 8v41q22 -6 45 -6q71 0 71 38t-63 38q-18 0 -38 -4l37 90q-35 18 -54.5 55.5t-19.5 89.5v289h-89v61h39q61 0 61 60v73h54v-133h117v-61h-117v-290q0 -49 22 -73.5t61 -24.5q18 0 34 6v-59
q-22 -8 -44 -8q-8 0 -26 2z" />
    <glyph glyph-name="Tcaron" unicode="&#x164;" horiz-adv-x="536" 
d="M303 0h-70v635h-216v65h502v-65h-216v-635zM267 798l69 85h68l-104 -128h-63l-105 128h67z" />
    <glyph glyph-name="tcaron" unicode="&#x165;" horiz-adv-x="320" 
d="M143 33q-39 43 -39 117v289h-89v61h39q61 0 61 60v73h54v-133h117v-61h-117v-290q0 -49 22 -73.5t61 -24.5q18 0 34 6v-59q-22 -8 -44 -8q-60 0 -99 43zM249 560h-40l32 140h69z" />
    <glyph glyph-name="Tbar" unicode="&#x166;" horiz-adv-x="536" 
d="M519 700v-65h-216v-258h115v-63h-115v-314h-70v314h-115v63h115v258h-216v65h502z" />
    <glyph glyph-name="tbar" unicode="&#x167;" horiz-adv-x="320" 
d="M286 439h-117v-155h113v-59h-113v-76q0 -49 22 -73.5t61 -24.5q18 0 34 6v-59q-22 -8 -44 -8q-60 0 -99 43t-39 117v75h-85v59h85v155h-89v61h39q61 0 61 60v73h54v-133h117v-61z" />
    <glyph glyph-name="Utilde" unicode="&#x168;" horiz-adv-x="668" 
d="M203 23q-57 33 -88 92.5t-31 135.5v449h70v-449q0 -90 49 -143t131 -53q81 0 130.5 53t49.5 143v449h70v-449q0 -76 -31.5 -135.5t-88 -92.5t-130.5 -33t-131 33zM353 772q-16 10 -34 28q-14 13 -22.5 19t-18.5 6q-17 0 -28 -15t-11 -42h-50q0 53 25.5 81.5t61.5 28.5
q23 0 39 -10t34 -28q14 -13 22.5 -19t18.5 -6q17 0 28 15t11 42h50q0 -53 -26 -81.5t-61 -28.5q-23 0 -39 10z" />
    <glyph glyph-name="utilde" unicode="&#x169;" horiz-adv-x="555" 
d="M164.5 17q-45.5 27 -71.5 77t-26 116v290h65v-290q0 -74 39 -116.5t101 -42.5q66 0 106 42.5t40 116.5v290h65v-500h-48l-17 68h-5q-20 -31 -58.5 -54.5t-88.5 -23.5q-56 0 -101.5 27zM293.5 577q-15.5 11 -33.5 31q-13 14 -21.5 20.5t-18.5 6.5q-16 0 -26.5 -16
t-10.5 -47h-50q0 58 24.5 87t60.5 29q23 0 38.5 -11t33.5 -31q13 -14 21.5 -20.5t18.5 -6.5q15 0 26 16.5t11 46.5h50q0 -58 -24.5 -87t-60.5 -29q-23 0 -38.5 11z" />
    <glyph glyph-name="Umacron" unicode="&#x16a;" horiz-adv-x="668" 
d="M203 23q-57 33 -88 92.5t-31 135.5v449h70v-449q0 -90 49 -143t131 -53q81 0 130.5 53t49.5 143v449h70v-449q0 -76 -31.5 -135.5t-88 -92.5t-130.5 -33t-131 33zM461 792h-254v55h254v-55z" />
    <glyph glyph-name="umacron" unicode="&#x16b;" horiz-adv-x="555" 
d="M164.5 17q-45.5 27 -71.5 77t-26 116v290h65v-290q0 -74 39 -116.5t101 -42.5q66 0 106 42.5t40 116.5v290h65v-500h-48l-17 68h-5q-20 -31 -58.5 -54.5t-88.5 -23.5q-56 0 -101.5 27zM399 600h-248v53h248v-53z" />
    <glyph glyph-name="Ubreve" unicode="&#x16c;" horiz-adv-x="668" 
d="M203 23q-57 33 -88 92.5t-31 135.5v449h70v-449q0 -90 49 -143t131 -53q81 0 130.5 53t49.5 143v449h70v-449q0 -76 -31.5 -135.5t-88 -92.5t-130.5 -33t-131 33zM239 795q-36 35 -38 84h54q4 -33 24 -51.5t55 -18.5t55 18.5t24 51.5h54q-2 -49 -38 -84t-95 -35t-95 35z
" />
    <glyph glyph-name="ubreve" unicode="&#x16d;" horiz-adv-x="555" 
d="M164.5 17q-45.5 27 -71.5 77t-26 116v290h65v-290q0 -74 39 -116.5t101 -42.5q66 0 106 42.5t40 116.5v290h65v-500h-48l-17 68h-5q-20 -31 -58.5 -54.5t-88.5 -23.5q-56 0 -101.5 27zM181.5 601.5q-35.5 35.5 -37.5 86.5h54q4 -35 23.5 -54t53.5 -19t53.5 19t23.5 54h54
q-2 -51 -37.5 -86.5t-93.5 -35.5t-93.5 35.5z" />
    <glyph glyph-name="Uring" unicode="&#x16e;" horiz-adv-x="668" 
d="M203 23q-57 33 -88 92.5t-31 135.5v449h70v-449q0 -90 49 -143t131 -53q81 0 130.5 53t49.5 143v449h70v-449q0 -76 -31.5 -135.5t-88 -92.5t-130.5 -33t-131 33zM267 781.5q-27 26.5 -27 64.5t27 65t67 27q39 0 66 -27t27 -65t-26.5 -64.5t-66.5 -26.5t-67 26.5z
M368 811q13 13 13 35t-13.5 35.5t-33.5 13.5q-21 0 -34.5 -13.5t-13.5 -35.5t13.5 -35t34.5 -13t34 13z" />
    <glyph glyph-name="uring" unicode="&#x16f;" horiz-adv-x="555" 
d="M164.5 17q-45.5 27 -71.5 77t-26 116v290h65v-290q0 -74 39 -116.5t101 -42.5q66 0 106 42.5t40 116.5v290h65v-500h-48l-17 68h-5q-20 -31 -58.5 -54.5t-88.5 -23.5q-56 0 -101.5 27zM209.5 576q-26.5 26 -26.5 64t26.5 64t65.5 26t65.5 -26t26.5 -64t-26.5 -64
t-65.5 -26t-65.5 26zM310.5 604.5q13.5 13.5 13.5 35.5t-13.5 35.5t-35.5 13.5t-35.5 -13.5t-13.5 -35.5t13.5 -35.5t35.5 -13.5t35.5 13.5z" />
    <glyph glyph-name="Uhungarumlaut" unicode="&#x170;" horiz-adv-x="668" 
d="M203 23q-57 33 -88 92.5t-31 135.5v449h70v-449q0 -90 49 -143t131 -53q81 0 130.5 53t49.5 143v449h70v-449q0 -76 -31.5 -135.5t-88 -92.5t-130.5 -33t-131 33zM295 755h-54l80 128h78zM428 755h-54l80 128h78z" />
    <glyph glyph-name="uhungarumlaut" unicode="&#x171;" horiz-adv-x="555" 
d="M164.5 17q-45.5 27 -71.5 77t-26 116v290h65v-290q0 -74 39 -116.5t101 -42.5q66 0 106 42.5t40 116.5v290h65v-500h-48l-17 68h-5q-20 -31 -58.5 -54.5t-88.5 -23.5q-56 0 -101.5 27zM235 560h-51l76 134h75zM366 560h-51l76 134h75z" />
    <glyph glyph-name="Uogonek" unicode="&#x172;" horiz-adv-x="668" 
d="M514 700h70v-449q0 -145 -108 -221q-53 -37 -85 -69.5t-32 -67.5q0 -23 14.5 -36.5t39.5 -13.5q16 0 31 5v-42q-18 -6 -39 -6q-42 0 -68 23t-26 62q0 31 17 59t44 48q-24 -2 -38 -2q-74 0 -131 33t-88 92.5t-31 135.5v449h70v-449q0 -90 49 -143t131 -53q81 0 130.5 53
t49.5 143v449z" />
    <glyph glyph-name="uogonek" unicode="&#x173;" horiz-adv-x="555" 
d="M483 0q-41 -24 -63 -51.5t-22 -55.5q0 -23 14.5 -36.5t39.5 -13.5q16 0 31 5v-43q-15 -5 -39 -5q-42 0 -68 23t-26 62q0 38 24 70t59 51l-15 62h-5q-20 -31 -58.5 -54.5t-88.5 -23.5q-56 0 -101.5 27t-71.5 77t-26 116v290h65v-290q0 -74 39 -116.5t101 -42.5
q66 0 106 42.5t40 116.5v290h65v-500z" />
    <glyph glyph-name="Wcircumflex" unicode="&#x174;" horiz-adv-x="864" 
d="M619 141l163 559h70l-210 -700h-51l-160 549l-158 -549h-51l-210 700h73l163 -559l159 559h50zM464 883l104 -128h-68l-69 85l-68 -85h-67l105 128h63z" />
    <glyph glyph-name="wcircumflex" unicode="&#x175;" horiz-adv-x="678" 
d="M481 117l123 383h67l-167 -500h-47l-119 381l-117 -381h-47l-167 500h70l121 -383l119 383h45zM370 694l102 -134h-68l-65 91l-65 -91h-66l102 134h60z" />
    <glyph glyph-name="Ycircumflex" unicode="&#x176;" horiz-adv-x="534" 
d="M269 344l190 356h73l-230 -426v-274h-70v274l-230 426h76zM301 883l104 -128h-68l-69 85l-68 -85h-67l105 128h63z" />
    <glyph glyph-name="ycircumflex" unicode="&#x177;" horiz-adv-x="474" 
d="M399 500h68l-221 -550q-32 -78 -63.5 -106.5t-71.5 -28.5q-17 0 -39 8v59q17 -6 31 -6q24 0 42.5 15t33.5 52l27 68l-199 489h70l163 -406zM268 694l102 -134h-68l-65 91l-65 -91h-66l102 134h60z" />
    <glyph glyph-name="Ydieresis" unicode="&#x178;" horiz-adv-x="534" 
d="M269 344l190 356h73l-230 -426v-274h-70v274l-230 426h76zM154 788.5q-13 12.5 -13 30.5t13 30.5t30 12.5q18 0 30.5 -12.5t12.5 -30.5t-12.5 -30.5t-30.5 -12.5q-17 0 -30 12.5zM324 788.5q-13 12.5 -13 30.5t13 30.5t30 12.5t30 -12.5t13 -30.5t-13 -30.5t-30 -12.5
t-30 12.5z" />
    <glyph glyph-name="Zacute" unicode="&#x179;" horiz-adv-x="543" 
d="M491 657l-364 -592h377v-65h-465v43l364 592h-353v65h441v-43zM287 755h-54l70 128h78z" />
    <glyph glyph-name="zacute" unicode="&#x17a;" horiz-adv-x="416" 
d="M375 445l-264 -384h272v-61h-350v55l265 384h-260v61h337v-55zM222 560h-51l66 134h75z" />
    <glyph glyph-name="Zdotaccent" unicode="&#x17b;" horiz-adv-x="543" 
d="M491 657l-364 -592h377v-65h-465v43l364 592h-353v65h441v-43zM239 787q-13 13 -13 32q0 20 13 32.5t32 12.5q20 0 32.5 -12.5t12.5 -32.5q0 -19 -13 -32t-32 -13t-32 13z" />
    <glyph glyph-name="zdotaccent" unicode="&#x17c;" horiz-adv-x="416" 
d="M375 445l-264 -384h272v-61h-350v55l265 384h-260v61h337v-55zM175 593q-13 13 -13 32q0 20 13 32.5t32 12.5q20 0 32.5 -12.5t12.5 -32.5q0 -19 -13 -32t-32 -13t-32 13z" />
    <glyph glyph-name="Zcaron" unicode="&#x17d;" horiz-adv-x="543" 
d="M491 657l-364 -592h377v-65h-465v43l364 592h-353v65h441v-43zM270 798l69 85h68l-104 -128h-63l-105 128h67z" />
    <glyph glyph-name="zcaron" unicode="&#x17e;" horiz-adv-x="416" 
d="M375 445l-264 -384h272v-61h-350v55l265 384h-260v61h337v-55zM206 603l65 91h68l-102 -134h-60l-102 134h66z" />
    <glyph glyph-name="uni018F" unicode="&#x18f;" horiz-adv-x="732" 
d="M524 663q75 -47 119.5 -129.5t44.5 -183.5t-44.5 -183.5t-119.5 -129.5t-161 -47q-83 0 -156.5 47t-118 128.5t-44.5 179.5q0 15 2 29h571q-5 79 -41 141t-92 96t-121 34q-71 0 -131.5 -39.5t-93.5 -111.5h-70q21 65 66.5 114t105.5 75.5t123 26.5q86 0 161 -47z
M480.5 87q55.5 32 91.5 90.5t44 133.5h-499q5 -71 40.5 -130t90.5 -92.5t115 -33.5q62 0 117.5 32z" />
    <glyph glyph-name="florin" unicode="&#x192;" horiz-adv-x="364" 
d="M389 699l-12 -56q-15 5 -32 5q-45 0 -68.5 -29t-35.5 -91l-21 -114h111l-14 -62h-109l-66 -355q-17 -93 -58 -137.5t-110 -44.5q-26 0 -46 11l12 56q12 -5 31 -5q45 0 69.5 29.5t36.5 90.5l66 355h-76l12 62h75l21 114q17 93 58 137.5t109 44.5q25 0 47 -11z" />
    <glyph glyph-name="Ohorn" unicode="&#x1a0;" horiz-adv-x="737" 
d="M658 514.5q35 -75.5 35 -164.5q0 -101 -44.5 -183.5t-119.5 -129.5t-161 -47t-160.5 47t-119 129.5t-44.5 183.5t44.5 183.5t119 129.5t160.5 47q55 0 107 -20h62q52 0 52 47q0 22 -13 53h54q6 -12 10.5 -30t4.5 -33q0 -34 -22.5 -59t-59.5 -29q60 -49 95 -124.5z
M494.5 92.5q58.5 37.5 93.5 105t35 152.5t-35 152.5t-93.5 105t-126.5 37.5q-67 0 -125.5 -37.5t-93.5 -105t-35 -152.5t35 -152.5t93.5 -105t125.5 -37.5q68 0 126.5 37.5z" />
    <glyph glyph-name="ohorn" unicode="&#x1a1;" horiz-adv-x="548" 
d="M488.5 359.5q20.5 -50.5 20.5 -109.5q0 -74 -31.5 -133.5t-85.5 -93t-118 -33.5t-118 33.5t-85.5 93t-31.5 133.5t31.5 133.5t85.5 93t118 33.5q48 0 93 -20h26q26 0 39 10t13 26q0 27 -13 64h48q7 -12 12.5 -30.5t5.5 -35.5q0 -29 -17.5 -50.5t-48.5 -28.5
q36 -35 56.5 -85.5zM359 76q39 25 62 70.5t23 103.5t-23 103.5t-62 70.5t-85 25t-85 -25t-62 -70.5t-23 -103.5t23 -103.5t62 -70.5t85 -25t85 25z" />
    <glyph glyph-name="Uhorn" unicode="&#x1af;" horiz-adv-x="688" 
d="M682 800q6 -12 10.5 -30t4.5 -33q0 -38 -26.5 -63.5t-69.5 -25.5h-17v-397q0 -76 -31.5 -135.5t-88 -92.5t-130.5 -33t-131 33t-88 92.5t-31 135.5v449h70v-449q0 -90 49 -143t131 -53q81 0 130.5 53t49.5 143v449h75q52 0 52 47q0 22 -13 53h54z" />
    <glyph glyph-name="uhorn" unicode="&#x1b0;" horiz-adv-x="575" 
d="M575 600q7 -12 12.5 -30.5t5.5 -35.5q0 -35 -25.5 -58.5t-67.5 -23.5h-17v-452h-48l-17 68h-5q-20 -31 -58.5 -54.5t-88.5 -23.5q-56 0 -101.5 27t-71.5 77t-26 116v290h65v-290q0 -74 39 -116.5t101 -42.5q66 0 106 42.5t40 116.5v290h70q26 0 39 10t13 26q0 27 -13 64
h48z" />
    <glyph glyph-name="uni01F4" unicode="&#x1f4;" horiz-adv-x="743" 
d="M391 342h280v-342h-49l-16 113q-36 -52 -98 -87.5t-140 -35.5q-86 0 -160.5 47t-119 129.5t-44.5 183.5t44.5 183.5t119 129.5t160.5 47q69 0 130.5 -29.5t104 -81t57.5 -113.5h-70q-26 70 -83 114.5t-139 44.5q-67 0 -125.5 -37.5t-93.5 -105t-35 -152.5t35 -152.5
t93.5 -105t125.5 -37.5q63 0 115 28.5t83.5 79.5t34.5 116h-210v63zM383 755h-54l70 128h78z" />
    <glyph glyph-name="uni01F5" unicode="&#x1f5;" horiz-adv-x="559" 
d="M135 -149q-57 41 -74 110h65q14 -42 52.5 -66t94.5 -24q67 0 108 40t41 106v79h-5q-9 -14 -31 -32.5t-54 -32.5t-69 -14q-61 0 -112.5 32t-81.5 88.5t-30 125.5q0 70 30 126.5t81.5 88.5t112.5 32q37 0 69 -13.5t54 -32t31 -32.5h5l17 68h48v-483q0 -61 -27 -108
t-75.5 -73t-111.5 -26q-81 0 -138 41zM341.5 102q36.5 24 58.5 66.5t22 94.5q0 53 -22 95.5t-58.5 66.5t-78.5 24q-43 0 -79.5 -24t-58 -66.5t-21.5 -95.5q0 -52 21.5 -94.5t58 -66.5t79.5 -24q42 0 78.5 24zM293 560h-51l66 134h75z" />
    <glyph glyph-name="Aringacute" unicode="&#x1fa;" horiz-adv-x="607" 
d="M602 0h-75l-67 178h-316l-67 -178h-72l266 700h65zM436 243l-134 357l-134 -357h268zM332 943h-54l57 114h78zM237 771.5q-27 26.5 -27 64.5t27 65t67 27q39 0 66 -27t27 -65t-26.5 -64.5t-66.5 -26.5t-67 26.5zM338 801q13 13 13 35t-13.5 35.5t-33.5 13.5
q-21 0 -34.5 -13.5t-13.5 -35.5t13.5 -35t34.5 -13t34 13z" />
    <glyph glyph-name="aringacute" unicode="&#x1fb;" horiz-adv-x="497" 
d="M340 486.5q42 -23.5 66 -65.5t24 -96v-325h-48l-17 68h-5q-19 -30 -58.5 -54t-95.5 -24q-50 0 -87.5 20.5t-58 54.5t-20.5 75q0 45 27.5 80.5t77 55.5t113.5 20h107v29q0 56 -33 90t-87 34q-51 0 -80.5 -26t-37.5 -68h-65q5 42 29.5 77.5t64.5 56.5t89 21q53 0 95 -23.5z
M323.5 91.5q41.5 40.5 41.5 102.5v43h-97q-77 0 -120 -25.5t-43 -71.5q0 -40 28 -64.5t80 -24.5q69 0 110.5 40.5zM273 745h-51l61 124h75zM181.5 576q-26.5 26 -26.5 64t26.5 64t65.5 26t65.5 -26t26.5 -64t-26.5 -64t-65.5 -26t-65.5 26zM282.5 604.5q13.5 13.5 13.5 35.5
t-13.5 35.5t-35.5 13.5t-35.5 -13.5t-13.5 -35.5t13.5 -35.5t35.5 -13.5t35.5 13.5z" />
    <glyph glyph-name="AEacute" unicode="&#x1fc;" horiz-adv-x="880" 
d="M492 328v-263h343v-65h-413v178h-271l-102 -178h-77l404 700h449v-65h-333v-242h295v-65h-295zM412 635l-224 -392h234v392h-10zM473 755h-54l70 128h78z" />
    <glyph glyph-name="aeacute" unicode="&#x1fd;" horiz-adv-x="834" 
d="M790 225h-359q7 -80 50.5 -127t107.5 -47q42 0 72 19t51 60h65q-25 -65 -73.5 -102.5t-114.5 -37.5q-64 0 -113.5 31.5t-76.5 81.5q-21 -51 -68.5 -82t-123.5 -31q-51 0 -89 19.5t-58 52t-20 71.5q0 69 59.5 110t159.5 41h108v43q0 54 -33.5 88t-85.5 34
q-53 0 -82.5 -25.5t-38.5 -68.5h-65q6 42 30.5 77.5t65 56.5t90.5 21q60 0 102.5 -31t58.5 -73q23 45 69 74.5t109 29.5q61 0 108.5 -30.5t73.5 -85.5t26 -126q0 -28 -5 -43zM484.5 404q-43.5 -45 -52.5 -120h298q-2 69 -40 117t-103 48q-59 0 -102.5 -45zM325 91.5
q42 40.5 42 102.5v31h-99q-163 0 -163 -92q0 -37 27.5 -59.5t80.5 -22.5q70 0 112 40.5zM434 560h-51l66 134h75z" />
    <glyph glyph-name="Oslashacute" unicode="&#x1fe;" horiz-adv-x="737" 
d="M693 663l-75 -82q36 -47 55.5 -106t19.5 -125q0 -101 -44.5 -183.5t-119.5 -129.5t-161 -47q-58 0 -112 22t-97 63l-73 -80l-42 42l75 82q-36 47 -55.5 106t-19.5 125q0 101 44.5 183.5t119 129.5t160.5 47q58 0 112 -22t98 -63l73 80zM242.5 607.5
q-58.5 -37.5 -93.5 -105t-35 -152.5q0 -103 51 -181l368 408q-34 33 -76.5 50.5t-88.5 17.5q-67 0 -125.5 -37.5zM494.5 92.5q58.5 37.5 93.5 105t35 152.5q0 103 -51 181l-368 -408q34 -33 76.5 -50.5t87.5 -17.5q68 0 126.5 37.5zM384 755h-54l70 128h78z" />
    <glyph glyph-name="oslashacute" unicode="&#x1ff;" horiz-adv-x="548" 
d="M509 467l-50 -54q50 -69 50 -163q0 -74 -31.5 -133.5t-85.5 -93t-118 -33.5q-42 0 -80.5 15t-68.5 42l-48 -52l-38 38l50 54q-50 69 -50 163q0 74 31.5 133.5t85.5 93t118 33.5q41 0 79.5 -14.5t69.5 -41.5l48 51zM189 424q-39 -25 -62 -70.5t-23 -103.5q0 -64 29 -114
l247 271q-45 42 -106 42q-46 0 -85 -25zM359 76q39 25 62 70.5t23 103.5q0 64 -29 114l-248 -271q47 -42 107 -42q46 0 85 25zM289 560h-51l66 134h75z" />
    <glyph glyph-name="uni0218" unicode="&#x218;" horiz-adv-x="554" 
d="M111.5 49q-62.5 59 -67.5 155h70q5 -71 48.5 -110t117.5 -39t114.5 34.5t40.5 90.5q0 43 -23 70t-56.5 43t-91.5 36q-66 22 -106.5 42t-68.5 57t-28 97q0 53 25.5 95t73.5 66t113 24q66 0 115 -27t76 -74.5t30 -107.5h-70q-4 66 -44.5 105t-106.5 39q-67 0 -104.5 -33.5
t-37.5 -86.5q0 -40 22 -65.5t54 -40t89 -33.5q67 -21 109 -41.5t71 -60.5t29 -104q0 -86 -59 -138t-167 -52q-105 0 -167.5 59zM316 -96q14 -16 14 -44q0 -41 -22 -75.5t-46 -54.5l-15 18q11 11 21 31t12 47q-19 1 -33.5 13.5t-14.5 33.5t14.5 34t32.5 13q23 0 37 -16z" />
    <glyph glyph-name="uni0219" unicode="&#x219;" horiz-adv-x="435" 
d="M131 11.5q-41 21.5 -65 57.5t-27 76h65q5 -42 36 -68t83 -26q51 0 78.5 23t27.5 58q0 26 -16 43t-39 27.5t-65 23.5q-51 16 -82 30.5t-53 42t-22 71.5q0 39 20.5 71t57.5 50.5t86 18.5q48 0 86 -20t60 -54.5t25 -75.5h-65q-5 42 -32 65.5t-74 23.5t-73 -21.5t-26 -54.5
q0 -36 29 -54.5t89 -37.5q51 -17 82.5 -32.5t54 -43.5t22.5 -73q0 -61 -46 -101.5t-125 -40.5q-51 0 -92 21.5zM262 -96q14 -16 14 -44q0 -41 -22 -75.5t-46 -54.5l-15 18q11 11 21 31t12 47q-19 1 -33.5 13.5t-14.5 33.5t14.5 34t32.5 13q23 0 37 -16z" />
    <glyph glyph-name="uni021A" unicode="&#x21a;" horiz-adv-x="536" 
d="M303 0h-70v635h-216v65h502v-65h-216v-635zM304 -96q14 -16 14 -44q0 -41 -22 -75.5t-46 -54.5l-15 18q11 11 21 31t12 47q-19 1 -33.5 13.5t-14.5 33.5t14.5 34t32.5 13q23 0 37 -16z" />
    <glyph glyph-name="uni021B" unicode="&#x21b;" horiz-adv-x="320" 
d="M143 33q-39 43 -39 117v289h-89v61h39q61 0 61 60v73h54v-133h117v-61h-117v-290q0 -49 22 -73.5t61 -24.5q18 0 34 6v-59q-22 -8 -44 -8q-60 0 -99 43zM239 -96q14 -16 14 -44q0 -41 -22 -75.5t-46 -54.5l-15 18q11 11 21 31t12 47q-19 1 -33.5 13.5t-14.5 33.5t14.5 34
t32.5 13q23 0 37 -16z" />
    <glyph glyph-name="uni0232" unicode="&#x232;" horiz-adv-x="534" 
d="M269 344l190 356h73l-230 -426v-274h-70v274l-230 426h76zM396 792h-254v55h254v-55z" />
    <glyph glyph-name="uni0233" unicode="&#x233;" horiz-adv-x="474" 
d="M399 500h68l-221 -550q-32 -78 -63.5 -106.5t-71.5 -28.5q-17 0 -39 8v59q17 -6 31 -6q24 0 42.5 15t33.5 52l27 68l-199 489h70l163 -406zM362 600h-248v53h248v-53z" />
    <glyph glyph-name="uni0237" unicode="&#x237;" horiz-adv-x="209" 
d="M-45 -177v59q16 -6 34 -6q39 0 61 24.5t22 73.5v526h65v-526q0 -74 -38.5 -116.5t-99.5 -42.5q-22 0 -44 8z" />
    <glyph glyph-name="uni0244" unicode="&#x244;" horiz-adv-x="720" 
d="M705 442v-63h-95v-128q0 -76 -31.5 -135.5t-88 -92.5t-130.5 -33t-131 33t-88 92.5t-31 135.5v128h-95v63h95v258h70v-258h360v258h70v-258h95zM540 379h-360v-128q0 -90 49 -143t131 -53q81 0 130.5 53t49.5 143v128z" />
    <glyph glyph-name="uni0259" unicode="&#x259;" horiz-adv-x="537" 
d="M382.5 477q53.5 -33 84.5 -92t31 -135q0 -74 -31.5 -133.5t-85.5 -93t-118 -33.5q-63 0 -114.5 32.5t-80.5 88.5t-29 124q0 31 4 47h388q-8 77 -54.5 122t-115.5 45q-92 0 -139 -79h-65q23 61 79 100.5t127 39.5q66 0 119.5 -33zM341.5 72.5q36.5 21.5 61 61t29.5 89.5
h-327q5 -75 49 -123.5t109 -48.5q42 0 78.5 21.5z" />
    <glyph glyph-name="uni02BC" unicode="&#x2bc;" horiz-adv-x="158" 
d="M114 694q14 -16 14 -44q0 -44 -23 -81.5t-50 -63.5l-15 18q33 44 36 93q-19 2 -32.5 14.5t-13.5 32.5q0 21 14.5 34t32.5 13q23 0 37 -16z" />
    <glyph glyph-name="circumflex" unicode="&#x2c6;" horiz-adv-x="324" 
d="M192 694l102 -134h-68l-65 91l-65 -91h-66l102 134h60z" />
    <glyph glyph-name="ring" unicode="&#x2da;" horiz-adv-x="244" 
d="M56.5 576q-26.5 26 -26.5 64t26.5 64t65.5 26t65.5 -26t26.5 -64t-26.5 -64t-65.5 -26t-65.5 26zM157.5 604.5q13.5 13.5 13.5 35.5t-13.5 35.5t-35.5 13.5t-35.5 -13.5t-13.5 -35.5t13.5 -35.5t35.5 -13.5t35.5 13.5z" />
    <glyph glyph-name="tilde" unicode="&#x2dc;" horiz-adv-x="344" 
d="M190.5 577q-15.5 11 -33.5 31q-13 14 -21.5 20.5t-18.5 6.5q-16 0 -26.5 -16t-10.5 -47h-50q0 58 24.5 87t60.5 29q23 0 38.5 -11t33.5 -31q13 -14 21.5 -20.5t18.5 -6.5q15 0 26 16.5t11 46.5h50q0 -58 -24.5 -87t-60.5 -29q-23 0 -38.5 11z" />
    <glyph glyph-name="gravecomb" 
d="M-30 560h-51l-91 134h75z" />
    <glyph glyph-name="acutecomb" 
d="M-120 560h-51l66 134h75z" />
    <glyph glyph-name="uni0302" 
d="M-132 694l102 -134h-68l-65 91l-65 -91h-66l102 134h60z" />
    <glyph glyph-name="tildecomb" 
d="M-153.5 577q-15.5 11 -33.5 31q-13 14 -21.5 20.5t-18.5 6.5q-16 0 -26.5 -16t-10.5 -47h-50q0 58 24.5 87t60.5 29q23 0 38.5 -11t33.5 -31q13 -14 21.5 -20.5t18.5 -6.5q15 0 26 16.5t11 46.5h50q0 -58 -24.5 -87t-60.5 -29q-23 0 -38.5 11z" />
    <glyph glyph-name="uni0304" 
d="M-30 600h-248v53h248v-53z" />
    <glyph glyph-name="uni0306" 
d="M-254.5 601.5q-35.5 35.5 -37.5 86.5h54q4 -35 23.5 -54t53.5 -19t53.5 19t23.5 54h54q-2 -51 -37.5 -86.5t-93.5 -35.5t-93.5 35.5z" />
    <glyph glyph-name="uni0307" 
d="M-107 593q-13 13 -13 32q0 20 13 32.5t32 12.5q20 0 32.5 -12.5t12.5 -32.5q0 -19 -13 -32t-32 -13t-32 13z" />
    <glyph glyph-name="uni0308" 
d="M-263 594.5q-13 12.5 -13 30.5t12.5 30.5t30.5 12.5t30.5 -12t12.5 -31q0 -18 -12.5 -30.5t-30.5 -12.5q-17 0 -30 12.5zM-103.5 594.5q-12.5 12.5 -12.5 30.5q0 19 12.5 31t30.5 12t30.5 -12.5t12.5 -30.5t-13 -30.5t-30 -12.5q-18 0 -30.5 12.5z" />
    <glyph glyph-name="hookabovecomb" 
d="M-106 557q23 33 23 62q0 54 -52 54q-13 0 -28 -4v48q20 6 42 6q43 0 67 -23t24 -64q0 -25 -7.5 -42.5t-20.5 -36.5h-48z" />
    <glyph glyph-name="uni030A" 
d="M-187.5 576q-26.5 26 -26.5 64t26.5 64t65.5 26t65.5 -26t26.5 -64t-26.5 -64t-65.5 -26t-65.5 26zM-86.5 604.5q13.5 13.5 13.5 35.5t-13.5 35.5t-35.5 13.5t-35.5 -13.5t-13.5 -35.5t13.5 -35.5t35.5 -13.5t35.5 13.5z" />
    <glyph glyph-name="uni030B" 
d="M-261 560h-51l76 134h75zM-130 560h-51l76 134h75z" />
    <glyph glyph-name="uni030C" 
d="M-163 603l65 91h68l-102 -134h-60l-102 134h66z" />
    <glyph glyph-name="uni0312" 
d="M-44.5 640.5q14.5 -12.5 14.5 -33.5t-14.5 -34t-32.5 -13q-23 0 -37 16t-14 44q0 41 23.5 74.5t49.5 52.5l14 -18q-13 -10 -24 -29t-13 -46q19 -1 33.5 -13.5z" />
    <glyph glyph-name="dotbelowcomb" 
d="M-107 -157q-13 13 -13 32q0 20 13 32.5t32 12.5q20 0 32.5 -12.5t12.5 -32.5t-13 -32.5t-32 -12.5t-32 13z" />
    <glyph glyph-name="uni0327" 
d="M-120 -43q44 -2 67 -23t23 -53q0 -38 -27.5 -59.5t-83.5 -21.5q-29 0 -53 8v41q22 -6 45 -6q71 0 71 38t-63 38q-18 0 -38 -4l41 100h45z" />
    <glyph glyph-name="Wgrave" unicode="&#x1e80;" horiz-adv-x="864" 
d="M619 141l163 559h70l-210 -700h-51l-160 549l-158 -549h-51l-210 700h73l163 -559l159 559h50zM470 755h-54l-95 128h78z" />
    <glyph glyph-name="wgrave" unicode="&#x1e81;" horiz-adv-x="678" 
d="M481 117l123 383h67l-167 -500h-47l-119 381l-117 -381h-47l-167 500h70l121 -383l119 383h45zM376 560h-51l-91 134h75z" />
    <glyph glyph-name="Wacute" unicode="&#x1e82;" horiz-adv-x="864" 
d="M619 141l163 559h70l-210 -700h-51l-160 549l-158 -549h-51l-210 700h73l163 -559l159 559h50zM448 755h-54l70 128h78z" />
    <glyph glyph-name="wacute" unicode="&#x1e83;" horiz-adv-x="678" 
d="M481 117l123 383h67l-167 -500h-47l-119 381l-117 -381h-47l-167 500h70l121 -383l119 383h45zM355 560h-51l66 134h75z" />
    <glyph glyph-name="Wdieresis" unicode="&#x1e84;" horiz-adv-x="864" 
d="M619 141l163 559h70l-210 -700h-51l-160 549l-158 -549h-51l-210 700h73l163 -559l159 559h50zM317 788.5q-13 12.5 -13 30.5t13 30.5t30 12.5q18 0 30.5 -12.5t12.5 -30.5t-12.5 -30.5t-30.5 -12.5q-17 0 -30 12.5zM487 788.5q-13 12.5 -13 30.5t13 30.5t30 12.5
t30 -12.5t13 -30.5t-13 -30.5t-30 -12.5t-30 12.5z" />
    <glyph glyph-name="wdieresis" unicode="&#x1e85;" horiz-adv-x="678" 
d="M481 117l123 383h67l-167 -500h-47l-119 381l-117 -381h-47l-167 500h70l121 -383l119 383h45zM230 594.5q-13 12.5 -13 30.5t12.5 30.5t30.5 12.5t30.5 -12t12.5 -31q0 -18 -12.5 -30.5t-30.5 -12.5q-17 0 -30 12.5zM389.5 594.5q-12.5 12.5 -12.5 30.5q0 19 12.5 31
t30.5 12t30.5 -12.5t12.5 -30.5t-13 -30.5t-30 -12.5q-18 0 -30.5 12.5z" />
    <glyph glyph-name="uni1E9E" unicode="&#x1e9e;" horiz-adv-x="650" 
d="M401 398q56 0 103 -27t74.5 -72.5t27.5 -99.5q0 -56 -26.5 -101.5t-73.5 -71.5t-105 -26h-112v65h112q60 0 97.5 37t37.5 97q0 58 -39 96t-96 38h-103v66l171 236h-186q-34 0 -64 -18t-47.5 -48.5t-17.5 -68.5v-500h-70v500q0 57 26 102.5t71.5 71.5t101.5 26h274v-55
l-182 -247h26z" />
    <glyph glyph-name="uni1EA0" unicode="&#x1ea0;" horiz-adv-x="607" 
d="M602 0h-75l-67 178h-316l-67 -178h-72l266 700h65zM436 243l-134 357l-134 -357h268zM272 -157q-13 13 -13 32q0 20 13 32.5t32 12.5q20 0 32.5 -12.5t12.5 -32.5t-13 -32.5t-32 -12.5t-32 13z" />
    <glyph glyph-name="uni1EA1" unicode="&#x1ea1;" horiz-adv-x="497" 
d="M340 486.5q42 -23.5 66 -65.5t24 -96v-325h-48l-17 68h-5q-19 -30 -58.5 -54t-95.5 -24q-50 0 -87.5 20.5t-58 54.5t-20.5 75q0 45 27.5 80.5t77 55.5t113.5 20h107v29q0 56 -33 90t-87 34q-51 0 -80.5 -26t-37.5 -68h-65q5 42 29.5 77.5t64.5 56.5t89 21q53 0 95 -23.5z
M323.5 91.5q41.5 40.5 41.5 102.5v43h-97q-77 0 -120 -25.5t-43 -71.5q0 -40 28 -64.5t80 -24.5q69 0 110.5 40.5zM218 -157q-13 13 -13 32q0 20 13 32.5t32 12.5q20 0 32.5 -12.5t12.5 -32.5t-13 -32.5t-32 -12.5t-32 13z" />
    <glyph glyph-name="uni1EA2" unicode="&#x1ea2;" horiz-adv-x="607" 
d="M602 0h-75l-67 178h-316l-67 -178h-72l266 700h65zM436 243l-134 357l-134 -357h268zM288 752q22 31 22 61q0 21 -13.5 34t-36.5 13q-17 0 -32 -4v50q19 6 47 6q41 0 66 -22t25 -59q0 -45 -28 -79h-50z" />
    <glyph glyph-name="uni1EA3" unicode="&#x1ea3;" horiz-adv-x="497" 
d="M340 486.5q42 -23.5 66 -65.5t24 -96v-325h-48l-17 68h-5q-19 -30 -58.5 -54t-95.5 -24q-50 0 -87.5 20.5t-58 54.5t-20.5 75q0 45 27.5 80.5t77 55.5t113.5 20h107v29q0 56 -33 90t-87 34q-51 0 -80.5 -26t-37.5 -68h-65q5 42 29.5 77.5t64.5 56.5t89 21q53 0 95 -23.5z
M323.5 91.5q41.5 40.5 41.5 102.5v43h-97q-77 0 -120 -25.5t-43 -71.5q0 -40 28 -64.5t80 -24.5q69 0 110.5 40.5zM227 557q23 33 23 62q0 54 -52 54q-13 0 -28 -4v48q20 6 42 6q43 0 67 -23t24 -64q0 -25 -7.5 -42.5t-20.5 -36.5h-48z" />
    <glyph glyph-name="uni1EA4" unicode="&#x1ea4;" horiz-adv-x="607" 
d="M602 0h-75l-67 178h-316l-67 -178h-72l266 700h65zM436 243l-134 357l-134 -357h268zM402 830l56 113h73l-79 -113h-50zM168 745l105 128h63l104 -128h-68l-69 85l-68 -85h-67z" />
    <glyph glyph-name="uni1EA5" unicode="&#x1ea5;" horiz-adv-x="497" 
d="M340 486.5q42 -23.5 66 -65.5t24 -96v-325h-48l-17 68h-5q-19 -30 -58.5 -54t-95.5 -24q-50 0 -87.5 20.5t-58 54.5t-20.5 75q0 45 27.5 80.5t77 55.5t113.5 20h107v29q0 56 -33 90t-87 34q-51 0 -80.5 -26t-37.5 -68h-65q5 42 29.5 77.5t64.5 56.5t89 21q53 0 95 -23.5z
M323.5 91.5q41.5 40.5 41.5 102.5v43h-97q-77 0 -120 -25.5t-43 -71.5q0 -40 28 -64.5t80 -24.5q69 0 110.5 40.5zM343 635l61 125h75l-85 -125h-51zM115 550l102 134h60l102 -134h-68l-65 91l-65 -91h-66z" />
    <glyph glyph-name="uni1EA6" unicode="&#x1ea6;" horiz-adv-x="607" 
d="M602 0h-75l-67 178h-316l-67 -178h-72l266 700h65zM436 243l-134 357l-134 -357h268zM424 943l56 -113h-50l-79 113h73zM168 745l105 128h63l104 -128h-68l-69 85l-68 -85h-67z" />
    <glyph glyph-name="uni1EA7" unicode="&#x1ea7;" horiz-adv-x="497" 
d="M340 486.5q42 -23.5 66 -65.5t24 -96v-325h-48l-17 68h-5q-19 -30 -58.5 -54t-95.5 -24q-50 0 -87.5 20.5t-58 54.5t-20.5 75q0 45 27.5 80.5t77 55.5t113.5 20h107v29q0 56 -33 90t-87 34q-51 0 -80.5 -26t-37.5 -68h-65q5 42 29.5 77.5t64.5 56.5t89 21q53 0 95 -23.5z
M323.5 91.5q41.5 40.5 41.5 102.5v43h-97q-77 0 -120 -25.5t-43 -71.5q0 -40 28 -64.5t80 -24.5q69 0 110.5 40.5zM359 760l61 -125h-51l-85 125h75zM115 550l102 134h60l102 -134h-68l-65 91l-65 -91h-66z" />
    <glyph glyph-name="uni1EA8" unicode="&#x1ea8;" horiz-adv-x="607" 
d="M602 0h-75l-67 178h-316l-67 -178h-72l266 700h65zM436 243l-134 357l-134 -357h268zM461 955q23 -20 23 -54q0 -20 -8 -38.5t-21 -32.5h-50q23 31 23 53q0 18 -11 29t-32 11q-16 0 -31 -4v50q24 6 47 6q37 0 60 -20zM168 745l105 128h63l104 -128h-68l-69 85l-68 -85
h-67z" />
    <glyph glyph-name="uni1EA9" unicode="&#x1ea9;" horiz-adv-x="497" 
d="M340 486.5q42 -23.5 66 -65.5t24 -96v-325h-48l-17 68h-5q-19 -30 -58.5 -54t-95.5 -24q-50 0 -87.5 20.5t-58 54.5t-20.5 75q0 45 27.5 80.5t77 55.5t113.5 20h107v29q0 56 -33 90t-87 34q-51 0 -80.5 -26t-37.5 -68h-65q5 42 29.5 77.5t64.5 56.5t89 21q53 0 95 -23.5z
M323.5 91.5q41.5 40.5 41.5 102.5v43h-97q-77 0 -120 -25.5t-43 -71.5q0 -40 28 -64.5t80 -24.5q69 0 110.5 40.5zM395 759.5q23 -21.5 23 -53.5q0 -20 -6.5 -36t-19.5 -35h-48q21 31 21 54q0 19 -12.5 30.5t-31.5 11.5q-13 0 -28 -4v48q20 6 42 6q37 0 60 -21.5zM115 550
l102 134h60l102 -134h-68l-65 91l-65 -91h-66z" />
    <glyph glyph-name="uni1EAA" unicode="&#x1eaa;" horiz-adv-x="607" 
d="M602 0h-75l-67 178h-316l-67 -178h-72l266 700h65zM436 243l-134 357l-134 -357h268zM227.5 938.5q-10.5 -14.5 -10.5 -38.5h-50q0 51 24.5 78.5t58.5 27.5q21 0 36 -9.5t31 -26.5q10 -11 18 -17t17 -6q14 0 24.5 14.5t10.5 38.5h50q0 -51 -25 -78.5t-58 -27.5
q-21 0 -36 9.5t-31 26.5q-10 11 -18 17t-17 6q-14 0 -24.5 -14.5zM335 873l104 -128h-68l-69 85l-68 -85h-67l105 128h63z" />
    <glyph glyph-name="uni1EAB" unicode="&#x1eab;" horiz-adv-x="497" 
d="M340 486.5q42 -23.5 66 -65.5t24 -96v-325h-48l-17 68h-5q-19 -30 -58.5 -54t-95.5 -24q-50 0 -87.5 20.5t-58 54.5t-20.5 75q0 45 27.5 80.5t77 55.5t113.5 20h107v29q0 56 -33 90t-87 34q-51 0 -80.5 -26t-37.5 -68h-65q5 42 29.5 77.5t64.5 56.5t89 21q53 0 95 -23.5z
M323.5 91.5q41.5 40.5 41.5 102.5v43h-97q-77 0 -120 -25.5t-43 -71.5q0 -40 28 -64.5t80 -24.5q69 0 110.5 40.5zM169.5 751q-10.5 -15 -10.5 -39h-50q0 51 24.5 79t58.5 28q21 0 35.5 -9.5t31.5 -27.5q10 -11 18 -17t17 -6q14 0 24.5 15t10.5 39h50q0 -52 -25 -79.5
t-58 -27.5q-21 0 -35.5 9.5t-31.5 27.5q-10 11 -18 17t-17 6q-14 0 -24.5 -15zM115 550l102 134h60l102 -134h-68l-65 91l-65 -91h-66z" />
    <glyph glyph-name="uni1EAC" unicode="&#x1eac;" horiz-adv-x="607" 
d="M602 0h-75l-67 178h-316l-67 -178h-72l266 700h65zM436 243l-134 357l-134 -357h268zM272 -157q-13 13 -13 32q0 20 13 32.5t32 12.5q20 0 32.5 -12.5t12.5 -32.5t-13 -32.5t-32 -12.5t-32 13zM336 883l104 -128h-68l-69 85l-68 -85h-67l105 128h63z" />
    <glyph glyph-name="uni1EAD" unicode="&#x1ead;" horiz-adv-x="497" 
d="M340 486.5q42 -23.5 66 -65.5t24 -96v-325h-48l-17 68h-5q-19 -30 -58.5 -54t-95.5 -24q-50 0 -87.5 20.5t-58 54.5t-20.5 75q0 45 27.5 80.5t77 55.5t113.5 20h107v29q0 56 -33 90t-87 34q-51 0 -80.5 -26t-37.5 -68h-65q5 42 29.5 77.5t64.5 56.5t89 21q53 0 95 -23.5z
M323.5 91.5q41.5 40.5 41.5 102.5v43h-97q-77 0 -120 -25.5t-43 -71.5q0 -40 28 -64.5t80 -24.5q69 0 110.5 40.5zM218 -157q-13 13 -13 32q0 20 13 32.5t32 12.5q20 0 32.5 -12.5t12.5 -32.5t-13 -32.5t-32 -12.5t-32 13zM277 694l102 -134h-68l-65 91l-65 -91h-66l102 134
h60z" />
    <glyph glyph-name="uni1EAE" unicode="&#x1eae;" horiz-adv-x="607" 
d="M602 0h-75l-67 178h-316l-67 -178h-72l266 700h65zM436 243l-134 357l-134 -357h268zM327 869h-50l56 113h73zM209 785q-36 35 -38 84h54q4 -33 24 -51.5t55 -18.5t55 18.5t24 51.5h54q-2 -49 -38 -84t-95 -35t-95 35z" />
    <glyph glyph-name="uni1EAF" unicode="&#x1eaf;" horiz-adv-x="497" 
d="M340 486.5q42 -23.5 66 -65.5t24 -96v-325h-48l-17 68h-5q-19 -30 -58.5 -54t-95.5 -24q-50 0 -87.5 20.5t-58 54.5t-20.5 75q0 45 27.5 80.5t77 55.5t113.5 20h107v29q0 56 -33 90t-87 34q-51 0 -80.5 -26t-37.5 -68h-65q5 42 29.5 77.5t64.5 56.5t89 21q53 0 95 -23.5z
M323.5 91.5q41.5 40.5 41.5 102.5v43h-97q-77 0 -120 -25.5t-43 -71.5q0 -40 28 -64.5t80 -24.5q69 0 110.5 40.5zM270 678h-51l61 125h75zM153.5 591.5q-35.5 35.5 -37.5 86.5h54q4 -35 23.5 -54t53.5 -19t53.5 19t23.5 54h54q-2 -51 -37.5 -86.5t-93.5 -35.5t-93.5 35.5z
" />
    <glyph glyph-name="uni1EB0" unicode="&#x1eb0;" horiz-adv-x="607" 
d="M602 0h-75l-67 178h-316l-67 -178h-72l266 700h65zM436 243l-134 357l-134 -357h268zM331 869h-50l-79 113h73zM209 785q-36 35 -38 84h54q4 -33 24 -51.5t55 -18.5t55 18.5t24 51.5h54q-2 -49 -38 -84t-95 -35t-95 35z" />
    <glyph glyph-name="uni1EB1" unicode="&#x1eb1;" horiz-adv-x="497" 
d="M340 486.5q42 -23.5 66 -65.5t24 -96v-325h-48l-17 68h-5q-19 -30 -58.5 -54t-95.5 -24q-50 0 -87.5 20.5t-58 54.5t-20.5 75q0 45 27.5 80.5t77 55.5t113.5 20h107v29q0 56 -33 90t-87 34q-51 0 -80.5 -26t-37.5 -68h-65q5 42 29.5 77.5t64.5 56.5t89 21q53 0 95 -23.5z
M323.5 91.5q41.5 40.5 41.5 102.5v43h-97q-77 0 -120 -25.5t-43 -71.5q0 -40 28 -64.5t80 -24.5q69 0 110.5 40.5zM275 678h-51l-85 125h75zM153.5 591.5q-35.5 35.5 -37.5 86.5h54q4 -35 23.5 -54t53.5 -19t53.5 19t23.5 54h54q-2 -51 -37.5 -86.5t-93.5 -35.5t-93.5 35.5z
" />
    <glyph glyph-name="uni1EB2" unicode="&#x1eb2;" horiz-adv-x="607" 
d="M602 0h-75l-67 178h-316l-67 -178h-72l266 700h65zM436 243l-134 357l-134 -357h268zM279 869q23 31 23 53q0 18 -11 29t-32 11q-16 0 -31 -4v50q24 6 47 6q37 0 60 -20t23 -54q0 -20 -8 -38.5t-21 -32.5h-50zM209 785q-36 35 -38 84h54q4 -33 24 -51.5t55 -18.5t55 18.5
t24 51.5h54q-2 -49 -38 -84t-95 -35t-95 35z" />
    <glyph glyph-name="uni1EB3" unicode="&#x1eb3;" horiz-adv-x="497" 
d="M340 486.5q42 -23.5 66 -65.5t24 -96v-325h-48l-17 68h-5q-19 -30 -58.5 -54t-95.5 -24q-50 0 -87.5 20.5t-58 54.5t-20.5 75q0 45 27.5 80.5t77 55.5t113.5 20h107v29q0 56 -33 90t-87 34q-51 0 -80.5 -26t-37.5 -68h-65q5 42 29.5 77.5t64.5 56.5t89 21q53 0 95 -23.5z
M323.5 91.5q41.5 40.5 41.5 102.5v43h-97q-77 0 -120 -25.5t-43 -71.5q0 -40 28 -64.5t80 -24.5q69 0 110.5 40.5zM223 678q21 31 21 54t-12.5 35t-31.5 12q-13 0 -28 -4v48q20 6 42 6q37 0 60 -22t23 -58q0 -20 -6.5 -36t-19.5 -35h-48zM153.5 591.5q-35.5 35.5 -37.5 86.5
h54q4 -35 23.5 -54t53.5 -19t53.5 19t23.5 54h54q-2 -51 -37.5 -86.5t-93.5 -35.5t-93.5 35.5z" />
    <glyph glyph-name="uni1EB4" unicode="&#x1eb4;" horiz-adv-x="607" 
d="M602 0h-75l-67 178h-316l-67 -178h-72l266 700h65zM436 243l-134 357l-134 -357h268zM320 899.5q-15 9.5 -31 26.5q-10 11 -18 17t-17 6q-14 0 -24.5 -14.5t-10.5 -38.5h-50q0 51 24.5 78.5t58.5 27.5q21 0 36 -9.5t31 -26.5q10 -11 18 -17t17 -6q14 0 24.5 14.5
t10.5 38.5h50q0 -51 -25 -78.5t-58 -27.5q-21 0 -36 9.5zM209 785q-36 35 -38 84h54q4 -33 24 -51.5t55 -18.5t55 18.5t24 51.5h54q-2 -49 -38 -84t-95 -35t-95 35z" />
    <glyph glyph-name="uni1EB5" unicode="&#x1eb5;" horiz-adv-x="497" 
d="M340 486.5q42 -23.5 66 -65.5t24 -96v-325h-48l-17 68h-5q-19 -30 -58.5 -54t-95.5 -24q-50 0 -87.5 20.5t-58 54.5t-20.5 75q0 45 27.5 80.5t77 55.5t113.5 20h107v29q0 56 -33 90t-87 34q-51 0 -80.5 -26t-37.5 -68h-65q5 42 29.5 77.5t64.5 56.5t89 21q53 0 95 -23.5z
M323.5 91.5q41.5 40.5 41.5 102.5v43h-97q-77 0 -120 -25.5t-43 -71.5q0 -40 28 -64.5t80 -24.5q69 0 110.5 40.5zM266.5 704.5q-14.5 9.5 -31.5 27.5q-10 11 -18 17t-17 6q-14 0 -24.5 -15t-10.5 -39h-50q0 51 24.5 79t58.5 28q21 0 35.5 -9.5t31.5 -27.5q10 -11 18 -17
t17 -6q14 0 24.5 15t10.5 39h50q0 -52 -25 -79.5t-58 -27.5q-21 0 -35.5 9.5zM152.5 591.5q-35.5 35.5 -37.5 86.5h54q4 -35 23.5 -54t53.5 -19t53.5 19t23.5 54h54q-2 -51 -37.5 -86.5t-93.5 -35.5t-93.5 35.5z" />
    <glyph glyph-name="uni1EB6" unicode="&#x1eb6;" horiz-adv-x="607" 
d="M602 0h-75l-67 178h-316l-67 -178h-72l266 700h65zM436 243l-134 357l-134 -357h268zM272 -157q-13 13 -13 32q0 20 13 32.5t32 12.5q20 0 32.5 -12.5t12.5 -32.5t-13 -32.5t-32 -12.5t-32 13zM209 795q-36 35 -38 84h54q4 -33 24 -51.5t55 -18.5t55 18.5t24 51.5h54
q-2 -49 -38 -84t-95 -35t-95 35z" />
    <glyph glyph-name="uni1EB7" unicode="&#x1eb7;" horiz-adv-x="497" 
d="M340 486.5q42 -23.5 66 -65.5t24 -96v-325h-48l-17 68h-5q-19 -30 -58.5 -54t-95.5 -24q-50 0 -87.5 20.5t-58 54.5t-20.5 75q0 45 27.5 80.5t77 55.5t113.5 20h107v29q0 56 -33 90t-87 34q-51 0 -80.5 -26t-37.5 -68h-65q5 42 29.5 77.5t64.5 56.5t89 21q53 0 95 -23.5z
M323.5 91.5q41.5 40.5 41.5 102.5v43h-97q-77 0 -120 -25.5t-43 -71.5q0 -40 28 -64.5t80 -24.5q69 0 110.5 40.5zM218 -157q-13 13 -13 32q0 20 13 32.5t32 12.5q20 0 32.5 -12.5t12.5 -32.5t-13 -32.5t-32 -12.5t-32 13zM153.5 601.5q-35.5 35.5 -37.5 86.5h54
q4 -35 23.5 -54t53.5 -19t53.5 19t23.5 54h54q-2 -51 -37.5 -86.5t-93.5 -35.5t-93.5 35.5z" />
    <glyph glyph-name="uni1EB8" unicode="&#x1eb8;" horiz-adv-x="577" 
d="M159 328v-263h373v-65h-443v700h433v-65h-363v-242h325v-65h-325zM279 -157q-13 13 -13 32q0 20 13 32.5t32 12.5q20 0 32.5 -12.5t12.5 -32.5t-13 -32.5t-32 -12.5t-32 13z" />
    <glyph glyph-name="uni1EB9" unicode="&#x1eb9;" horiz-adv-x="537" 
d="M494 218h-388q8 -77 54.5 -122t115.5 -45q92 0 139 79h65q-23 -61 -79 -100.5t-127 -39.5q-66 0 -119.5 33t-84.5 92t-31 135q0 74 31.5 133.5t85.5 93t118 33.5q63 0 114.5 -32.5t80.5 -88.5t29 -124q0 -31 -4 -47zM195.5 427.5q-36.5 -21.5 -61 -61t-29.5 -89.5h327
q-5 75 -49 123.5t-109 48.5q-42 0 -78.5 -21.5zM241 -157q-13 13 -13 32q0 20 13 32.5t32 12.5q20 0 32.5 -12.5t12.5 -32.5t-13 -32.5t-32 -12.5t-32 13z" />
    <glyph glyph-name="uni1EBA" unicode="&#x1eba;" horiz-adv-x="577" 
d="M159 328v-263h373v-65h-443v700h433v-65h-363v-242h325v-65h-325zM290 752q22 31 22 61q0 21 -13.5 34t-36.5 13q-17 0 -32 -4v50q19 6 47 6q41 0 66 -22t25 -59q0 -45 -28 -79h-50z" />
    <glyph glyph-name="uni1EBB" unicode="&#x1ebb;" horiz-adv-x="537" 
d="M494 218h-388q8 -77 54.5 -122t115.5 -45q92 0 139 79h65q-23 -61 -79 -100.5t-127 -39.5q-66 0 -119.5 33t-84.5 92t-31 135q0 74 31.5 133.5t85.5 93t118 33.5q63 0 114.5 -32.5t80.5 -88.5t29 -124q0 -31 -4 -47zM195.5 427.5q-36.5 -21.5 -61 -61t-29.5 -89.5h327
q-5 75 -49 123.5t-109 48.5q-42 0 -78.5 -21.5zM252 557q23 33 23 62q0 54 -52 54q-13 0 -28 -4v48q20 6 42 6q43 0 67 -23t24 -64q0 -25 -7.5 -42.5t-20.5 -36.5h-48z" />
    <glyph glyph-name="uni1EBC" unicode="&#x1ebc;" horiz-adv-x="577" 
d="M159 328v-263h373v-65h-443v700h433v-65h-363v-242h325v-65h-325zM325 772q-16 10 -34 28q-14 13 -22.5 19t-18.5 6q-17 0 -28 -15t-11 -42h-50q0 53 25.5 81.5t61.5 28.5q23 0 39 -10t34 -28q14 -13 22.5 -19t18.5 -6q17 0 28 15t11 42h50q0 -53 -26 -81.5t-61 -28.5
q-23 0 -39 10z" />
    <glyph glyph-name="uni1EBD" unicode="&#x1ebd;" horiz-adv-x="537" 
d="M494 218h-388q8 -77 54.5 -122t115.5 -45q92 0 139 79h65q-23 -61 -79 -100.5t-127 -39.5q-66 0 -119.5 33t-84.5 92t-31 135q0 74 31.5 133.5t85.5 93t118 33.5q63 0 114.5 -32.5t80.5 -88.5t29 -124q0 -31 -4 -47zM195.5 427.5q-36.5 -21.5 -61 -61t-29.5 -89.5h327
q-5 75 -49 123.5t-109 48.5q-42 0 -78.5 -21.5zM290.5 577q-15.5 11 -33.5 31q-13 14 -21.5 20.5t-18.5 6.5q-16 0 -26.5 -16t-10.5 -47h-50q0 58 24.5 87t60.5 29q23 0 38.5 -11t33.5 -31q13 -14 21.5 -20.5t18.5 -6.5q15 0 26 16.5t11 46.5h50q0 -58 -24.5 -87t-60.5 -29
q-23 0 -38.5 11z" />
    <glyph glyph-name="uni1EBE" unicode="&#x1ebe;" horiz-adv-x="577" 
d="M159 328v-263h373v-65h-443v700h433v-65h-363v-242h325v-65h-325zM404 830l56 113h73l-79 -113h-50zM170 745l105 128h63l104 -128h-68l-69 85l-68 -85h-67z" />
    <glyph glyph-name="uni1EBF" unicode="&#x1ebf;" horiz-adv-x="537" 
d="M494 218h-388q8 -77 54.5 -122t115.5 -45q92 0 139 79h65q-23 -61 -79 -100.5t-127 -39.5q-66 0 -119.5 33t-84.5 92t-31 135q0 74 31.5 133.5t85.5 93t118 33.5q63 0 114.5 -32.5t80.5 -88.5t29 -124q0 -31 -4 -47zM195.5 427.5q-36.5 -21.5 -61 -61t-29.5 -89.5h327
q-5 75 -49 123.5t-109 48.5q-42 0 -78.5 -21.5zM368 635l61 125h75l-85 -125h-51zM140 550l102 134h60l102 -134h-68l-65 91l-65 -91h-66z" />
    <glyph glyph-name="uni1EC0" unicode="&#x1ec0;" horiz-adv-x="577" 
d="M159 328v-263h373v-65h-443v700h433v-65h-363v-242h325v-65h-325zM426 943l56 -113h-50l-79 113h73zM170 745l105 128h63l104 -128h-68l-69 85l-68 -85h-67z" />
    <glyph glyph-name="uni1EC1" unicode="&#x1ec1;" horiz-adv-x="537" 
d="M494 218h-388q8 -77 54.5 -122t115.5 -45q92 0 139 79h65q-23 -61 -79 -100.5t-127 -39.5q-66 0 -119.5 33t-84.5 92t-31 135q0 74 31.5 133.5t85.5 93t118 33.5q63 0 114.5 -32.5t80.5 -88.5t29 -124q0 -31 -4 -47zM195.5 427.5q-36.5 -21.5 -61 -61t-29.5 -89.5h327
q-5 75 -49 123.5t-109 48.5q-42 0 -78.5 -21.5zM384 760l61 -125h-51l-85 125h75zM140 550l102 134h60l102 -134h-68l-65 91l-65 -91h-66z" />
    <glyph glyph-name="uni1EC2" unicode="&#x1ec2;" horiz-adv-x="577" 
d="M159 328v-263h373v-65h-443v700h433v-65h-363v-242h325v-65h-325zM463 955q23 -20 23 -54q0 -20 -8 -38.5t-21 -32.5h-50q23 31 23 53q0 18 -11 29t-32 11q-16 0 -31 -4v50q24 6 47 6q37 0 60 -20zM170 745l105 128h63l104 -128h-68l-69 85l-68 -85h-67z" />
    <glyph glyph-name="uni1EC3" unicode="&#x1ec3;" horiz-adv-x="537" 
d="M494 218h-388q8 -77 54.5 -122t115.5 -45q92 0 139 79h65q-23 -61 -79 -100.5t-127 -39.5q-66 0 -119.5 33t-84.5 92t-31 135q0 74 31.5 133.5t85.5 93t118 33.5q63 0 114.5 -32.5t80.5 -88.5t29 -124q0 -31 -4 -47zM195.5 427.5q-36.5 -21.5 -61 -61t-29.5 -89.5h327
q-5 75 -49 123.5t-109 48.5q-42 0 -78.5 -21.5zM420 759.5q23 -21.5 23 -53.5q0 -20 -6.5 -36t-19.5 -35h-48q21 31 21 54q0 19 -12.5 30.5t-31.5 11.5q-13 0 -28 -4v48q20 6 42 6q37 0 60 -21.5zM140 550l102 134h60l102 -134h-68l-65 91l-65 -91h-66z" />
    <glyph glyph-name="uni1EC4" unicode="&#x1ec4;" horiz-adv-x="577" 
d="M159 328v-263h373v-65h-443v700h433v-65h-363v-242h325v-65h-325zM229.5 938.5q-10.5 -14.5 -10.5 -38.5h-50q0 51 24.5 78.5t58.5 27.5q21 0 36 -9.5t31 -26.5q10 -11 18 -17t17 -6q14 0 24.5 14.5t10.5 38.5h50q0 -51 -25 -78.5t-58 -27.5q-21 0 -36 9.5t-31 26.5
q-10 11 -18 17t-17 6q-14 0 -24.5 -14.5zM337 873l104 -128h-68l-69 85l-68 -85h-67l105 128h63z" />
    <glyph glyph-name="uni1EC5" unicode="&#x1ec5;" horiz-adv-x="537" 
d="M494 218h-388q8 -77 54.5 -122t115.5 -45q92 0 139 79h65q-23 -61 -79 -100.5t-127 -39.5q-66 0 -119.5 33t-84.5 92t-31 135q0 74 31.5 133.5t85.5 93t118 33.5q63 0 114.5 -32.5t80.5 -88.5t29 -124q0 -31 -4 -47zM195.5 427.5q-36.5 -21.5 -61 -61t-29.5 -89.5h327
q-5 75 -49 123.5t-109 48.5q-42 0 -78.5 -21.5zM194.5 751q-10.5 -15 -10.5 -39h-50q0 51 24.5 79t58.5 28q21 0 35.5 -9.5t31.5 -27.5q10 -11 18 -17t17 -6q14 0 24.5 15t10.5 39h50q0 -52 -25 -79.5t-58 -27.5q-21 0 -35.5 9.5t-31.5 27.5q-10 11 -18 17t-17 6
q-14 0 -24.5 -15zM140 550l102 134h60l102 -134h-68l-65 91l-65 -91h-66z" />
    <glyph glyph-name="uni1EC6" unicode="&#x1ec6;" horiz-adv-x="577" 
d="M159 328v-263h373v-65h-443v700h433v-65h-363v-242h325v-65h-325zM279 -157q-13 13 -13 32q0 20 13 32.5t32 12.5q20 0 32.5 -12.5t12.5 -32.5t-13 -32.5t-32 -12.5t-32 13zM338 883l104 -128h-68l-69 85l-68 -85h-67l105 128h63z" />
    <glyph glyph-name="uni1EC7" unicode="&#x1ec7;" horiz-adv-x="537" 
d="M494 218h-388q8 -77 54.5 -122t115.5 -45q92 0 139 79h65q-23 -61 -79 -100.5t-127 -39.5q-66 0 -119.5 33t-84.5 92t-31 135q0 74 31.5 133.5t85.5 93t118 33.5q63 0 114.5 -32.5t80.5 -88.5t29 -124q0 -31 -4 -47zM195.5 427.5q-36.5 -21.5 -61 -61t-29.5 -89.5h327
q-5 75 -49 123.5t-109 48.5q-42 0 -78.5 -21.5zM241 -157q-13 13 -13 32q0 20 13 32.5t32 12.5q20 0 32.5 -12.5t12.5 -32.5t-13 -32.5t-32 -12.5t-32 13zM302 694l102 -134h-68l-65 91l-65 -91h-66l102 134h60z" />
    <glyph glyph-name="uni1EC8" unicode="&#x1ec8;" horiz-adv-x="248" 
d="M159 0h-70v700h70v-700zM108 752q22 31 22 61q0 21 -13.5 34t-36.5 13q-17 0 -32 -4v50q19 6 47 6q41 0 66 -22t25 -59q0 -45 -28 -79h-50z" />
    <glyph glyph-name="uni1EC9" unicode="&#x1ec9;" horiz-adv-x="209" 
d="M137 0h-65v500h65v-500zM85 557q23 33 23 62q0 54 -52 54q-13 0 -28 -4v48q20 6 42 6q43 0 67 -23t24 -64q0 -25 -7.5 -42.5t-20.5 -36.5h-48z" />
    <glyph glyph-name="uni1ECA" unicode="&#x1eca;" horiz-adv-x="248" 
d="M159 0h-70v700h70v-700zM92 -157q-13 13 -13 32q0 20 13 32.5t32 12.5q20 0 32.5 -12.5t12.5 -32.5t-13 -32.5t-32 -12.5t-32 13z" />
    <glyph glyph-name="uni1ECB" unicode="&#x1ecb;" horiz-adv-x="209" 
d="M137 0h-65v500h65v-500zM73 593q-13 13 -13 32q0 20 13 32.5t32 12.5q20 0 32.5 -12.5t12.5 -32.5q0 -19 -13 -32t-32 -13t-32 13zM73 -157q-13 13 -13 32q0 20 13 32.5t32 12.5q20 0 32.5 -12.5t12.5 -32.5t-13 -32.5t-32 -12.5t-32 13z" />
    <glyph glyph-name="uni1ECC" unicode="&#x1ecc;" horiz-adv-x="737" 
d="M207.5 37q-74.5 47 -119 129.5t-44.5 183.5t44.5 183.5t119 129.5t160.5 47t161 -47t119.5 -129.5t44.5 -183.5t-44.5 -183.5t-119.5 -129.5t-161 -47t-160.5 47zM494.5 92.5q58.5 37.5 93.5 105t35 152.5t-35 152.5t-93.5 105t-126.5 37.5q-67 0 -125.5 -37.5
t-93.5 -105t-35 -152.5t35 -152.5t93.5 -105t125.5 -37.5q68 0 126.5 37.5zM336 -157q-13 13 -13 32q0 20 13 32.5t32 12.5q20 0 32.5 -12.5t12.5 -32.5t-13 -32.5t-32 -12.5t-32 13z" />
    <glyph glyph-name="uni1ECD" unicode="&#x1ecd;" horiz-adv-x="548" 
d="M156 23.5q-54 33.5 -85.5 93t-31.5 133.5t31.5 133.5t85.5 93t118 33.5t118 -33.5t85.5 -93t31.5 -133.5t-31.5 -133.5t-85.5 -93t-118 -33.5t-118 33.5zM359 76q39 25 62 70.5t23 103.5t-23 103.5t-62 70.5t-85 25t-85 -25t-62 -70.5t-23 -103.5t23 -103.5t62 -70.5
t85 -25t85 25zM242 -157q-13 13 -13 32q0 20 13 32.5t32 12.5q20 0 32.5 -12.5t12.5 -32.5t-13 -32.5t-32 -12.5t-32 13z" />
    <glyph glyph-name="uni1ECE" unicode="&#x1ece;" horiz-adv-x="737" 
d="M207.5 37q-74.5 47 -119 129.5t-44.5 183.5t44.5 183.5t119 129.5t160.5 47t161 -47t119.5 -129.5t44.5 -183.5t-44.5 -183.5t-119.5 -129.5t-161 -47t-160.5 47zM494.5 92.5q58.5 37.5 93.5 105t35 152.5t-35 152.5t-93.5 105t-126.5 37.5q-67 0 -125.5 -37.5
t-93.5 -105t-35 -152.5t35 -152.5t93.5 -105t125.5 -37.5q68 0 126.5 37.5zM352 752q22 31 22 61q0 21 -13.5 34t-36.5 13q-17 0 -32 -4v50q19 6 47 6q41 0 66 -22t25 -59q0 -45 -28 -79h-50z" />
    <glyph glyph-name="uni1ECF" unicode="&#x1ecf;" horiz-adv-x="548" 
d="M156 23.5q-54 33.5 -85.5 93t-31.5 133.5t31.5 133.5t85.5 93t118 33.5t118 -33.5t85.5 -93t31.5 -133.5t-31.5 -133.5t-85.5 -93t-118 -33.5t-118 33.5zM359 76q39 25 62 70.5t23 103.5t-23 103.5t-62 70.5t-85 25t-85 -25t-62 -70.5t-23 -103.5t23 -103.5t62 -70.5
t85 -25t85 25zM254 557q23 33 23 62q0 54 -52 54q-13 0 -28 -4v48q20 6 42 6q43 0 67 -23t24 -64q0 -25 -7.5 -42.5t-20.5 -36.5h-48z" />
    <glyph glyph-name="uni1ED0" unicode="&#x1ed0;" horiz-adv-x="737" 
d="M207.5 37q-74.5 47 -119 129.5t-44.5 183.5t44.5 183.5t119 129.5t160.5 47t161 -47t119.5 -129.5t44.5 -183.5t-44.5 -183.5t-119.5 -129.5t-161 -47t-160.5 47zM494.5 92.5q58.5 37.5 93.5 105t35 152.5t-35 152.5t-93.5 105t-126.5 37.5q-67 0 -125.5 -37.5
t-93.5 -105t-35 -152.5t35 -152.5t93.5 -105t125.5 -37.5q68 0 126.5 37.5zM466 830l56 113h73l-79 -113h-50zM232 745l105 128h63l104 -128h-68l-69 85l-68 -85h-67z" />
    <glyph glyph-name="uni1ED1" unicode="&#x1ed1;" horiz-adv-x="548" 
d="M156 23.5q-54 33.5 -85.5 93t-31.5 133.5t31.5 133.5t85.5 93t118 33.5t118 -33.5t85.5 -93t31.5 -133.5t-31.5 -133.5t-85.5 -93t-118 -33.5t-118 33.5zM359 76q39 25 62 70.5t23 103.5t-23 103.5t-62 70.5t-85 25t-85 -25t-62 -70.5t-23 -103.5t23 -103.5t62 -70.5
t85 -25t85 25zM370 635l61 125h75l-85 -125h-51zM142 550l102 134h60l102 -134h-68l-65 91l-65 -91h-66z" />
    <glyph glyph-name="uni1ED2" unicode="&#x1ed2;" horiz-adv-x="737" 
d="M207.5 37q-74.5 47 -119 129.5t-44.5 183.5t44.5 183.5t119 129.5t160.5 47t161 -47t119.5 -129.5t44.5 -183.5t-44.5 -183.5t-119.5 -129.5t-161 -47t-160.5 47zM494.5 92.5q58.5 37.5 93.5 105t35 152.5t-35 152.5t-93.5 105t-126.5 37.5q-67 0 -125.5 -37.5
t-93.5 -105t-35 -152.5t35 -152.5t93.5 -105t125.5 -37.5q68 0 126.5 37.5zM488 943l56 -113h-50l-79 113h73zM232 745l105 128h63l104 -128h-68l-69 85l-68 -85h-67z" />
    <glyph glyph-name="uni1ED3" unicode="&#x1ed3;" horiz-adv-x="548" 
d="M156 23.5q-54 33.5 -85.5 93t-31.5 133.5t31.5 133.5t85.5 93t118 33.5t118 -33.5t85.5 -93t31.5 -133.5t-31.5 -133.5t-85.5 -93t-118 -33.5t-118 33.5zM359 76q39 25 62 70.5t23 103.5t-23 103.5t-62 70.5t-85 25t-85 -25t-62 -70.5t-23 -103.5t23 -103.5t62 -70.5
t85 -25t85 25zM386 760l61 -125h-51l-85 125h75zM142 550l102 134h60l102 -134h-68l-65 91l-65 -91h-66z" />
    <glyph glyph-name="uni1ED4" unicode="&#x1ed4;" horiz-adv-x="737" 
d="M207.5 37q-74.5 47 -119 129.5t-44.5 183.5t44.5 183.5t119 129.5t160.5 47t161 -47t119.5 -129.5t44.5 -183.5t-44.5 -183.5t-119.5 -129.5t-161 -47t-160.5 47zM494.5 92.5q58.5 37.5 93.5 105t35 152.5t-35 152.5t-93.5 105t-126.5 37.5q-67 0 -125.5 -37.5
t-93.5 -105t-35 -152.5t35 -152.5t93.5 -105t125.5 -37.5q68 0 126.5 37.5zM525 955q23 -20 23 -54q0 -20 -8 -38.5t-21 -32.5h-50q23 31 23 53q0 18 -11 29t-32 11q-16 0 -31 -4v50q24 6 47 6q37 0 60 -20zM232 745l105 128h63l104 -128h-68l-69 85l-68 -85h-67z" />
    <glyph glyph-name="uni1ED5" unicode="&#x1ed5;" horiz-adv-x="548" 
d="M156 23.5q-54 33.5 -85.5 93t-31.5 133.5t31.5 133.5t85.5 93t118 33.5t118 -33.5t85.5 -93t31.5 -133.5t-31.5 -133.5t-85.5 -93t-118 -33.5t-118 33.5zM359 76q39 25 62 70.5t23 103.5t-23 103.5t-62 70.5t-85 25t-85 -25t-62 -70.5t-23 -103.5t23 -103.5t62 -70.5
t85 -25t85 25zM422 759.5q23 -21.5 23 -53.5q0 -20 -6.5 -36t-19.5 -35h-48q21 31 21 54q0 19 -12.5 30.5t-31.5 11.5q-13 0 -28 -4v48q20 6 42 6q37 0 60 -21.5zM142 550l102 134h60l102 -134h-68l-65 91l-65 -91h-66z" />
    <glyph glyph-name="uni1ED6" unicode="&#x1ed6;" horiz-adv-x="737" 
d="M207.5 37q-74.5 47 -119 129.5t-44.5 183.5t44.5 183.5t119 129.5t160.5 47t161 -47t119.5 -129.5t44.5 -183.5t-44.5 -183.5t-119.5 -129.5t-161 -47t-160.5 47zM494.5 92.5q58.5 37.5 93.5 105t35 152.5t-35 152.5t-93.5 105t-126.5 37.5q-67 0 -125.5 -37.5
t-93.5 -105t-35 -152.5t35 -152.5t93.5 -105t125.5 -37.5q68 0 126.5 37.5zM291.5 938.5q-10.5 -14.5 -10.5 -38.5h-50q0 51 24.5 78.5t58.5 27.5q21 0 36 -9.5t31 -26.5q10 -11 18 -17t17 -6q14 0 24.5 14.5t10.5 38.5h50q0 -51 -25 -78.5t-58 -27.5q-21 0 -36 9.5
t-31 26.5q-10 11 -18 17t-17 6q-14 0 -24.5 -14.5zM399 873l104 -128h-68l-69 85l-68 -85h-67l105 128h63z" />
    <glyph glyph-name="uni1ED7" unicode="&#x1ed7;" horiz-adv-x="548" 
d="M156 23.5q-54 33.5 -85.5 93t-31.5 133.5t31.5 133.5t85.5 93t118 33.5t118 -33.5t85.5 -93t31.5 -133.5t-31.5 -133.5t-85.5 -93t-118 -33.5t-118 33.5zM359 76q39 25 62 70.5t23 103.5t-23 103.5t-62 70.5t-85 25t-85 -25t-62 -70.5t-23 -103.5t23 -103.5t62 -70.5
t85 -25t85 25zM196.5 751q-10.5 -15 -10.5 -39h-50q0 51 24.5 79t58.5 28q21 0 35.5 -9.5t31.5 -27.5q10 -11 18 -17t17 -6q14 0 24.5 15t10.5 39h50q0 -52 -25 -79.5t-58 -27.5q-21 0 -35.5 9.5t-31.5 27.5q-10 11 -18 17t-17 6q-14 0 -24.5 -15zM142 550l102 134h60
l102 -134h-68l-65 91l-65 -91h-66z" />
    <glyph glyph-name="uni1ED8" unicode="&#x1ed8;" horiz-adv-x="737" 
d="M207.5 37q-74.5 47 -119 129.5t-44.5 183.5t44.5 183.5t119 129.5t160.5 47t161 -47t119.5 -129.5t44.5 -183.5t-44.5 -183.5t-119.5 -129.5t-161 -47t-160.5 47zM494.5 92.5q58.5 37.5 93.5 105t35 152.5t-35 152.5t-93.5 105t-126.5 37.5q-67 0 -125.5 -37.5
t-93.5 -105t-35 -152.5t35 -152.5t93.5 -105t125.5 -37.5q68 0 126.5 37.5zM336 -157q-13 13 -13 32q0 20 13 32.5t32 12.5q20 0 32.5 -12.5t12.5 -32.5t-13 -32.5t-32 -12.5t-32 13zM400 883l104 -128h-68l-69 85l-68 -85h-67l105 128h63z" />
    <glyph glyph-name="uni1ED9" unicode="&#x1ed9;" horiz-adv-x="548" 
d="M156 23.5q-54 33.5 -85.5 93t-31.5 133.5t31.5 133.5t85.5 93t118 33.5t118 -33.5t85.5 -93t31.5 -133.5t-31.5 -133.5t-85.5 -93t-118 -33.5t-118 33.5zM359 76q39 25 62 70.5t23 103.5t-23 103.5t-62 70.5t-85 25t-85 -25t-62 -70.5t-23 -103.5t23 -103.5t62 -70.5
t85 -25t85 25zM242 -157q-13 13 -13 32q0 20 13 32.5t32 12.5q20 0 32.5 -12.5t12.5 -32.5t-13 -32.5t-32 -12.5t-32 13zM304 694l102 -134h-68l-65 91l-65 -91h-66l102 134h60z" />
    <glyph glyph-name="uni1EDA" unicode="&#x1eda;" horiz-adv-x="737" 
d="M658 514.5q35 -75.5 35 -164.5q0 -101 -44.5 -183.5t-119.5 -129.5t-161 -47t-160.5 47t-119 129.5t-44.5 183.5t44.5 183.5t119 129.5t160.5 47q55 0 107 -20h62q52 0 52 47q0 22 -13 53h54q6 -12 10.5 -30t4.5 -33q0 -34 -22.5 -59t-59.5 -29q60 -49 95 -124.5z
M494.5 92.5q58.5 37.5 93.5 105t35 152.5t-35 152.5t-93.5 105t-126.5 37.5q-67 0 -125.5 -37.5t-93.5 -105t-35 -152.5t35 -152.5t93.5 -105t125.5 -37.5q68 0 126.5 37.5zM384 755h-54l70 128h78z" />
    <glyph glyph-name="uni1EDB" unicode="&#x1edb;" horiz-adv-x="548" 
d="M488.5 359.5q20.5 -50.5 20.5 -109.5q0 -74 -31.5 -133.5t-85.5 -93t-118 -33.5t-118 33.5t-85.5 93t-31.5 133.5t31.5 133.5t85.5 93t118 33.5q48 0 93 -20h26q26 0 39 10t13 26q0 27 -13 64h48q7 -12 12.5 -30.5t5.5 -35.5q0 -29 -17.5 -50.5t-48.5 -28.5
q36 -35 56.5 -85.5zM359 76q39 25 62 70.5t23 103.5t-23 103.5t-62 70.5t-85 25t-85 -25t-62 -70.5t-23 -103.5t23 -103.5t62 -70.5t85 -25t85 25zM289 560h-51l66 134h75z" />
    <glyph glyph-name="uni1EDC" unicode="&#x1edc;" horiz-adv-x="737" 
d="M658 514.5q35 -75.5 35 -164.5q0 -101 -44.5 -183.5t-119.5 -129.5t-161 -47t-160.5 47t-119 129.5t-44.5 183.5t44.5 183.5t119 129.5t160.5 47q55 0 107 -20h62q52 0 52 47q0 22 -13 53h54q6 -12 10.5 -30t4.5 -33q0 -34 -22.5 -59t-59.5 -29q60 -49 95 -124.5z
M494.5 92.5q58.5 37.5 93.5 105t35 152.5t-35 152.5t-93.5 105t-126.5 37.5q-67 0 -125.5 -37.5t-93.5 -105t-35 -152.5t35 -152.5t93.5 -105t125.5 -37.5q68 0 126.5 37.5zM406 755h-54l-95 128h78z" />
    <glyph glyph-name="uni1EDD" unicode="&#x1edd;" horiz-adv-x="548" 
d="M488.5 359.5q20.5 -50.5 20.5 -109.5q0 -74 -31.5 -133.5t-85.5 -93t-118 -33.5t-118 33.5t-85.5 93t-31.5 133.5t31.5 133.5t85.5 93t118 33.5q48 0 93 -20h26q26 0 39 10t13 26q0 27 -13 64h48q7 -12 12.5 -30.5t5.5 -35.5q0 -29 -17.5 -50.5t-48.5 -28.5
q36 -35 56.5 -85.5zM359 76q39 25 62 70.5t23 103.5t-23 103.5t-62 70.5t-85 25t-85 -25t-62 -70.5t-23 -103.5t23 -103.5t62 -70.5t85 -25t85 25zM310 560h-51l-91 134h75z" />
    <glyph glyph-name="uni1EDE" unicode="&#x1ede;" horiz-adv-x="737" 
d="M658 514.5q35 -75.5 35 -164.5q0 -101 -44.5 -183.5t-119.5 -129.5t-161 -47t-160.5 47t-119 129.5t-44.5 183.5t44.5 183.5t119 129.5t160.5 47q55 0 107 -20h62q52 0 52 47q0 22 -13 53h54q6 -12 10.5 -30t4.5 -33q0 -34 -22.5 -59t-59.5 -29q60 -49 95 -124.5z
M494.5 92.5q58.5 37.5 93.5 105t35 152.5t-35 152.5t-93.5 105t-126.5 37.5q-67 0 -125.5 -37.5t-93.5 -105t-35 -152.5t35 -152.5t93.5 -105t125.5 -37.5q68 0 126.5 37.5zM352 752q22 31 22 61q0 21 -13.5 34t-36.5 13q-17 0 -32 -4v50q19 6 47 6q41 0 66 -22t25 -59
q0 -45 -28 -79h-50z" />
    <glyph glyph-name="uni1EDF" unicode="&#x1edf;" horiz-adv-x="548" 
d="M488.5 359.5q20.5 -50.5 20.5 -109.5q0 -74 -31.5 -133.5t-85.5 -93t-118 -33.5t-118 33.5t-85.5 93t-31.5 133.5t31.5 133.5t85.5 93t118 33.5q48 0 93 -20h26q26 0 39 10t13 26q0 27 -13 64h48q7 -12 12.5 -30.5t5.5 -35.5q0 -29 -17.5 -50.5t-48.5 -28.5
q36 -35 56.5 -85.5zM359 76q39 25 62 70.5t23 103.5t-23 103.5t-62 70.5t-85 25t-85 -25t-62 -70.5t-23 -103.5t23 -103.5t62 -70.5t85 -25t85 25zM254 557q23 33 23 62q0 54 -52 54q-13 0 -28 -4v48q20 6 42 6q43 0 67 -23t24 -64q0 -25 -7.5 -42.5t-20.5 -36.5h-48z" />
    <glyph glyph-name="uni1EE0" unicode="&#x1ee0;" horiz-adv-x="737" 
d="M658 514.5q35 -75.5 35 -164.5q0 -101 -44.5 -183.5t-119.5 -129.5t-161 -47t-160.5 47t-119 129.5t-44.5 183.5t44.5 183.5t119 129.5t160.5 47q55 0 107 -20h62q52 0 52 47q0 22 -13 53h54q6 -12 10.5 -30t4.5 -33q0 -34 -22.5 -59t-59.5 -29q60 -49 95 -124.5z
M494.5 92.5q58.5 37.5 93.5 105t35 152.5t-35 152.5t-93.5 105t-126.5 37.5q-67 0 -125.5 -37.5t-93.5 -105t-35 -152.5t35 -152.5t93.5 -105t125.5 -37.5q68 0 126.5 37.5zM387 772q-16 10 -34 28q-14 13 -22.5 19t-18.5 6q-17 0 -28 -15t-11 -42h-50q0 53 25.5 81.5
t61.5 28.5q23 0 39 -10t34 -28q14 -13 22.5 -19t18.5 -6q17 0 28 15t11 42h50q0 -53 -26 -81.5t-61 -28.5q-23 0 -39 10z" />
    <glyph glyph-name="uni1EE1" unicode="&#x1ee1;" horiz-adv-x="548" 
d="M488.5 359.5q20.5 -50.5 20.5 -109.5q0 -74 -31.5 -133.5t-85.5 -93t-118 -33.5t-118 33.5t-85.5 93t-31.5 133.5t31.5 133.5t85.5 93t118 33.5q48 0 93 -20h26q26 0 39 10t13 26q0 27 -13 64h48q7 -12 12.5 -30.5t5.5 -35.5q0 -29 -17.5 -50.5t-48.5 -28.5
q36 -35 56.5 -85.5zM359 76q39 25 62 70.5t23 103.5t-23 103.5t-62 70.5t-85 25t-85 -25t-62 -70.5t-23 -103.5t23 -103.5t62 -70.5t85 -25t85 25zM292.5 577q-15.5 11 -33.5 31q-13 14 -21.5 20.5t-18.5 6.5q-16 0 -26.5 -16t-10.5 -47h-50q0 58 24.5 87t60.5 29
q23 0 38.5 -11t33.5 -31q13 -14 21.5 -20.5t18.5 -6.5q15 0 26 16.5t11 46.5h50q0 -58 -24.5 -87t-60.5 -29q-23 0 -38.5 11z" />
    <glyph glyph-name="uni1EE2" unicode="&#x1ee2;" horiz-adv-x="737" 
d="M658 514.5q35 -75.5 35 -164.5q0 -101 -44.5 -183.5t-119.5 -129.5t-161 -47t-160.5 47t-119 129.5t-44.5 183.5t44.5 183.5t119 129.5t160.5 47q55 0 107 -20h62q52 0 52 47q0 22 -13 53h54q6 -12 10.5 -30t4.5 -33q0 -34 -22.5 -59t-59.5 -29q60 -49 95 -124.5z
M494.5 92.5q58.5 37.5 93.5 105t35 152.5t-35 152.5t-93.5 105t-126.5 37.5q-67 0 -125.5 -37.5t-93.5 -105t-35 -152.5t35 -152.5t93.5 -105t125.5 -37.5q68 0 126.5 37.5zM336 -157q-13 13 -13 32q0 20 13 32.5t32 12.5q20 0 32.5 -12.5t12.5 -32.5t-13 -32.5t-32 -12.5
t-32 13z" />
    <glyph glyph-name="uni1EE3" unicode="&#x1ee3;" horiz-adv-x="548" 
d="M488.5 359.5q20.5 -50.5 20.5 -109.5q0 -74 -31.5 -133.5t-85.5 -93t-118 -33.5t-118 33.5t-85.5 93t-31.5 133.5t31.5 133.5t85.5 93t118 33.5q48 0 93 -20h26q26 0 39 10t13 26q0 27 -13 64h48q7 -12 12.5 -30.5t5.5 -35.5q0 -29 -17.5 -50.5t-48.5 -28.5
q36 -35 56.5 -85.5zM359 76q39 25 62 70.5t23 103.5t-23 103.5t-62 70.5t-85 25t-85 -25t-62 -70.5t-23 -103.5t23 -103.5t62 -70.5t85 -25t85 25zM242 -157q-13 13 -13 32q0 20 13 32.5t32 12.5q20 0 32.5 -12.5t12.5 -32.5t-13 -32.5t-32 -12.5t-32 13z" />
    <glyph glyph-name="uni1EE4" unicode="&#x1ee4;" horiz-adv-x="668" 
d="M203 23q-57 33 -88 92.5t-31 135.5v449h70v-449q0 -90 49 -143t131 -53q81 0 130.5 53t49.5 143v449h70v-449q0 -76 -31.5 -135.5t-88 -92.5t-130.5 -33t-131 33zM302 -157q-13 13 -13 32q0 20 13 32.5t32 12.5q20 0 32.5 -12.5t12.5 -32.5t-13 -32.5t-32 -12.5t-32 13z
" />
    <glyph glyph-name="uni1EE5" unicode="&#x1ee5;" horiz-adv-x="555" 
d="M164.5 17q-45.5 27 -71.5 77t-26 116v290h65v-290q0 -74 39 -116.5t101 -42.5q66 0 106 42.5t40 116.5v290h65v-500h-48l-17 68h-5q-20 -31 -58.5 -54.5t-88.5 -23.5q-56 0 -101.5 27zM247 -157q-13 13 -13 32q0 20 13 32.5t32 12.5q20 0 32.5 -12.5t12.5 -32.5
t-13 -32.5t-32 -12.5t-32 13z" />
    <glyph glyph-name="uni1EE6" unicode="&#x1ee6;" horiz-adv-x="668" 
d="M203 23q-57 33 -88 92.5t-31 135.5v449h70v-449q0 -90 49 -143t131 -53q81 0 130.5 53t49.5 143v449h70v-449q0 -76 -31.5 -135.5t-88 -92.5t-130.5 -33t-131 33zM318 752q22 31 22 61q0 21 -13.5 34t-36.5 13q-17 0 -32 -4v50q19 6 47 6q41 0 66 -22t25 -59
q0 -45 -28 -79h-50z" />
    <glyph glyph-name="uni1EE7" unicode="&#x1ee7;" horiz-adv-x="555" 
d="M164.5 17q-45.5 27 -71.5 77t-26 116v290h65v-290q0 -74 39 -116.5t101 -42.5q66 0 106 42.5t40 116.5v290h65v-500h-48l-17 68h-5q-20 -31 -58.5 -54.5t-88.5 -23.5q-56 0 -101.5 27zM255 557q23 33 23 62q0 54 -52 54q-13 0 -28 -4v48q20 6 42 6q43 0 67 -23t24 -64
q0 -25 -7.5 -42.5t-20.5 -36.5h-48z" />
    <glyph glyph-name="uni1EE8" unicode="&#x1ee8;" horiz-adv-x="688" 
d="M682 800q6 -12 10.5 -30t4.5 -33q0 -38 -26.5 -63.5t-69.5 -25.5h-17v-397q0 -76 -31.5 -135.5t-88 -92.5t-130.5 -33t-131 33t-88 92.5t-31 135.5v449h70v-449q0 -90 49 -143t131 -53q81 0 130.5 53t49.5 143v449h75q52 0 52 47q0 22 -13 53h54zM350 755h-54l70 128h78z
" />
    <glyph glyph-name="uni1EE9" unicode="&#x1ee9;" horiz-adv-x="575" 
d="M575 600q7 -12 12.5 -30.5t5.5 -35.5q0 -35 -25.5 -58.5t-67.5 -23.5h-17v-452h-48l-17 68h-5q-20 -31 -58.5 -54.5t-88.5 -23.5q-56 0 -101.5 27t-71.5 77t-26 116v290h65v-290q0 -74 39 -116.5t101 -42.5q66 0 106 42.5t40 116.5v290h70q26 0 39 10t13 26q0 27 -13 64
h48zM290 560h-51l66 134h75z" />
    <glyph glyph-name="uni1EEA" unicode="&#x1eea;" horiz-adv-x="688" 
d="M682 800q6 -12 10.5 -30t4.5 -33q0 -38 -26.5 -63.5t-69.5 -25.5h-17v-397q0 -76 -31.5 -135.5t-88 -92.5t-130.5 -33t-131 33t-88 92.5t-31 135.5v449h70v-449q0 -90 49 -143t131 -53q81 0 130.5 53t49.5 143v449h75q52 0 52 47q0 22 -13 53h54zM372 755h-54l-95 128h78
z" />
    <glyph glyph-name="uni1EEB" unicode="&#x1eeb;" horiz-adv-x="575" 
d="M575 600q7 -12 12.5 -30.5t5.5 -35.5q0 -35 -25.5 -58.5t-67.5 -23.5h-17v-452h-48l-17 68h-5q-20 -31 -58.5 -54.5t-88.5 -23.5q-56 0 -101.5 27t-71.5 77t-26 116v290h65v-290q0 -74 39 -116.5t101 -42.5q66 0 106 42.5t40 116.5v290h70q26 0 39 10t13 26q0 27 -13 64
h48zM311 560h-51l-91 134h75z" />
    <glyph glyph-name="uni1EEC" unicode="&#x1eec;" horiz-adv-x="688" 
d="M682 800q6 -12 10.5 -30t4.5 -33q0 -38 -26.5 -63.5t-69.5 -25.5h-17v-397q0 -76 -31.5 -135.5t-88 -92.5t-130.5 -33t-131 33t-88 92.5t-31 135.5v449h70v-449q0 -90 49 -143t131 -53q81 0 130.5 53t49.5 143v449h75q52 0 52 47q0 22 -13 53h54zM318 752q22 31 22 61
q0 21 -13.5 34t-36.5 13q-17 0 -32 -4v50q19 6 47 6q41 0 66 -22t25 -59q0 -45 -28 -79h-50z" />
    <glyph glyph-name="uni1EED" unicode="&#x1eed;" horiz-adv-x="575" 
d="M575 600q7 -12 12.5 -30.5t5.5 -35.5q0 -35 -25.5 -58.5t-67.5 -23.5h-17v-452h-48l-17 68h-5q-20 -31 -58.5 -54.5t-88.5 -23.5q-56 0 -101.5 27t-71.5 77t-26 116v290h65v-290q0 -74 39 -116.5t101 -42.5q66 0 106 42.5t40 116.5v290h70q26 0 39 10t13 26q0 27 -13 64
h48zM255 557q23 33 23 62q0 54 -52 54q-13 0 -28 -4v48q20 6 42 6q43 0 67 -23t24 -64q0 -25 -7.5 -42.5t-20.5 -36.5h-48z" />
    <glyph glyph-name="uni1EEE" unicode="&#x1eee;" horiz-adv-x="688" 
d="M682 800q6 -12 10.5 -30t4.5 -33q0 -38 -26.5 -63.5t-69.5 -25.5h-17v-397q0 -76 -31.5 -135.5t-88 -92.5t-130.5 -33t-131 33t-88 92.5t-31 135.5v449h70v-449q0 -90 49 -143t131 -53q81 0 130.5 53t49.5 143v449h75q52 0 52 47q0 22 -13 53h54zM353 772q-16 10 -34 28
q-14 13 -22.5 19t-18.5 6q-17 0 -28 -15t-11 -42h-50q0 53 25.5 81.5t61.5 28.5q23 0 39 -10t34 -28q14 -13 22.5 -19t18.5 -6q17 0 28 15t11 42h50q0 -53 -26 -81.5t-61 -28.5q-23 0 -39 10z" />
    <glyph glyph-name="uni1EEF" unicode="&#x1eef;" horiz-adv-x="575" 
d="M575 600q7 -12 12.5 -30.5t5.5 -35.5q0 -35 -25.5 -58.5t-67.5 -23.5h-17v-452h-48l-17 68h-5q-20 -31 -58.5 -54.5t-88.5 -23.5q-56 0 -101.5 27t-71.5 77t-26 116v290h65v-290q0 -74 39 -116.5t101 -42.5q66 0 106 42.5t40 116.5v290h70q26 0 39 10t13 26q0 27 -13 64
h48zM293.5 577q-15.5 11 -33.5 31q-13 14 -21.5 20.5t-18.5 6.5q-16 0 -26.5 -16t-10.5 -47h-50q0 58 24.5 87t60.5 29q23 0 38.5 -11t33.5 -31q13 -14 21.5 -20.5t18.5 -6.5q15 0 26 16.5t11 46.5h50q0 -58 -24.5 -87t-60.5 -29q-23 0 -38.5 11z" />
    <glyph glyph-name="uni1EF0" unicode="&#x1ef0;" horiz-adv-x="688" 
d="M682 800q6 -12 10.5 -30t4.5 -33q0 -38 -26.5 -63.5t-69.5 -25.5h-17v-397q0 -76 -31.5 -135.5t-88 -92.5t-130.5 -33t-131 33t-88 92.5t-31 135.5v449h70v-449q0 -90 49 -143t131 -53q81 0 130.5 53t49.5 143v449h75q52 0 52 47q0 22 -13 53h54zM302 -157q-13 13 -13 32
q0 20 13 32.5t32 12.5q20 0 32.5 -12.5t12.5 -32.5t-13 -32.5t-32 -12.5t-32 13z" />
    <glyph glyph-name="uni1EF1" unicode="&#x1ef1;" horiz-adv-x="575" 
d="M575 600q7 -12 12.5 -30.5t5.5 -35.5q0 -35 -25.5 -58.5t-67.5 -23.5h-17v-452h-48l-17 68h-5q-20 -31 -58.5 -54.5t-88.5 -23.5q-56 0 -101.5 27t-71.5 77t-26 116v290h65v-290q0 -74 39 -116.5t101 -42.5q66 0 106 42.5t40 116.5v290h70q26 0 39 10t13 26q0 27 -13 64
h48zM247 -157q-13 13 -13 32q0 20 13 32.5t32 12.5q20 0 32.5 -12.5t12.5 -32.5t-13 -32.5t-32 -12.5t-32 13z" />
    <glyph glyph-name="Ygrave" unicode="&#x1ef2;" horiz-adv-x="534" 
d="M269 344l190 356h73l-230 -426v-274h-70v274l-230 426h76zM307 755h-54l-95 128h78z" />
    <glyph glyph-name="ygrave" unicode="&#x1ef3;" horiz-adv-x="474" 
d="M399 500h68l-221 -550q-32 -78 -63.5 -106.5t-71.5 -28.5q-17 0 -39 8v59q17 -6 31 -6q24 0 42.5 15t33.5 52l27 68l-199 489h70l163 -406zM274 560h-51l-91 134h75z" />
    <glyph glyph-name="uni1EF4" unicode="&#x1ef4;" horiz-adv-x="534" 
d="M269 344l190 356h73l-230 -426v-274h-70v274l-230 426h76zM235 -157q-13 13 -13 32q0 20 13 32.5t32 12.5q20 0 32.5 -12.5t12.5 -32.5t-13 -32.5t-32 -12.5t-32 13z" />
    <glyph glyph-name="uni1EF5" unicode="&#x1ef5;" horiz-adv-x="474" 
d="M399 500h68l-221 -550q-32 -78 -63.5 -106.5t-71.5 -28.5q-17 0 -39 8v59q17 -6 31 -6q24 0 42.5 15t33.5 52l27 68l-199 489h70l163 -406zM297 -157q-13 13 -13 32q0 20 13 32.5t32 12.5q20 0 32.5 -12.5t12.5 -32.5t-13 -32.5t-32 -12.5t-32 13z" />
    <glyph glyph-name="uni1EF6" unicode="&#x1ef6;" horiz-adv-x="534" 
d="M269 344l190 356h73l-230 -426v-274h-70v274l-230 426h76zM253 752q22 31 22 61q0 21 -13.5 34t-36.5 13q-17 0 -32 -4v50q19 6 47 6q41 0 66 -22t25 -59q0 -45 -28 -79h-50z" />
    <glyph glyph-name="uni1EF7" unicode="&#x1ef7;" horiz-adv-x="474" 
d="M399 500h68l-221 -550q-32 -78 -63.5 -106.5t-71.5 -28.5q-17 0 -39 8v59q17 -6 31 -6q24 0 42.5 15t33.5 52l27 68l-199 489h70l163 -406zM218 557q23 33 23 62q0 54 -52 54q-13 0 -28 -4v48q20 6 42 6q43 0 67 -23t24 -64q0 -25 -7.5 -42.5t-20.5 -36.5h-48z" />
    <glyph glyph-name="uni1EF8" unicode="&#x1ef8;" horiz-adv-x="534" 
d="M269 344l190 356h73l-230 -426v-274h-70v274l-230 426h76zM288 772q-16 10 -34 28q-14 13 -22.5 19t-18.5 6q-17 0 -28 -15t-11 -42h-50q0 53 25.5 81.5t61.5 28.5q23 0 39 -10t34 -28q14 -13 22.5 -19t18.5 -6q17 0 28 15t11 42h50q0 -53 -26 -81.5t-61 -28.5
q-23 0 -39 10z" />
    <glyph glyph-name="uni1EF9" unicode="&#x1ef9;" horiz-adv-x="474" 
d="M399 500h68l-221 -550q-32 -78 -63.5 -106.5t-71.5 -28.5q-17 0 -39 8v59q17 -6 31 -6q24 0 42.5 15t33.5 52l27 68l-199 489h70l163 -406zM256.5 577q-15.5 11 -33.5 31q-13 14 -21.5 20.5t-18.5 6.5q-16 0 -26.5 -16t-10.5 -47h-50q0 58 24.5 87t60.5 29q23 0 38.5 -11
t33.5 -31q13 -14 21.5 -20.5t18.5 -6.5q15 0 26 16.5t11 46.5h50q0 -58 -24.5 -87t-60.5 -29q-23 0 -38.5 11z" />
    <glyph glyph-name="endash" unicode="&#x2013;" horiz-adv-x="521" 
d="M482 235h-443v61h443v-61z" />
    <glyph glyph-name="emdash" unicode="&#x2014;" horiz-adv-x="781" 
d="M742 235h-703v61h703v-61z" />
    <glyph glyph-name="quoteleft" unicode="&#x2018;" horiz-adv-x="182" 
d="M130 568q13 -15 13 -35q0 -22 -15 -37t-37 -15t-37 16t-15 44q0 50 26 94.5t56 74.5l17 -22q-37 -49 -41 -103q20 -2 33 -17z" />
    <glyph glyph-name="quoteright" unicode="&#x2019;" horiz-adv-x="182" 
d="M128 694q15 -16 15 -44q0 -50 -26 -94.5t-56 -74.5l-17 22q37 49 41 103q-20 2 -33 17t-13 35q0 22 15 37t37 15t37 -16z" />
    <glyph glyph-name="quotesinglbase" unicode="&#x201a;" horiz-adv-x="182" 
d="M128 78q15 -16 15 -44q0 -50 -26 -94.5t-56 -74.5l-17 22q37 49 41 103q-20 2 -33 17t-13 35q0 22 15 37t37 15t37 -16z" />
    <glyph glyph-name="quotedblleft" unicode="&#x201c;" horiz-adv-x="328" 
d="M130 568q13 -15 13 -35q0 -22 -15 -37t-37 -15t-37 16t-15 44q0 50 26 94.5t56 74.5l17 -22q-37 -49 -41 -103q20 -2 33 -17zM276 568q13 -15 13 -35q0 -22 -15 -37t-37 -15t-37 16t-15 44q0 50 26 94.5t56 74.5l17 -22q-37 -49 -41 -103q20 -2 33 -17z" />
    <glyph glyph-name="quotedblright" unicode="&#x201d;" horiz-adv-x="328" 
d="M128 694q15 -16 15 -44q0 -50 -26 -94.5t-56 -74.5l-17 22q37 49 41 103q-20 2 -33 17t-13 35q0 22 15 37t37 15t37 -16zM274 694q15 -16 15 -44q0 -50 -26 -94.5t-56 -74.5l-17 22q37 49 41 103q-20 2 -33 17t-13 35q0 22 15 37t37 15t37 -16z" />
    <glyph glyph-name="quotedblbase" unicode="&#x201e;" horiz-adv-x="328" 
d="M128 78q15 -16 15 -44q0 -50 -26 -94.5t-56 -74.5l-17 22q37 49 41 103q-20 2 -33 17t-13 35q0 22 15 37t37 15t37 -16zM274 78q15 -16 15 -44q0 -50 -26 -94.5t-56 -74.5l-17 22q37 49 41 103q-20 2 -33 17t-13 35q0 22 15 37t37 15t37 -16z" />
    <glyph glyph-name="dagger" unicode="&#x2020;" horiz-adv-x="368" 
d="M214 185h-60v319h-115v55h115v141h60v-141h115v-55h-115v-319z" />
    <glyph glyph-name="daggerdbl" unicode="&#x2021;" horiz-adv-x="368" 
d="M214 185h-60v137h-115v55h115v131h-115v55h115v137h60v-137h115v-55h-115v-131h115v-55h-115v-137z" />
    <glyph glyph-name="bullet" unicode="&#x2022;" horiz-adv-x="396" 
d="M135.5 202.5q-25.5 25.5 -25.5 62.5q0 38 25.5 63t62.5 25q38 0 63 -25t25 -63q0 -37 -25 -62.5t-63 -25.5q-37 0 -62.5 25.5z" />
    <glyph glyph-name="ellipsis" unicode="&#x2026;" horiz-adv-x="598" 
d="M54 5q-15 15 -15 37t15 37t37 15t37 -15t15 -37t-15 -37t-37 -15t-37 15zM262 5q-15 15 -15 37t15 37t37 15t37 -15t15 -37t-15 -37t-37 -15t-37 15zM470 5q-15 15 -15 37t15 37t37 15t37 -15t15 -37t-15 -37t-37 -15t-37 15z" />
    <glyph glyph-name="perthousand" unicode="&#x2030;" horiz-adv-x="1019" 
d="M106.5 431q-33.5 19 -53.5 53t-20 77t20 77t53.5 53t72.5 19t72.5 -19t53.5 -53t20 -77t-20 -77t-53.5 -53t-72.5 -19t-72.5 19zM165 0h-67l424 700h67zM244 489q27 27 27 72t-27 72t-65 27t-65 -27t-27 -72t27 -72t65 -27t65 27zM435.5 9q-33.5 19 -53.5 53t-20 77
t20 77t53.5 53t72.5 19t72.5 -19t53.5 -53t20 -77t-20 -77t-53.5 -53t-72.5 -19t-72.5 19zM767.5 9q-33.5 19 -53.5 53t-20 77t20 77t53.5 53t72.5 19t72.5 -19t53.5 -53t20 -77t-20 -77t-53.5 -53t-72.5 -19t-72.5 19zM573 67q27 27 27 72t-27 72t-65 27t-65 -27t-27 -72
t27 -72t65 -27t65 27zM905 67q27 27 27 72t-27 72t-65 27t-65 -27t-27 -72t27 -72t65 -27t65 27z" />
    <glyph glyph-name="guilsinglleft" unicode="&#x2039;" horiz-adv-x="265" 
d="M225 87h-66l-119 178l119 178h66l-119 -178z" />
    <glyph glyph-name="guilsinglright" unicode="&#x203a;" horiz-adv-x="265" 
d="M106 87h-66l119 178l-119 178h66l119 -178z" />
    <glyph glyph-name="uni203D" unicode="&#x203d;" horiz-adv-x="473" 
d="M334.5 685q43.5 -25 68.5 -67.5t25 -93.5q0 -41 -11.5 -71t-27.5 -50t-44 -48q-41 -38 -62 -73t-21 -93v-14h-70l-13 457q-35 -17 -54.5 -53t-19.5 -84v-13h-70v13q0 61 26.5 110t72.5 77t103 28q54 0 97.5 -25zM250 351l34 34q38 36 56 64.5t18 74.5q0 47 -27 80t-73 40
zM265 78.5q15 -15.5 15 -36.5q0 -22 -15 -37t-37 -15t-37 15t-15 37t15 37t37 15t37 -15.5z" />
    <glyph glyph-name="fraction" unicode="&#x2044;" horiz-adv-x="126" 
d="M-116 0h-67l425 700h67z" />
    <glyph glyph-name="uni2070" horiz-adv-x="352" 
d="M103.5 477q-32.5 22 -51.5 63t-19 95t19 95t51.5 63t72.5 22t72.5 -22t51.5 -63t19 -95t-19 -95t-51.5 -63t-72.5 -22t-72.5 22zM235.5 542.5q24.5 33.5 24.5 92.5t-24.5 92.5t-59.5 33.5t-59.5 -33.5t-24.5 -92.5t24.5 -92.5t59.5 -33.5t59.5 33.5z" />
    <glyph glyph-name="uni2074" unicode="&#x2074;" horiz-adv-x="298" 
d="M225 582h40v-54h-40v-68h-59v68h-160v48l151 234h68v-228zM166 582v145l-93 -145h93z" />
    <glyph glyph-name="uni2075" horiz-adv-x="313" 
d="M246.5 662.5q33.5 -34.5 33.5 -86.5t-34 -86.5t-89 -34.5q-53 0 -86 30t-38 73h59q4 -21 21 -35t44 -14q30 0 47 18t17 49t-17 49t-47 18q-22 0 -39 -10.5t-25 -25.5h-48l25 203h187v-54h-140l-10 -75q22 16 53 16q53 0 86.5 -34.5z" />
    <glyph glyph-name="uni2076" horiz-adv-x="306" 
d="M242 659.5q36 -32.5 36 -83.5t-36 -86t-90 -35t-90 35t-36 86q0 29 11.5 54.5t33.5 56.5l84 123h66l-82 -120q10 2 13 2q54 0 90 -32.5zM199 528.5q20 19.5 20 47.5t-20 47.5t-47 19.5q-28 0 -47.5 -19.5t-19.5 -47.5t19.5 -47.5t47.5 -19.5q27 0 47 19.5z" />
    <glyph glyph-name="uni2077" horiz-adv-x="290" 
d="M23 756v54h239v-36l-133 -314h-61l126 296h-171z" />
    <glyph glyph-name="uni2078" horiz-adv-x="318" 
d="M269.5 612q15.5 -22 15.5 -53q0 -45 -35 -74.5t-91 -29.5t-91 29.5t-35 74.5q0 31 15.5 53t38.5 34q-18 11 -30 30t-12 43q0 40 32.5 68t81.5 28t81.5 -28t32.5 -68q0 -24 -12 -43t-30 -30q23 -12 38.5 -34zM117.5 750.5q-16.5 -13.5 -16.5 -34.5q0 -20 16.5 -34
t41.5 -14t41.5 14t16.5 34q0 21 -16.5 34.5t-41.5 13.5t-41.5 -13.5zM209.5 522q19.5 16 19.5 42t-19.5 42t-50.5 16t-50.5 -16t-19.5 -42t19.5 -42t50.5 -16t50.5 16z" />
    <glyph glyph-name="uni2079" horiz-adv-x="306" 
d="M244 780q36 -35 36 -86q0 -29 -11.5 -54.5t-33.5 -56.5l-84 -123h-66l82 120q-10 -2 -13 -2q-54 0 -90 32.5t-36 83.5t36 86t90 35t90 -35zM201.5 646.5q19.5 19.5 19.5 47.5t-19.5 47.5t-47.5 19.5q-27 0 -47 -19.5t-20 -47.5t20 -47.5t47 -19.5q28 0 47.5 19.5z" />
    <glyph glyph-name="uni20A9" unicode="&#x20a9;" horiz-adv-x="884" 
d="M867 459v-65h-113l-22 -82h135v-65h-152l-67 -247h-64l-142 545l-142 -545h-63l-67 247h-153v65h135l-22 82h-113v65h95l-65 241h71l151 -584l146 584h55l147 -584l152 584h68l-65 -241h95z" />
    <glyph glyph-name="dong" unicode="&#x20ab;" horiz-adv-x="513" 
d="M491 635v-58h-75v-449h-44l-16 52h-5q-17 -22 -49 -40t-74 -18q-53 0 -96 24t-68 68t-25 100t25 100t68 68t96 24q43 0 73.5 -17.5t49.5 -40.5h5v129h-140v58h140v65h60v-65h75zM319 216.5q37 36.5 37 97.5q0 60 -37 97t-91 37q-55 0 -92 -36.5t-37 -97.5t37 -97.5
t92 -36.5q54 0 91 36.5zM416 0h-343v58h343v-58z" />
    <glyph glyph-name="Euro" unicode="&#x20ac;" horiz-adv-x="665" 
d="M271.5 596q-67.5 -49 -91.5 -142h272v-65h-282q-2 -26 -2 -39t2 -39h282v-65h-272q24 -93 91.5 -142t169.5 -49q103 0 179 50v-69q-85 -46 -179 -46q-130 0 -217.5 67.5t-114.5 188.5h-94v65h84q-1 13 -1 39t1 39h-84v65h94q27 121 114.5 188.5t217.5 67.5q94 0 179 -46
v-69q-76 50 -179 50q-102 0 -169.5 -49z" />
    <glyph glyph-name="uni20B4" unicode="&#x20b4;" horiz-adv-x="586" 
d="M542 454v-65h-498v65h339q39 39 39 85q0 45 -35.5 75.5t-93.5 30.5q-59 0 -92.5 -27.5t-38.5 -73.5h-70q3 44 28.5 82.5t70 61t102.5 22.5q59 0 104.5 -23t70 -61.5t24.5 -82.5q0 -51 -31 -89h81zM44 246v65h498v-65h-339q-39 -39 -39 -85q0 -45 35.5 -75.5t93.5 -30.5
q59 0 92.5 27.5t38.5 73.5h70q-3 -44 -28.5 -82.5t-70 -61t-102.5 -22.5q-59 0 -104.5 23t-70 61.5t-24.5 82.5q0 51 31 89h-81z" />
    <glyph glyph-name="uni20B8" unicode="&#x20b8;" horiz-adv-x="552" 
d="M525 635h-498v65h498v-65zM311 0h-70v486h-214v65h498v-65h-214v-486z" />
    <glyph glyph-name="uni20B9" unicode="&#x20b9;" horiz-adv-x="556" 
d="M522 700v-65h-146q54 -46 64 -118h82v-65h-82q-8 -53 -38.5 -95t-77.5 -65t-102 -23h-66l331 -269h-106l-332 269v65h171q61 0 100 33t49 85h-320v65h320q-9 52 -48.5 85t-100.5 33h-171v65h473z" />
    <glyph glyph-name="uni20BA" unicode="&#x20ba;" horiz-adv-x="538" 
d="M512 265q0 -135 -78 -200t-256 -65h-71v242l-85 -31v67l85 31v99l-85 -31v67l85 31v225h70v-199l170 63v-67l-170 -63v-99l170 63v-67l-170 -63v-203q99 0 157 21.5t83 65t25 113.5h70z" />
    <glyph glyph-name="uni20BD" unicode="&#x20bd;" horiz-adv-x="600" 
d="M182 287v-92h215v-65h-215v-130h-70v130h-90v65h90v92h-90v65h90v348h221q61 0 112 -28t80.5 -75.5t29.5 -103.5t-29.5 -103t-80.5 -75t-112 -28h-151zM182 635v-283h151q43 0 78 18.5t54.5 51t19.5 71.5q0 40 -19.5 72.5t-54.5 51t-78 18.5h-151z" />
    <glyph glyph-name="uni20BF" unicode="&#x20bf;" horiz-adv-x="614" 
d="M524 73q-46 -54 -123 -68v-110h-65v105h-102v-105h-65v105h-80v700h80v105h65v-105h102v105h65v-113q64 -16 102.5 -63.5t38.5 -109.5q0 -57 -30.5 -92.5t-70.5 -50.5q47 -15 88 -58.5t41 -115.5q0 -75 -46 -129zM159 635v-233h179q62 0 98 32t36 85q0 52 -36 84t-98 32
h-179zM349 65q66 0 108.5 39t42.5 98t-42.5 98t-108.5 39h-190v-274h190z" />
    <glyph glyph-name="uni2113" unicode="&#x2113;" horiz-adv-x="386" 
d="M154 144q0 -54 18.5 -76.5t56.5 -22.5q34 0 62 17v-55q-28 -17 -68 -17q-60 0 -94.5 38.5t-34.5 115.5v84q-41 -12 -84 -12v55q43 0 84 16v275q0 69 34.5 108.5t86.5 39.5q32 0 60 -19t44.5 -54.5t16.5 -81.5q0 -98 -51 -178.5t-131 -123.5v-109zM154 318
q55 38 88.5 98.5t33.5 138.5q0 51 -16.5 75.5t-44.5 24.5q-26 0 -43.5 -23.5t-17.5 -69.5v-244z" />
    <glyph glyph-name="trademark" unicode="&#x2122;" horiz-adv-x="623" 
d="M101 649h-90v51h235v-51h-90v-254h-55v254zM434 542l97 158h45v-305h-53v206l-71 -119h-38l-71 119v-206h-53v305h47z" />
    <glyph glyph-name="arrowup" unicode="&#x2191;" horiz-adv-x="1110" 
d="M555 780l238 -238l-44 -44l-162 162v-730h-64v730l-162 -162l-44 44z" />
    <glyph glyph-name="arrowdown" unicode="&#x2193;" horiz-adv-x="1110" 
d="M587 50l162 162l44 -44l-238 -238l-238 238l44 44l162 -162v730h64v-730z" />
    <glyph glyph-name="minus" unicode="&#x2212;" horiz-adv-x="570" 
d="M492 330h-414v61h414v-61z" />
    <glyph glyph-name="notequal" horiz-adv-x="570" 
d="M497 494v-61h-150l-59 -146h209v-61h-234l-51 -126h-62l51 126h-127v61h152l59 146h-211v61h236l51 125h62l-51 -125h125z" />
    <glyph glyph-name="lessequal" horiz-adv-x="570" 
d="M86 430l384 174v-63l-296 -133l296 -133v-63l-384 175v43zM470 80h-384v61h384v-61z" />
    <glyph glyph-name="greaterequal" horiz-adv-x="570" 
d="M100 541v63l384 -174v-43l-384 -175v63l296 133zM484 80h-384v61h384v-61z" />
    <glyph glyph-name="uni2E18" horiz-adv-x="473" 
d="M208 411q-15 15 -15 37t15 37t37 15t37 -15t15 -37t-15 -37t-37 -15t-37 15zM368 43h70v-13q0 -61 -26.5 -110t-72.5 -77t-103 -28q-54 0 -97.5 24.5t-68.5 65t-25 86.5q0 38 11.5 66t28 47.5t44.5 45.5t44 44t27 45t11 62v14h70l12 -423q35 17 55 53t20 85v13z
M142.5 -80.5q27.5 -30.5 71.5 -37.5l9 269q-22 -22 -34 -32q-38 -36 -56 -62t-18 -66q0 -41 27.5 -71.5z" />
    <glyph glyph-name="uniF6C3" 
d="M-44 -96q14 -16 14 -44q0 -41 -22 -75.5t-46 -54.5l-15 18q11 11 21 31t12 47q-19 1 -33.5 13.5t-14.5 33.5t14.5 34t32.5 13q23 0 37 -16z" />
    <glyph glyph-name="Iacute_J.loclNLD" horiz-adv-x="773" 
d="M159 0h-70v700h70v-700zM140 755h-54l70 128h78zM367.5 17.5q-48.5 27.5 -75.5 73t-27 98.5h70q0 -34 18.5 -65t51 -50t73.5 -19q64 0 102.5 40t38.5 106v499h70v-499q0 -62 -26 -110t-74 -74.5t-111 -26.5q-62 0 -110.5 27.5zM670 755h-54l70 128h78z" />
    <glyph glyph-name="i.loclTRK" horiz-adv-x="209" 
d="M137 0h-65v500h65v-500zM73 593q-13 13 -13 32q0 20 13 32.5t32 12.5q20 0 32.5 -12.5t12.5 -32.5q0 -19 -13 -32t-32 -13t-32 13z" />
    <glyph glyph-name="iacute_j.loclNLD" horiz-adv-x="418" 
d="M137 0h-65v500h65v-500zM120 560h-51l66 134h75zM164 -177v59q16 -6 34 -6q39 0 61 24.5t22 73.5v526h65v-526q0 -74 -38.5 -116.5t-99.5 -42.5q-22 0 -44 8zM329 560h-51l66 134h75z" />
    <glyph glyph-name="zero.numr" horiz-adv-x="352" 
d="M103.5 367q-32.5 22 -51.5 63t-19 95t19 95t51.5 63t72.5 22t72.5 -22t51.5 -63t19 -95t-19 -95t-51.5 -63t-72.5 -22t-72.5 22zM235.5 432.5q24.5 33.5 24.5 92.5t-24.5 92.5t-59.5 33.5t-59.5 -33.5t-24.5 -92.5t24.5 -92.5t59.5 -33.5t59.5 33.5z" />
    <glyph glyph-name="one.numr" horiz-adv-x="232" 
d="M25 635l97 65h45v-350h-59v276l-53 -36z" />
    <glyph glyph-name="two.numr" horiz-adv-x="300" 
d="M119 404h148v-54h-231v44l131 137q19 20 30 37t11 34q0 22 -15.5 35.5t-40.5 13.5q-28 0 -45.5 -16.5t-17.5 -43.5h-59q0 49 34.5 81.5t87.5 32.5q51 0 83 -29.5t32 -71.5q0 -26 -13 -49t-34 -45z" />
    <glyph glyph-name="three.numr" horiz-adv-x="310" 
d="M259 502.5q18 -21.5 18 -53.5q0 -45 -32 -74.5t-89 -29.5q-54 0 -89 32.5t-37 81.5h59q2 -25 19.5 -42.5t47.5 -17.5q28 0 45 14t17 39q0 24 -17 38.5t-47 14.5h-32v49h32q23 0 37.5 13t14.5 35t-14.5 35.5t-37.5 13.5q-26 0 -42.5 -15t-16.5 -39h-59q0 44 33.5 76
t84.5 32q48 0 79.5 -28.5t31.5 -69.5q0 -25 -14 -43.5t-34 -28.5q24 -11 42 -32.5z" />
    <glyph glyph-name="four.numr" horiz-adv-x="298" 
d="M225 472h40v-54h-40v-68h-59v68h-160v48l151 234h68v-228zM166 472v145l-93 -145h93z" />
    <glyph glyph-name="five.numr" horiz-adv-x="313" 
d="M246.5 552.5q33.5 -34.5 33.5 -86.5t-34 -86.5t-89 -34.5q-53 0 -86 30t-38 73h59q4 -21 21 -35t44 -14q30 0 47 18t17 49t-17 49t-47 18q-22 0 -39 -10.5t-25 -25.5h-48l25 203h187v-54h-140l-10 -75q22 16 53 16q53 0 86.5 -34.5z" />
    <glyph glyph-name="six.numr" horiz-adv-x="306" 
d="M242 549.5q36 -32.5 36 -83.5t-36 -86t-90 -35t-90 35t-36 86q0 29 11.5 54.5t33.5 56.5l84 123h66l-82 -120q10 2 13 2q54 0 90 -32.5zM199 418.5q20 19.5 20 47.5t-20 47.5t-47 19.5q-28 0 -47.5 -19.5t-19.5 -47.5t19.5 -47.5t47.5 -19.5q27 0 47 19.5z" />
    <glyph glyph-name="seven.numr" horiz-adv-x="290" 
d="M23 646v54h239v-36l-133 -314h-61l126 296h-171z" />
    <glyph glyph-name="eight.numr" horiz-adv-x="318" 
d="M269.5 502q15.5 -22 15.5 -53q0 -45 -35 -74.5t-91 -29.5t-91 29.5t-35 74.5q0 31 15.5 53t38.5 34q-18 11 -30 30t-12 43q0 40 32.5 68t81.5 28t81.5 -28t32.5 -68q0 -24 -12 -43t-30 -30q23 -12 38.5 -34zM117.5 640.5q-16.5 -13.5 -16.5 -34.5q0 -20 16.5 -34
t41.5 -14t41.5 14t16.5 34q0 21 -16.5 34.5t-41.5 13.5t-41.5 -13.5zM209.5 412q19.5 16 19.5 42t-19.5 42t-50.5 16t-50.5 -16t-19.5 -42t19.5 -42t50.5 -16t50.5 16z" />
    <glyph glyph-name="nine.numr" horiz-adv-x="306" 
d="M244 670q36 -35 36 -86q0 -29 -11.5 -54.5t-33.5 -56.5l-84 -123h-66l82 120q-10 -2 -13 -2q-54 0 -90 32.5t-36 83.5t36 86t90 35t90 -35zM201.5 536.5q19.5 19.5 19.5 47.5t-19.5 47.5t-47.5 19.5q-27 0 -47 -19.5t-20 -47.5t20 -47.5t47 -19.5q28 0 47.5 19.5z" />
    <glyph glyph-name="zero.dnom" horiz-adv-x="352" 
d="M103.5 17q-32.5 22 -51.5 63t-19 95t19 95t51.5 63t72.5 22t72.5 -22t51.5 -63t19 -95t-19 -95t-51.5 -63t-72.5 -22t-72.5 22zM235.5 82.5q24.5 33.5 24.5 92.5t-24.5 92.5t-59.5 33.5t-59.5 -33.5t-24.5 -92.5t24.5 -92.5t59.5 -33.5t59.5 33.5z" />
    <glyph glyph-name="one.dnom" horiz-adv-x="232" 
d="M25 285l97 65h45v-350h-59v276l-53 -36z" />
    <glyph glyph-name="two.dnom" horiz-adv-x="300" 
d="M119 54h148v-54h-231v44l131 137q19 20 30 37t11 34q0 22 -15.5 35.5t-40.5 13.5q-28 0 -45.5 -16.5t-17.5 -43.5h-59q0 49 34.5 81.5t87.5 32.5q51 0 83 -29.5t32 -71.5q0 -26 -13 -49t-34 -45z" />
    <glyph glyph-name="three.dnom" horiz-adv-x="310" 
d="M259 152.5q18 -21.5 18 -53.5q0 -45 -32 -74.5t-89 -29.5q-54 0 -89 32.5t-37 81.5h59q2 -25 19.5 -42.5t47.5 -17.5q28 0 45 14t17 39q0 24 -17 38.5t-47 14.5h-32v49h32q23 0 37.5 13t14.5 35t-14.5 35.5t-37.5 13.5q-26 0 -42.5 -15t-16.5 -39h-59q0 44 33.5 76
t84.5 32q48 0 79.5 -28.5t31.5 -69.5q0 -25 -14 -43.5t-34 -28.5q24 -11 42 -32.5z" />
    <glyph glyph-name="four.dnom" horiz-adv-x="298" 
d="M225 122h40v-54h-40v-68h-59v68h-160v48l151 234h68v-228zM166 122v145l-93 -145h93z" />
    <glyph glyph-name="five.dnom" horiz-adv-x="313" 
d="M246.5 202.5q33.5 -34.5 33.5 -86.5t-34 -86.5t-89 -34.5q-53 0 -86 30t-38 73h59q4 -21 21 -35t44 -14q30 0 47 18t17 49t-17 49t-47 18q-22 0 -39 -10.5t-25 -25.5h-48l25 203h187v-54h-140l-10 -75q22 16 53 16q53 0 86.5 -34.5z" />
    <glyph glyph-name="six.dnom" horiz-adv-x="306" 
d="M242 199.5q36 -32.5 36 -83.5t-36 -86t-90 -35t-90 35t-36 86q0 29 11.5 54.5t33.5 56.5l84 123h66l-82 -120q10 2 13 2q54 0 90 -32.5zM199 68.5q20 19.5 20 47.5t-20 47.5t-47 19.5q-28 0 -47.5 -19.5t-19.5 -47.5t19.5 -47.5t47.5 -19.5q27 0 47 19.5z" />
    <glyph glyph-name="seven.dnom" horiz-adv-x="290" 
d="M23 296v54h239v-36l-133 -314h-61l126 296h-171z" />
    <glyph glyph-name="eight.dnom" horiz-adv-x="318" 
d="M269.5 152q15.5 -22 15.5 -53q0 -45 -35 -74.5t-91 -29.5t-91 29.5t-35 74.5q0 31 15.5 53t38.5 34q-18 11 -30 30t-12 43q0 40 32.5 68t81.5 28t81.5 -28t32.5 -68q0 -24 -12 -43t-30 -30q23 -12 38.5 -34zM117.5 290.5q-16.5 -13.5 -16.5 -34.5q0 -20 16.5 -34
t41.5 -14t41.5 14t16.5 34q0 21 -16.5 34.5t-41.5 13.5t-41.5 -13.5zM209.5 62q19.5 16 19.5 42t-19.5 42t-50.5 16t-50.5 -16t-19.5 -42t19.5 -42t50.5 -16t50.5 16z" />
    <glyph glyph-name="nine.dnom" horiz-adv-x="306" 
d="M244 320q36 -35 36 -86q0 -29 -11.5 -54.5t-33.5 -56.5l-84 -123h-66l82 120q-10 -2 -13 -2q-54 0 -90 32.5t-36 83.5t36 86t90 35t90 -35zM201.5 186.5q19.5 19.5 19.5 47.5t-19.5 47.5t-47.5 19.5q-27 0 -47 -19.5t-20 -47.5t20 -47.5t47 -19.5q28 0 47.5 19.5z" />
    <glyph glyph-name="periodcentered.case" horiz-adv-x="238" 
d="M82 313q-15 15 -15 37t15 37t37 15t37 -15t15 -37t-15 -37t-37 -15t-37 15z" />
    <glyph glyph-name="uni20BF.numr" horiz-adv-x="327" 
d="M282 389q-20 -25 -53 -34v-55h-44v50h-47v-50h-44v50h-49v350h49v50h44v-50h47v50h44v-58q25 -11 40.5 -34t15.5 -51q0 -23 -12 -42t-32 -30q27 -9 44 -32.5t17 -54.5q0 -34 -20 -59zM213.5 634.5q-13.5 12.5 -37.5 12.5h-73v-93h73q22 0 36.5 13t14.5 33
q0 22 -13.5 34.5zM189 403q25 0 40 13.5t15 37.5q0 22 -15.5 35.5t-39.5 13.5h-86v-100h86z" />
    <glyph glyph-name="cent.numr" horiz-adv-x="309" 
d="M206 408q19 15 27 39h53q-7 -39 -32.5 -65t-62.5 -34v-48h-59v48q-45 11 -74.5 49t-29.5 89t29.5 89t74.5 49v48h59v-48q35 -8 61 -35t34 -64h-53q-8 24 -27.5 39t-43.5 15q-36 0 -58.5 -26t-22.5 -67t22.5 -67t58.5 -26q25 0 44 15z" />
    <glyph glyph-name="dollar.numr" horiz-adv-x="304" 
d="M251.5 380.5q-24.5 -26.5 -66.5 -33.5v-47h-59v48q-45 8 -70.5 37t-27.5 76h58q4 -63 73 -63q27 0 43 12.5t16 32.5t-17.5 31.5t-53.5 23.5q-35 12 -57 23t-37.5 32t-15.5 54q0 40 24 65t65 31v47h59v-49q40 -9 62.5 -39t24.5 -68h-58q-2 25 -18 41.5t-44 16.5
q-26 0 -41.5 -13.5t-15.5 -31.5q0 -24 19 -36.5t58 -24.5q34 -12 54.5 -22t35 -29.5t14.5 -50.5q0 -37 -24.5 -63.5z" />
    <glyph glyph-name="Euro.numr" horiz-adv-x="353" 
d="M154 632.5q-29 -19.5 -41 -55.5h135v-38h-142v-14v-14h142v-38h-135q12 -36 41 -55.5t72 -19.5q59 0 107 29v-57q-50 -25 -107 -25q-64 0 -110.5 33.5t-61.5 94.5h-49v38h43v14v14h-43v38h49q15 61 61.5 94.5t110.5 33.5q57 0 107 -25v-57q-48 29 -107 29
q-43 0 -72 -19.5z" />
    <glyph glyph-name="uni20B4.numr" horiz-adv-x="312" 
d="M289 579v-38h-267v38h177q9 14 9 30q0 18 -14 30.5t-37 12.5q-27 0 -42.5 -13t-17.5 -31h-58q3 42 35 69.5t83 27.5q49 0 79 -26t30 -64q0 -20 -9 -36h32zM290 471h-177q-9 -14 -9 -30q0 -18 14 -30.5t37 -12.5q27 0 42.5 13t17.5 31h58q-3 -42 -35 -69.5t-83 -27.5
q-49 0 -79 26t-30 64q0 20 9 36h-32v38h267v-38z" />
    <glyph glyph-name="uni20BA.numr" horiz-adv-x="306" 
d="M289 485q0 -135 -178 -135h-51v120l-43 -17v45l43 17v36l-43 -17v45l43 17v104h58v-80l85 34v-45l-85 -34v-36l85 34v-45l-85 -34v-91q61 0 87 20t26 62h58z" />
    <glyph glyph-name="uni20BD.numr" horiz-adv-x="323" 
d="M116 488v-37h105v-48h-105v-53h-58v53h-41v48h41v37h-41v53h41v159h125q55 0 87.5 -30t32.5 -77q0 -45 -33 -75t-87 -30h-67zM116 647v-106h68q26 0 43.5 14.5t17.5 37.5q0 25 -17.5 39.5t-43.5 14.5h-68z" />
    <glyph glyph-name="uni20B9.numr" horiz-adv-x="302" 
d="M279 700v-43h-59q21 -19 25 -51h34v-43h-33q-6 -45 -38.5 -69.5t-83.5 -24.5h-12l167 -119h-84l-167 119v43h101q23 0 39.5 14t22.5 37h-163v43h162q-6 23 -22.5 37t-38.5 14h-101v43h251z" />
    <glyph glyph-name="sterling.numr" horiz-adv-x="312" 
d="M123 440q0 -25 -21 -37h187v-53h-261v53q37 0 37 37v52h-37v53h37v43q0 54 30.5 85.5t81.5 31.5q49 0 80.5 -30.5t31.5 -77.5h-58q0 24 -16 39.5t-39 15.5t-38 -17t-15 -47v-43h101v-53h-101v-52z" />
    <glyph glyph-name="uni20B8.numr" horiz-adv-x="312" 
d="M290 647h-268v53h268v-53zM185 350h-58v205h-105v53h268v-53h-105v-205z" />
    <glyph glyph-name="uni20A9.numr" horiz-adv-x="474" 
d="M457 594v-43h-53l-16 -53h69v-43h-81l-31 -105h-50l-58 233l-57 -233h-51l-31 105h-81v43h69l-16 53h-53v43h41l-31 106h56l72 -271l66 271h33l66 -273l73 273h54l-31 -106h41z" />
    <glyph glyph-name="yen.numr" horiz-adv-x="333" 
d="M257 700h62l-105 -175h66v-43h-85v-38h85v-43h-85v-51h-58v51h-85v43h85v38h-85v43h66l-104 175h65l88 -159z" />
    <glyph glyph-name="dong.numr" horiz-adv-x="268" 
d="M257 671v-36h-32v-222h-39l-9 21h-5q-22 -25 -57 -25q-38 0 -65 27.5t-27 70.5q0 44 27 71t68 27q18 0 32.5 -6t21.5 -14h5v50h-68v36h68v29h48v-29h32zM162.5 467.5q14.5 15.5 14.5 39.5q0 25 -14.5 40t-37.5 15q-24 0 -39 -15t-15 -40q0 -24 15 -39.5t39 -15.5
q23 0 37.5 15.5zM225 350h-184v36h184v-36z" />
    <glyph glyph-name="florin.numr" horiz-adv-x="241" 
d="M164 602l-5 -26h66l-11 -53h-65l-25 -135q-10 -52 -36.5 -79t-67.5 -27q-22 0 -42 10l13 48q10 -5 28 -5q40 0 48 49l26 139h-47l11 53h46l4 23q10 52 36 79t67 27q11 0 19.5 -2t21.5 -8l-11 -49q-9 6 -29 6q-37 0 -47 -50z" />
    <glyph glyph-name="currency.numr" horiz-adv-x="334" 
d="M262 457l52 -51l-33 -33l-48 49q-28 -22 -66 -22t-66 22l-48 -49l-33 33l52 51q-12 23 -12 51q0 29 12 51l-52 51l33 33l48 -49q28 22 66 22t66 -22l48 49l33 -33l-52 -51q12 -22 12 -51q0 -28 -12 -51zM212.5 457.5q18.5 19.5 18.5 50.5t-18.5 50.5t-45.5 19.5
t-45.5 -19.5t-18.5 -50.5t18.5 -50.5t45.5 -19.5t45.5 19.5z" />
    <glyph glyph-name="uni20BF.dnom" horiz-adv-x="327" 
d="M282 39q-20 -25 -53 -34v-55h-44v50h-47v-50h-44v50h-49v350h49v50h44v-50h47v50h44v-58q25 -11 40.5 -34t15.5 -51q0 -23 -12 -42t-32 -30q27 -9 44 -32.5t17 -54.5q0 -34 -20 -59zM213.5 284.5q-13.5 12.5 -37.5 12.5h-73v-93h73q22 0 36.5 13t14.5 33q0 22 -13.5 34.5
zM189 53q25 0 40 13.5t15 37.5q0 22 -15.5 35.5t-39.5 13.5h-86v-100h86z" />
    <glyph glyph-name="cent.dnom" horiz-adv-x="309" 
d="M206 58q19 15 27 39h53q-7 -39 -32.5 -65t-62.5 -34v-48h-59v48q-45 11 -74.5 49t-29.5 89t29.5 89t74.5 49v48h59v-48q35 -8 61 -35t34 -64h-53q-8 24 -27.5 39t-43.5 15q-36 0 -58.5 -26t-22.5 -67t22.5 -67t58.5 -26q25 0 44 15z" />
    <glyph glyph-name="dollar.dnom" horiz-adv-x="304" 
d="M251.5 30.5q-24.5 -26.5 -66.5 -33.5v-47h-59v48q-45 8 -70.5 37t-27.5 76h58q4 -63 73 -63q27 0 43 12.5t16 32.5t-17.5 31.5t-53.5 23.5q-35 12 -57 23t-37.5 32t-15.5 54q0 40 24 65t65 31v47h59v-49q40 -9 62.5 -39t24.5 -68h-58q-2 25 -18 41.5t-44 16.5
q-26 0 -41.5 -13.5t-15.5 -31.5q0 -24 19 -36.5t58 -24.5q34 -12 54.5 -22t35 -29.5t14.5 -50.5q0 -37 -24.5 -63.5z" />
    <glyph glyph-name="Euro.dnom" horiz-adv-x="353" 
d="M154 282.5q-29 -19.5 -41 -55.5h135v-38h-142v-14v-14h142v-38h-135q12 -36 41 -55.5t72 -19.5q59 0 107 29v-57q-50 -25 -107 -25q-64 0 -110.5 33.5t-61.5 94.5h-49v38h43v14v14h-43v38h49q15 61 61.5 94.5t110.5 33.5q57 0 107 -25v-57q-48 29 -107 29
q-43 0 -72 -19.5z" />
    <glyph glyph-name="uni20B4.dnom" horiz-adv-x="312" 
d="M289 229v-38h-267v38h177q9 14 9 30q0 18 -14 30.5t-37 12.5q-27 0 -42.5 -13t-17.5 -31h-58q3 42 35 69.5t83 27.5q49 0 79 -26t30 -64q0 -20 -9 -36h32zM290 121h-177q-9 -14 -9 -30q0 -18 14 -30.5t37 -12.5q27 0 42.5 13t17.5 31h58q-3 -42 -35 -69.5t-83 -27.5
q-49 0 -79 26t-30 64q0 20 9 36h-32v38h267v-38z" />
    <glyph glyph-name="uni20BA.dnom" horiz-adv-x="306" 
d="M289 135q0 -135 -178 -135h-51v120l-43 -17v45l43 17v36l-43 -17v45l43 17v104h58v-80l85 34v-45l-85 -34v-36l85 34v-45l-85 -34v-91q61 0 87 20t26 62h58z" />
    <glyph glyph-name="uni20BD.dnom" horiz-adv-x="323" 
d="M116 138v-37h105v-48h-105v-53h-58v53h-41v48h41v37h-41v53h41v159h125q55 0 87.5 -30t32.5 -77q0 -45 -33 -75t-87 -30h-67zM116 297v-106h68q26 0 43.5 14.5t17.5 37.5q0 25 -17.5 39.5t-43.5 14.5h-68z" />
    <glyph glyph-name="uni20B9.dnom" horiz-adv-x="302" 
d="M279 350v-43h-59q21 -19 25 -51h34v-43h-33q-6 -45 -38.5 -69.5t-83.5 -24.5h-12l167 -119h-84l-167 119v43h101q23 0 39.5 14t22.5 37h-163v43h162q-6 23 -22.5 37t-38.5 14h-101v43h251z" />
    <glyph glyph-name="sterling.dnom" horiz-adv-x="312" 
d="M123 90q0 -25 -21 -37h187v-53h-261v53q37 0 37 37v52h-37v53h37v43q0 54 30.5 85.5t81.5 31.5q49 0 80.5 -30.5t31.5 -77.5h-58q0 24 -16 39.5t-39 15.5t-38 -17t-15 -47v-43h101v-53h-101v-52z" />
    <glyph glyph-name="uni20B8.dnom" horiz-adv-x="312" 
d="M290 297h-268v53h268v-53zM185 0h-58v205h-105v53h268v-53h-105v-205z" />
    <glyph glyph-name="uni20A9.dnom" horiz-adv-x="474" 
d="M457 244v-43h-53l-16 -53h69v-43h-81l-31 -105h-50l-58 233l-57 -233h-51l-31 105h-81v43h69l-16 53h-53v43h41l-31 106h56l72 -271l66 271h33l66 -273l73 273h54l-31 -106h41z" />
    <glyph glyph-name="yen.dnom" horiz-adv-x="333" 
d="M257 350h62l-105 -175h66v-43h-85v-38h85v-43h-85v-51h-58v51h-85v43h85v38h-85v43h66l-104 175h65l88 -159z" />
    <glyph glyph-name="dong.dnom" horiz-adv-x="268" 
d="M257 321v-36h-32v-222h-39l-9 21h-5q-22 -25 -57 -25q-38 0 -65 27.5t-27 70.5q0 44 27 71t68 27q18 0 32.5 -6t21.5 -14h5v50h-68v36h68v29h48v-29h32zM162.5 117.5q14.5 15.5 14.5 39.5q0 25 -14.5 40t-37.5 15q-24 0 -39 -15t-15 -40q0 -24 15 -39.5t39 -15.5
q23 0 37.5 15.5zM225 0h-184v36h184v-36z" />
    <glyph glyph-name="florin.dnom" horiz-adv-x="241" 
d="M164 252l-5 -26h66l-11 -53h-65l-25 -135q-10 -52 -36.5 -79t-67.5 -27q-22 0 -42 10l13 48q10 -5 28 -5q40 0 48 49l26 139h-47l11 53h46l4 23q10 52 36 79t67 27q11 0 19.5 -2t21.5 -8l-11 -49q-9 6 -29 6q-37 0 -47 -50z" />
    <glyph glyph-name="currency.dnom" horiz-adv-x="334" 
d="M262 113l52 -51l-33 -33l-48 49q-28 -22 -66 -22t-66 22l-48 -49l-33 33l52 51q-12 23 -12 51q0 29 12 51l-52 51l33 33l48 -49q28 22 66 22t66 -22l48 49l33 -33l-52 -51q12 -22 12 -51q0 -28 -12 -51zM212.5 113.5q18.5 19.5 18.5 50.5t-18.5 50.5t-45.5 19.5
t-45.5 -19.5t-18.5 -50.5t18.5 -50.5t45.5 -19.5t45.5 19.5z" />
    <glyph glyph-name="minus.osf" horiz-adv-x="560" 
d="M487 225h-414v61h414v-61z" />
    <glyph glyph-name="plus.osf" horiz-adv-x="560" 
d="M313 36h-65v189h-179v61h179v189h65v-189h179v-61h-179v-189z" />
    <glyph glyph-name="less.osf" horiz-adv-x="560" 
d="M81 277l384 199v-67l-305 -154l305 -154v-67l-384 200v43z" />
    <glyph glyph-name="greater.osf" horiz-adv-x="560" 
d="M95 409v67l384 -200v-43l-384 -199v67l305 154z" />
    <glyph glyph-name="lessequal.osf" horiz-adv-x="560" 
d="M81 350l384 174v-63l-296 -133l296 -133v-63l-384 175v43zM465 0h-384v61h384v-61z" />
    <glyph glyph-name="greaterequal.osf" horiz-adv-x="560" 
d="M95 461v63l384 -174v-43l-384 -175v63l296 133zM479 0h-384v61h384v-61z" />
    <glyph glyph-name="equal.osf" horiz-adv-x="560" 
d="M492 328h-423v61h423v-61zM492 121h-423v61h423v-61z" />
    <glyph glyph-name="notequal.osf" horiz-adv-x="560" 
d="M492 389v-61h-150l-59 -146h209v-61h-234l-51 -126h-62l51 126h-127v61h152l59 146h-211v61h236l51 125h62l-51 -125h125z" />
    <glyph glyph-name="asciitilde.osf" horiz-adv-x="560" 
d="M322 193.5q-25 12.5 -57 36.5q-28 20 -46 29.5t-37 9.5q-27 0 -44 -21t-17 -62h-58q0 68 35 105t84 37q31 0 56.5 -12.5t56.5 -36.5q28 -20 46 -29.5t37 -9.5q27 0 44 21t17 62h58q0 -68 -35 -105t-84 -37q-31 0 -56 12.5z" />
    <glyph glyph-name="logicalnot.osf" horiz-adv-x="560" 
d="M492 155h-61v100h-363v61h424v-161z" />
    <glyph glyph-name="plusminus.osf" horiz-adv-x="560" 
d="M492 314v-61h-179v-192h179v-61h-423v61h179v192h-179v61h179v189h65v-189h179z" />
    <glyph glyph-name="multiply.osf" horiz-adv-x="560" 
d="M280 213l-138 -138l-42 42l139 138l-139 138l42 42l138 -138l138 138l42 -42l-139 -138l139 -138l-42 -42z" />
    <glyph glyph-name="divide.osf" horiz-adv-x="560" 
d="M243 391q-15 15 -15 37t15 37t37 15t37 -15t15 -37t-15 -37t-37 -15t-37 15zM487 225h-414v61h414v-61zM243 46q-15 15 -15 37t15 37t37 15t37 -15t15 -37t-15 -37t-37 -15t-37 15z" />
    <glyph glyph-name="colon.calt" horiz-adv-x="182" 
d="M54 521q-15 15 -15 37t15 37t37 15t37 -15t15 -37t-15 -37t-37 -15t-37 15zM54 115q-15 15 -15 37t15 37t37 15t37 -15t15 -37t-15 -37t-37 -15t-37 15z" />
    <glyph glyph-name="uni0308.case" 
d="M-273 788.5q-13 12.5 -13 30.5t13 30.5t30 12.5q18 0 30.5 -12.5t12.5 -30.5t-12.5 -30.5t-30.5 -12.5q-17 0 -30 12.5zM-103 788.5q-13 12.5 -13 30.5t13 30.5t30 12.5t30 -12.5t13 -30.5t-13 -30.5t-30 -12.5t-30 12.5z" />
    <glyph glyph-name="uni0308.alt" 
d="M-227 594.5q-13 12.5 -13 30.5t12.5 30.5t30.5 12.5t30.5 -12t12.5 -31q0 -18 -12.5 -30.5t-30.5 -12.5q-17 0 -30 12.5zM-103 594.5q-13 12.5 -13 30.5t12.5 30.5t30.5 12.5t30.5 -12t12.5 -31q0 -18 -12.5 -30.5t-30.5 -12.5q-17 0 -30 12.5z" />
    <glyph glyph-name="uni0308.alt.case" 
d="M-237 788.5q-13 12.5 -13 30.5t13 30.5t30 12.5q18 0 30.5 -12.5t12.5 -30.5t-12.5 -30.5t-30.5 -12.5q-17 0 -30 12.5zM-103 788.5q-13 12.5 -13 30.5t13 30.5t30 12.5q18 0 30.5 -12.5t12.5 -30.5t-12.5 -30.5t-30.5 -12.5q-17 0 -30 12.5z" />
    <glyph glyph-name="uni0307.case" 
d="M-107 787q-13 13 -13 32q0 20 13 32.5t32 12.5q20 0 32.5 -12.5t12.5 -32.5q0 -19 -13 -32t-32 -13t-32 13z" />
    <glyph glyph-name="gravecomb.case" 
d="M-30 755h-54l-95 128h78z" />
    <glyph glyph-name="acutecomb.case" 
d="M-124 755h-54l70 128h78z" />
    <glyph glyph-name="uni030B.case" 
d="M-267 755h-54l80 128h78zM-134 755h-54l80 128h78z" />
    <glyph glyph-name="uni0302.case" 
d="M-134 883l104 -128h-68l-69 85l-68 -85h-67l105 128h63z" />
    <glyph glyph-name="uni030C.alt" 
d="M-91 560h-40l32 140h69z" />
    <glyph glyph-name="uni030C.case" 
d="M-167 798l69 85h68l-104 -128h-63l-105 128h67z" />
    <glyph glyph-name="uni0306.case" 
d="M-258 795q-36 35 -38 84h54q4 -33 24 -51.5t55 -18.5t55 18.5t24 51.5h54q-2 -49 -38 -84t-95 -35t-95 35z" />
    <glyph glyph-name="uni030A.case" 
d="M-190 781.5q-27 26.5 -27 64.5t27 65t67 27q39 0 66 -27t27 -65t-26.5 -64.5t-66.5 -26.5t-67 26.5zM-89 811q13 13 13 35t-13.5 35.5t-33.5 13.5q-21 0 -34.5 -13.5t-13.5 -35.5t13.5 -35t34.5 -13t34 13z" />
    <glyph glyph-name="ringacutecomb" horiz-adv-x="263" 
d="M148 745h-51l61 124h75zM56.5 576q-26.5 26 -26.5 64t26.5 64t65.5 26t65.5 -26t26.5 -64t-26.5 -64t-65.5 -26t-65.5 26zM157.5 604.5q13.5 13.5 13.5 35.5t-13.5 35.5t-35.5 13.5t-35.5 -13.5t-13.5 -35.5t13.5 -35.5t35.5 -13.5t35.5 13.5z" />
    <glyph glyph-name="ringacutecomb.case" horiz-adv-x="263" 
d="M152 943h-54l57 114h78zM57 771.5q-27 26.5 -27 64.5t27 65t67 27q39 0 66 -27t27 -65t-26.5 -64.5t-66.5 -26.5t-67 26.5zM158 801q13 13 13 35t-13.5 35.5t-33.5 13.5q-21 0 -34.5 -13.5t-13.5 -35.5t13.5 -35t34.5 -13t34 13z" />
    <glyph glyph-name="tildecomb.case" 
d="M-156 772q-16 10 -34 28q-14 13 -22.5 19t-18.5 6q-17 0 -28 -15t-11 -42h-50q0 53 25.5 81.5t61.5 28.5q23 0 39 -10t34 -28q14 -13 22.5 -19t18.5 -6q17 0 28 15t11 42h50q0 -53 -26 -81.5t-61 -28.5q-23 0 -39 10z" />
    <glyph glyph-name="tildecomb.alt" 
d="M-153.5 577q-15.5 11 -33.5 31q-13 14 -21.5 20.5t-18.5 6.5q-16 0 -26.5 -16t-10.5 -47h-50q0 58 24.5 87t60.5 29q23 0 38.5 -11t33.5 -31q13 -14 21.5 -20.5t18.5 -6.5q15 0 26 16.5t11 46.5h50q0 -58 -24.5 -87t-60.5 -29q-23 0 -38.5 11z" />
    <glyph glyph-name="tildecomb.alt.case" 
d="M-156 772q-16 10 -34 28q-14 13 -22.5 19t-18.5 6q-17 0 -28 -15t-11 -42h-50q0 53 25.5 81.5t61.5 28.5q23 0 39 -10t34 -28q14 -13 22.5 -19t18.5 -6q17 0 28 15t11 42h50q0 -53 -26 -81.5t-61 -28.5q-23 0 -39 10z" />
    <glyph glyph-name="uni0304.case" 
d="M-30 792h-254v55h254v-55z" />
    <glyph glyph-name="hookabovecomb.case" 
d="M-108 752q22 31 22 61q0 21 -13.5 34t-36.5 13q-17 0 -32 -4v50q19 6 47 6q41 0 66 -22t25 -59q0 -45 -28 -79h-50z" />
    <glyph glyph-name="uni03060301" 
d="M-138 678h-51l61 125h75zM-254.5 591.5q-35.5 35.5 -37.5 86.5h54q4 -35 23.5 -54t53.5 -19t53.5 19t23.5 54h54q-2 -51 -37.5 -86.5t-93.5 -35.5t-93.5 35.5z" />
    <glyph glyph-name="uni03060301.case" 
d="M-140 869h-50l56 113h73zM-258 785q-36 35 -38 84h54q4 -33 24 -51.5t55 -18.5t55 18.5t24 51.5h54q-2 -49 -38 -84t-95 -35t-95 35z" />
    <glyph glyph-name="uni03060300" 
d="M-133 678h-51l-85 125h75zM-254.5 591.5q-35.5 35.5 -37.5 86.5h54q4 -35 23.5 -54t53.5 -19t53.5 19t23.5 54h54q-2 -51 -37.5 -86.5t-93.5 -35.5t-93.5 35.5z" />
    <glyph glyph-name="uni03060300.case" 
d="M-136 869h-50l-79 113h73zM-258 785q-36 35 -38 84h54q4 -33 24 -51.5t55 -18.5t55 18.5t24 51.5h54q-2 -49 -38 -84t-95 -35t-95 35z" />
    <glyph glyph-name="uni03060309" 
d="M-185 678q21 31 21 54t-12.5 35t-31.5 12q-13 0 -28 -4v48q20 6 42 6q37 0 60 -22t23 -58q0 -20 -6.5 -36t-19.5 -35h-48zM-254.5 591.5q-35.5 35.5 -37.5 86.5h54q4 -35 23.5 -54t53.5 -19t53.5 19t23.5 54h54q-2 -51 -37.5 -86.5t-93.5 -35.5t-93.5 35.5z" />
    <glyph glyph-name="uni03060309.case" 
d="M-188 869q23 31 23 53q0 18 -11 29t-32 11q-16 0 -31 -4v50q24 6 47 6q37 0 60 -20t23 -54q0 -20 -8 -38.5t-21 -32.5h-50zM-258 785q-36 35 -38 84h54q4 -33 24 -51.5t55 -18.5t55 18.5t24 51.5h54q-2 -49 -38 -84t-95 -35t-95 35z" />
    <glyph glyph-name="uni03060303" 
d="M-148.5 704.5q-14.5 9.5 -31.5 27.5q-10 11 -18 17t-17 6q-14 0 -24.5 -15t-10.5 -39h-50q0 51 24.5 79t58.5 28q21 0 35.5 -9.5t31.5 -27.5q10 -11 18 -17t17 -6q14 0 24.5 15t10.5 39h50q0 -52 -25 -79.5t-58 -27.5q-21 0 -35.5 9.5zM-262.5 591.5
q-35.5 35.5 -37.5 86.5h54q4 -35 23.5 -54t53.5 -19t53.5 19t23.5 54h54q-2 -51 -37.5 -86.5t-93.5 -35.5t-93.5 35.5z" />
    <glyph glyph-name="uni03060303.case" 
d="M-149 899.5q-15 9.5 -31 26.5q-10 11 -18 17t-17 6q-14 0 -24.5 -14.5t-10.5 -38.5h-50q0 51 24.5 78.5t58.5 27.5q21 0 36 -9.5t31 -26.5q10 -11 18 -17t17 -6q14 0 24.5 14.5t10.5 38.5h50q0 -51 -25 -78.5t-58 -27.5q-21 0 -36 9.5zM-260 785q-36 35 -38 84h54
q4 -33 24 -51.5t55 -18.5t55 18.5t24 51.5h54q-2 -49 -38 -84t-95 -35t-95 35z" />
    <glyph glyph-name="uni03020301" 
d="M-166 635l61 125h75l-85 -125h-51zM-394 550l102 134h60l102 -134h-68l-65 91l-65 -91h-66z" />
    <glyph glyph-name="uni03020301.case" 
d="M-159 830l56 113h73l-79 -113h-50zM-393 745l105 128h63l104 -128h-68l-69 85l-68 -85h-67z" />
    <glyph glyph-name="uni03020300" 
d="M-91 760l61 -125h-51l-85 125h75zM-335 550l102 134h60l102 -134h-68l-65 91l-65 -91h-66z" />
    <glyph glyph-name="uni03020300.case" 
d="M-86 943l56 -113h-50l-79 113h73zM-342 745l105 128h63l104 -128h-68l-69 85l-68 -85h-67z" />
    <glyph glyph-name="uni03020309" 
d="M-53 759.5q23 -21.5 23 -53.5q0 -20 -6.5 -36t-19.5 -35h-48q21 31 21 54q0 19 -12.5 30.5t-31.5 11.5q-13 0 -28 -4v48q20 6 42 6q37 0 60 -21.5zM-333 550l102 134h60l102 -134h-68l-65 91l-65 -91h-66z" />
    <glyph glyph-name="uni03020309.case" 
d="M-53 955q23 -20 23 -54q0 -20 -8 -38.5t-21 -32.5h-50q23 31 23 53q0 18 -11 29t-32 11q-16 0 -31 -4v50q24 6 47 6q37 0 60 -20zM-346 745l105 128h63l104 -128h-68l-69 85l-68 -85h-67z" />
    <glyph glyph-name="uni03020303" 
d="M-239.5 751q-10.5 -15 -10.5 -39h-50q0 51 24.5 79t58.5 28q21 0 35.5 -9.5t31.5 -27.5q10 -11 18 -17t17 -6q14 0 24.5 15t10.5 39h50q0 -52 -25 -79.5t-58 -27.5q-21 0 -35.5 9.5t-31.5 27.5q-10 11 -18 17t-17 6q-14 0 -24.5 -15zM-294 550l102 134h60l102 -134h-68
l-65 91l-65 -91h-66z" />
    <glyph glyph-name="uni03020303.case" 
d="M-241.5 938.5q-10.5 -14.5 -10.5 -38.5h-50q0 51 24.5 78.5t58.5 27.5q21 0 36 -9.5t31 -26.5q10 -11 18 -17t17 -6q14 0 24.5 14.5t10.5 38.5h50q0 -51 -25 -78.5t-58 -27.5q-21 0 -36 9.5t-31 26.5q-10 11 -18 17t-17 6q-14 0 -24.5 -14.5zM-134 873l104 -128h-68
l-69 85l-68 -85h-67l105 128h63z" />
    </font>
</defs>
</svg>
